<svg width="71" height="71" viewBox="0 0 71 71" fill="none" xmlns="http://www.w3.org/2000/svg">
<circle cx="35.5" cy="35.5" r="34.5" fill="white" stroke="#C4C4C4" stroke-width="2"/>
<path d="M50.9165 50.4929C50.071 50.4929 49.0837 50.9013 47.9562 51.7147L41.704 49.4121L48.0491 47.1077C49.115 47.7981 50.1013 48.1434 51.0112 48.1434C52.0124 48.1434 52.6708 47.6255 52.9851 46.5928C53.0475 46.3735 53.0787 46.1364 53.0787 45.8859C53.0787 44.5725 52.2324 43.8656 50.5404 43.7729C51.2287 43.0836 51.5753 42.408 51.5753 41.7501C51.5753 41.0627 51.2132 40.4807 50.4936 40.0105C50.1175 39.8242 49.7256 39.7292 49.319 39.7292C47.9395 39.7292 46.9993 40.8404 46.498 43.0669L35.4996 47.1578L24.5014 43.1619C24.0001 40.874 23.0587 39.7292 21.6808 39.7292C21.2736 39.7292 20.8816 39.8242 20.5053 40.0105C19.8171 40.4805 19.4719 41.0627 19.4719 41.7501C19.4719 42.408 19.8171 43.0836 20.5053 43.7729C18.7828 43.8656 17.9209 44.5725 17.9209 45.8861C17.9209 46.1364 17.9527 46.3737 18.0143 46.5928C18.3598 47.6255 19.0177 48.1434 19.9892 48.1434C20.897 48.1434 21.8839 47.7981 22.9504 47.1079L29.3423 49.4121L23.0431 51.6668C21.9466 50.8845 20.9768 50.4929 20.1307 50.4929C19.1267 50.4929 18.422 51.0111 18.0143 52.0436C17.9525 52.2629 17.9209 52.4969 17.9209 52.7494C17.9209 54.0643 18.7826 54.771 20.5053 54.8637C19.8171 55.5531 19.4719 56.2288 19.4719 56.8866C19.4719 57.5736 19.8171 58.1534 20.5053 58.6262C20.9451 58.8769 21.3672 59 21.7754 59C23.0587 59 23.9848 57.9034 24.5488 55.7106L35.4996 51.7147L46.4513 55.7106C47.0156 57.9035 47.9562 59 49.2714 59C49.648 59 50.0539 58.8769 50.4937 58.6262C51.2132 58.1534 51.5755 57.5736 51.5755 56.8866C51.5755 56.2288 51.2287 55.5531 50.5406 54.8637C52.2324 54.771 53.0789 54.0643 53.0789 52.7494C53.0789 52.4969 53.0475 52.2631 52.9853 52.0436C52.6089 51.0109 51.9196 50.4929 50.9165 50.4929Z" fill="#C4C4C4"/>
<path d="M20.6005 34.8886C22.3234 36.862 24.7517 38.3052 27.8868 39.2115V39.9193C27.8868 40.7957 28.1837 41.5326 28.779 42.1269C29.3739 42.7232 30.1104 43.0522 30.9881 43.1147C31.8965 43.1781 32.5693 43.0209 33.0084 42.6449C33.6972 43.1451 34.4651 43.3958 35.3121 43.3958C36.0952 43.3958 36.8168 43.1621 37.4739 42.6921C37.9127 43.0355 38.5548 43.1783 39.4016 43.1149C40.2782 43.0211 41.0154 42.6841 41.6104 42.1047C42.2053 41.5221 42.5027 40.7959 42.5027 39.9194V39.4027C45.8865 38.5247 48.5034 37.0523 50.3527 34.9818C52.1389 33.0092 53.0316 30.6753 53.0316 27.9796C53.0316 27.3832 52.9686 26.7569 52.8429 26.098C52.217 22.0902 50.368 18.7822 47.2978 16.1821C44.07 13.3949 40.1374 12 35.5 12C30.8615 12 26.929 13.3791 23.7027 16.134C20.6314 18.7683 18.7988 22.09 18.2036 26.0978C18.0777 26.7567 18.0146 27.383 18.0146 27.9794C18.0146 30.6116 18.876 32.913 20.6005 34.8886ZM39.1432 22.7868C40.0676 21.7063 41.1877 21.1656 42.5031 21.1656C43.8511 21.1656 44.9864 21.7063 45.9112 22.7868C46.8345 23.8656 47.298 25.1743 47.298 26.7086C47.298 28.2443 46.8347 29.5533 45.9112 30.6342C44.9864 31.7168 43.8509 32.2553 42.5031 32.2553C41.1877 32.2553 40.0676 31.7168 39.1432 30.6342C38.2179 29.5533 37.7557 28.2443 37.7557 26.7086C37.7556 25.1743 38.2179 23.8656 39.1432 22.7868ZM34.1608 33.5611C34.6146 32.9739 35.0601 32.679 35.5 32.679C35.9386 32.679 36.3526 33.0041 36.745 33.6572C37.1366 34.3074 37.334 34.9258 37.334 35.5161C37.334 36.4149 36.7372 36.8622 35.5465 36.8622C34.7627 36.8622 34.1833 36.6605 33.8078 36.2592C33.5882 36.0086 33.4795 35.7004 33.4795 35.3271C33.4797 34.7396 33.7062 34.1513 34.1608 33.5611ZM24.6896 22.7868C25.6298 21.7063 26.7582 21.1656 28.0738 21.1656C29.3888 21.1656 30.5174 21.7063 31.4581 22.7868C32.3985 23.8656 32.8694 25.1743 32.8694 26.7086C32.8694 28.2443 32.3987 29.5533 31.4581 30.6342C30.5176 31.7168 29.3888 32.2553 28.0738 32.2553C26.7582 32.2553 25.6298 31.7168 24.6896 30.6342C23.7499 29.5533 23.279 28.2443 23.279 26.7086C23.279 25.1743 23.7499 23.8656 24.6896 22.7868Z" fill="#C4C4C4"/>
</svg>
