<svg width="71" height="71" viewBox="0 0 71 71" fill="none" xmlns="http://www.w3.org/2000/svg">
<circle cx="35.5" cy="35.5" r="34.5" stroke="#C4C4C4" stroke-width="2"/>
<g clip-path="url(#clip0)">
<rect x="3.15332" y="29.1125" width="48" height="46.5" transform="rotate(-33.5067 3.15332 29.1125)" fill="white"/>
<path d="M43.175 21.3495L35.9284 10.4038C35.5688 9.86219 35.0022 9.48986 34.3528 9.36851C33.7033 9.24715 33.0241 9.38669 32.4641 9.75652L13.9114 22.0394C13.3522 22.4105 12.9585 22.9813 12.8166 23.6266C12.6747 24.2719 12.7962 24.9389 13.1545 25.4814L20.4011 36.4271C20.5905 36.7127 20.8397 36.9541 21.1327 37.1354C21.4257 37.3167 21.7559 37.434 22.1017 37.4796C22.0087 37.8158 21.9877 38.1656 22.0402 38.5061C22.0927 38.8467 22.2176 39.1704 22.4065 39.4562L34.6658 57.9732C35.0253 58.5149 35.592 58.8872 36.2414 59.0085C36.8909 59.1299 37.5701 58.9904 38.1301 58.6205L38.4168 58.4307L39.4937 60.0573C39.5868 60.1979 39.7337 60.2946 39.9022 60.3261C40.0706 60.3575 40.2467 60.3212 40.3919 60.2252L44.3004 57.6375C44.4455 57.5414 44.5477 57.3934 44.5845 57.2261C44.6213 57.0587 44.5897 56.8857 44.4967 56.7451L43.4197 55.1185L51.3931 49.8397L52.4701 51.4663C52.5631 51.6069 52.7101 51.7035 52.8785 51.735C53.0469 51.7665 53.2231 51.7302 53.3682 51.6341L57.2767 49.0465C57.4219 48.9504 57.5241 48.8024 57.5609 48.635C57.5977 48.4677 57.5661 48.2947 57.473 48.1541L56.3961 46.5275L56.6828 46.3376C57.2419 45.9665 57.6356 45.3957 57.7775 44.7505C57.9194 44.1052 57.798 43.4381 57.4397 42.8956L45.1805 24.3787C44.9911 24.093 44.7418 23.8517 44.4489 23.6704C44.1559 23.4891 43.8257 23.3718 43.4799 23.3261C43.5729 22.9899 43.5939 22.6402 43.5414 22.2997C43.4888 21.9591 43.364 21.6354 43.175 21.3495ZM43.0513 56.9396L40.2372 58.8027L39.5112 57.7062L42.3253 55.843L43.0513 56.9396ZM56.0276 48.3485L53.2135 50.2117L52.4875 49.1151L55.3017 47.252L56.0276 48.3485ZM44.0861 25.1032L56.3453 43.6202C56.5178 43.8814 56.5763 44.2026 56.508 44.5132C56.4397 44.8239 56.2501 45.0987 55.9809 45.2774L37.4282 57.5603C37.1585 57.7384 36.8315 57.8056 36.5188 57.7471C36.2061 57.6887 35.9333 57.5095 35.7602 57.2487L23.5009 38.7317C23.3285 38.4705 23.27 38.1493 23.3383 37.8386C23.4066 37.528 23.5962 37.2531 23.8654 37.0744L42.4181 24.7915C42.6877 24.6135 43.0148 24.5463 43.3275 24.6047C43.6401 24.6632 43.913 24.8424 44.0861 25.1032V25.1032ZM23.1635 36.0143C22.8939 36.1923 22.5668 36.2595 22.2541 36.201C21.9414 36.1426 21.6686 35.9634 21.4955 35.7026L14.2488 24.7569C14.0764 24.4957 14.0179 24.1745 14.0862 23.8638C14.1545 23.5531 14.3441 23.2783 14.6133 23.0996L33.166 10.8167C33.4356 10.6387 33.7627 10.5715 34.0754 10.6299C34.3881 10.6883 34.6609 10.8676 34.834 11.1284L42.0807 22.0741C42.2531 22.3353 42.3116 22.6565 42.2433 22.9671C42.175 23.2778 41.9854 23.5526 41.7162 23.7313L23.1635 36.0143Z" fill="#C4C4C4"/>
<path d="M33.4185 14.6005L31.3861 15.9461C31.2409 16.0422 31.1387 16.1902 31.1019 16.3575C31.0651 16.5249 31.0967 16.6979 31.1898 16.8384L35.4012 23.1996C35.4943 23.3402 35.6412 23.4368 35.8097 23.4683C35.9781 23.4998 36.1543 23.4635 36.2994 23.3674L38.3318 22.0218C38.477 21.9257 38.5792 21.7777 38.616 21.6104C38.6528 21.443 38.6211 21.27 38.5281 21.1295L34.3166 14.7683C34.2236 14.6277 34.0767 14.5311 33.9082 14.4996C33.7398 14.4681 33.5636 14.5044 33.4185 14.6005V14.6005ZM37.0827 21.3239L36.1447 21.9449L32.6352 16.644L33.5732 16.023L37.0827 21.3239Z" fill="#C4C4C4"/>
<path d="M45.0382 36.5674L47.0706 35.2218C47.2157 35.1257 47.3179 34.9777 47.3547 34.8104C47.3915 34.643 47.3599 34.47 47.2668 34.3294L43.0554 27.9683C42.9623 27.8277 42.8154 27.731 42.647 27.6995C42.4786 27.6681 42.3024 27.7044 42.1573 27.8004L40.1248 29.146C39.9797 29.2421 39.8775 29.3901 39.8407 29.5575C39.8039 29.7248 39.8355 29.8978 39.9286 30.0384L44.14 36.3995C44.2331 36.5401 44.38 36.6368 44.5484 36.6683C44.7169 36.6997 44.893 36.6635 45.0382 36.5674ZM41.3739 29.8439L42.312 29.2229L45.8215 34.5239L44.8835 35.1449L41.3739 29.8439Z" fill="#C4C4C4"/>
</g>
<defs>
<clipPath id="clip0">
<rect x="3.15332" y="29.1125" width="48" height="46.5" transform="rotate(-33.5067 3.15332 29.1125)" fill="white"/>
</clipPath>
</defs>
</svg>
