<svg width="71" height="71" viewBox="0 0 71 71" fill="none" xmlns="http://www.w3.org/2000/svg">
<circle cx="35.5" cy="35.5" r="34.5" stroke="#C4C4C4" stroke-width="2"/>
<path d="M35.9043 22.5744C33.6951 22.3188 31.882 21.0574 31.0223 19.2292L28.0185 12.8423C27.5024 11.7449 26.0823 11.3231 24.852 11.9017L22.2957 13.1039C21.0658 13.6823 20.485 15.0452 21.0011 16.1426L24.0048 22.5295C24.4562 23.4891 24.6251 24.5698 24.4934 25.6544C24.4425 26.0729 24.764 26.4208 25.2113 26.4314C25.659 26.4417 26.0626 26.1111 26.1133 25.6922C26.2766 24.3491 26.0674 23.0109 25.5084 21.8223L23.8398 18.2744L27.8497 16.3885L29.5183 19.9365C30.5852 22.2052 32.8343 23.7636 35.5653 24.0794C37.2335 24.2712 38.6907 25.0402 39.6774 26.2227L35.2971 28.2828C34.8823 28.4779 34.6868 28.9365 34.8608 29.3066C35.035 29.677 35.513 29.819 35.9279 29.6239L40.4753 27.4852L41.3833 29.4159L37.5328 35.3378C33.1075 34.6329 30.0577 39.3351 32.0408 43.7869L29.9469 47.0093L24.3347 35.0761L32.9203 31.0383C33.3356 30.843 33.5311 30.3843 33.357 30.0143C33.1828 29.6439 32.7049 29.5019 32.2896 29.6972L23.87 33.6569C23.7743 33.1408 23.7492 32.6101 23.7988 32.0704C23.9162 30.7754 24.3594 29.9148 24.9654 28.9292C25.197 28.5526 25.0716 28.0989 24.6854 27.9159C24.2992 27.7329 23.7984 27.89 23.567 28.2661C22.8394 29.4476 22.3148 30.5218 22.1738 32.075C22.0539 33.3838 22.2859 34.6228 22.8015 35.72L22.8026 35.7224L32.7979 56.9757C34.166 59.8847 37.9325 61.0035 41.1939 59.4697L48.5124 56.0278C51.6968 54.5302 53.3544 50.965 51.9249 47.9255C51.8524 47.7712 42.0858 27.0043 41.9507 26.7171C40.8776 24.4354 38.6272 22.8873 35.9043 22.5744V22.5744ZM27.2188 15.0471L23.2089 16.9329L22.5047 15.4355C22.3365 15.0778 22.5257 14.6339 22.9266 14.4454L25.4829 13.2432C25.8838 13.0546 26.3464 13.192 26.5146 13.5496L27.2188 15.0471ZM33.1923 42.0157C32.384 38.4801 35.0941 35.7549 38.1917 37.1398C41.813 38.751 42.5983 44.3951 39.302 45.9453C36.9234 47.064 33.891 45.0941 33.1923 42.0157ZM30.7148 48.6421L32.9164 45.2557C33.51 46.0236 34.2387 46.6353 35.0358 47.0631L32.0978 51.5828L30.7148 48.6421ZM50.1057 47.9624L38.5447 53.3995C38.1298 53.5947 37.934 54.0535 38.108 54.4236C38.2822 54.794 38.7605 54.9358 39.1754 54.7406L50.6799 49.3301C51.2237 51.3617 50.0747 53.6549 47.8815 54.6863L40.563 58.1282C38.3698 59.1597 35.8707 58.5822 34.6523 56.8678L36.1679 56.1551C36.5828 55.96 36.7786 55.5011 36.6044 55.1307C36.4304 54.7606 35.9521 54.6189 35.5372 54.814L33.9651 55.5533L32.8657 53.2156L36.5042 47.6207C41.2694 48.7407 44.6537 43.4946 42.2053 38.8485L44.3023 35.6226L50.1057 47.9624ZM43.5344 33.9898L41.2698 37.4733C40.639 36.746 39.8796 36.1804 39.06 35.8045L42.1512 31.0487L43.5344 33.9898Z" fill="#C4C4C4"/>
</svg>
