<svg width="71" height="71" viewBox="0 0 71 71" fill="none" xmlns="http://www.w3.org/2000/svg">
<circle cx="35.5" cy="35.5" r="34.5" stroke="#C4C4C4" stroke-width="2"/>
<g clip-path="url(#clip0)">
<rect x="4.25879" y="23.4395" width="45" height="48" transform="rotate(-27.6206 4.25879 23.4395)" fill="white"/>
<path d="M31.7745 22.9031L35.9393 20.7238C36.8922 20.2259 37.5953 19.3447 37.894 18.274C38.1927 17.2033 38.0625 16.0307 37.5321 15.0138C37.4923 14.9379 37.4387 14.8701 37.3745 14.8145C37.3103 14.7588 37.2368 14.7163 37.1582 14.6895C37.0796 14.6626 36.9974 14.6519 36.9165 14.658C36.8355 14.6641 36.7574 14.6868 36.6867 14.7249L30.4489 17.9888C30.0435 18.2043 29.7445 18.5813 29.6167 19.0385C29.4888 19.4956 29.5422 19.9962 29.7655 20.4321L30.9223 22.6431C31.0906 22.9646 31.4734 23.0606 31.7745 22.9031ZM30.8557 19.8616C30.7935 19.7342 30.7798 19.5893 30.8174 19.4571C30.855 19.3249 30.941 19.2155 31.0576 19.1516L36.6903 16.2044C37.0931 17.5807 36.5253 18.9359 35.3307 19.561L31.694 21.4638L30.8557 19.8616Z" fill="#C4C4C4"/>
<path d="M19.83 32.5256C19.9879 32.5807 20.1572 32.5701 20.301 32.496C20.4449 32.422 20.5518 32.2905 20.5986 32.13L20.6879 31.824L21.6832 32.2096L21.056 34.3413C20.9453 34.7166 20.9093 35.1152 20.9503 35.5136C20.9912 35.9119 21.1083 36.3019 21.2945 36.6607L29.8808 53.0704C30.5432 54.3304 31.647 55.2928 32.9501 55.7464C34.2531 56.2 35.6493 56.108 36.8324 55.4905L53.4634 46.7884C54.6435 46.1686 55.5128 45.0744 55.8804 43.7462C56.2479 42.4179 56.0836 40.9645 55.4236 39.7052L41.2272 12.5738C41.0449 12.2236 40.7997 11.9106 40.5056 11.6525C40.2115 11.3944 39.8743 11.1963 39.5132 11.0696C39.1521 10.9428 38.7743 10.8899 38.4012 10.9139C38.0281 10.9379 37.6672 11.0382 37.3389 11.2092L27.1885 16.5204C26.8626 16.6924 26.5762 16.9315 26.3458 17.224C26.1155 17.5165 25.9457 17.8566 25.8464 18.2245C25.747 18.5925 25.72 18.9812 25.7669 19.3681C25.8138 19.755 25.9336 20.1325 26.1196 20.4788L27.2442 22.6281L25.0248 23.7894C24.3738 24.1242 23.8887 24.7174 23.6733 25.442L23.1759 27.1264L22.1729 26.7357L22.3597 26.0922C22.3832 26.0113 22.3907 25.9256 22.3819 25.8399C22.373 25.7542 22.348 25.6703 22.3081 25.593C22.2683 25.5158 22.2144 25.4467 22.1497 25.3897C22.085 25.3328 22.0107 25.2892 21.9312 25.2614L18.8829 24.1977C18.7249 24.1426 18.5556 24.1532 18.4117 24.2273C18.2678 24.3013 18.1609 24.4328 18.1141 24.5933L16.3533 30.6324C16.3297 30.7132 16.3222 30.7988 16.331 30.8845C16.3398 30.9701 16.3648 31.0539 16.4047 31.1311C16.4445 31.2084 16.4983 31.2774 16.563 31.3343C16.6276 31.3912 16.7019 31.4347 16.7814 31.4625L19.83 32.5256ZM24.8693 25.8797C24.9919 25.4723 25.2661 25.1394 25.6333 24.9523L28.361 23.5251C28.5098 23.4441 28.6204 23.3056 28.6702 23.1378C28.7201 22.9701 28.7055 22.7855 28.6295 22.6215L27.2098 19.9083C26.7754 19.0782 27.0187 18.0906 27.797 17.6833L37.9474 12.3722C38.1324 12.2759 38.3359 12.2195 38.5462 12.2062C38.7564 12.1929 38.9693 12.2229 39.1727 12.2947C39.3761 12.3664 39.566 12.4784 39.7315 12.6241C39.8969 12.7699 40.0347 12.9467 40.1369 13.1443L54.3333 40.2757C54.8324 41.2265 54.957 42.3242 54.6797 43.3274C54.4025 44.3307 53.7461 45.1573 52.8549 45.6255L36.2239 54.3275C35.33 54.7942 34.2752 54.8638 33.2906 54.5213C32.3059 54.1787 31.4718 53.4518 30.971 52.4999L22.3847 36.0902C22.2801 35.888 22.2146 35.6681 22.1922 35.4437C22.1698 35.2192 22.1909 34.9948 22.2542 34.7836L24.8693 25.8797ZM22.0404 30.9898L21.0437 30.6034L21.8163 27.954L22.8165 28.3418L22.0404 30.9898ZM19.1352 25.6301L20.9827 26.2747L19.5776 31.0931L17.7302 30.4489L19.1352 25.6301Z" fill="#C4C4C4"/>
<path d="M33.8751 49.3192C33.8299 49.4817 33.8499 49.6597 33.9305 49.8139C34.0112 49.9681 34.1461 50.086 34.3054 50.1415C34.4647 50.1971 34.6354 50.1858 34.78 50.1101C34.9245 50.0345 35.0311 49.9007 35.0763 49.7381L36.3478 45.1632L45.2431 40.5088L49.7673 42.0545C49.8465 42.0822 49.9294 42.0937 50.0112 42.0882C50.0931 42.0828 50.1722 42.0605 50.244 42.0226C50.3159 41.9848 50.379 41.9322 50.4298 41.8678C50.4806 41.8034 50.5181 41.7285 50.5401 41.6475C50.562 41.5664 50.5681 41.4808 50.5578 41.3955C50.5476 41.3103 50.5213 41.2271 50.4804 41.1507C50.4395 41.0744 50.3849 41.0064 50.3196 40.9507C50.2544 40.895 50.1798 40.8527 50.1003 40.8262L45.5806 39.282L40.6181 29.798L41.9069 25.1613C41.952 24.9987 41.9321 24.8208 41.8514 24.6666C41.7707 24.5123 41.6359 24.3945 41.4766 24.3389C41.3173 24.2834 41.1466 24.2947 41.002 24.3703C40.8574 24.446 40.7508 24.5798 40.7056 24.7423L39.4169 29.379L30.5257 34.0313L26.0223 32.4286C25.9433 32.3998 25.8605 32.3872 25.7786 32.3916C25.6966 32.396 25.6172 32.4172 25.5448 32.4541C25.4725 32.4909 25.4087 32.5427 25.357 32.6064C25.3054 32.67 25.267 32.7444 25.244 32.8251C25.221 32.9058 25.2139 32.9912 25.2231 33.0766C25.2323 33.1619 25.2577 33.2454 25.2976 33.3222C25.3376 33.399 25.3914 33.4677 25.456 33.5242C25.5206 33.5807 25.5947 33.624 25.674 33.6515L30.1818 35.2559L35.1465 44.7443L33.8751 49.3192ZM31.4514 35.0283L39.7061 30.709L44.3133 39.514L36.0586 43.8332L31.4514 35.0283Z" fill="#C4C4C4"/>
<path d="M38.4037 33.7184L34.6657 35.6742C34.5212 35.7499 34.4146 35.8837 34.3694 36.0462C34.3242 36.2088 34.3442 36.3867 34.4249 36.5409L36.5111 40.5281C36.5918 40.6823 36.7266 40.8002 36.8859 40.8557C37.0452 40.9113 37.2159 40.9 37.3605 40.8243L41.0985 38.8685C41.243 38.7928 41.3496 38.659 41.3948 38.4965C41.44 38.3339 41.42 38.156 41.3393 38.0018L39.2531 34.0146C39.1724 33.8604 39.0376 33.7425 38.8783 33.687C38.719 33.6314 38.5483 33.6427 38.4037 33.7184ZM39.9448 37.9908L37.2971 39.3762L35.8193 36.5519L38.4671 35.1665L39.9448 37.9908Z" fill="#C4C4C4"/>
</g>
<defs>
<clipPath id="clip0">
<rect x="4.25879" y="23.4395" width="45" height="48" transform="rotate(-27.6206 4.25879 23.4395)" fill="white"/>
</clipPath>
</defs>
</svg>
