<svg width="71" height="71" viewBox="0 0 71 71" fill="none" xmlns="http://www.w3.org/2000/svg">
<circle cx="35.5" cy="35.5" r="34.5" stroke="#C4C4C4" stroke-width="2"/>
<path d="M42.304 17.9478L39.8539 15.0758C38.9933 13.266 37.1127 12.0831 34.5422 11.7407C32.052 11.4091 29.1738 11.9021 26.4376 13.1291C23.7015 14.356 21.4189 16.1773 20.0102 18.2574C18.556 20.4046 18.1884 22.5957 18.9673 24.4421L19.4823 28.1819C19.4918 28.2504 19.5112 28.318 19.5398 28.3819L31.398 54.8257C31.4084 54.8487 31.4198 54.871 31.4321 54.8924C32.3837 56.8206 34.4197 58.0809 37.1911 58.4502C39.9207 58.8138 43.0768 58.2728 46.078 56.927C49.0792 55.5812 51.5824 53.5842 53.1265 51.3043C54.6943 48.9891 55.1073 46.6306 54.3005 44.6374C54.2927 44.6141 54.2837 44.5907 54.2733 44.5677L42.4151 18.1238C42.3864 18.0599 42.3489 18.0005 42.304 17.9478ZM20.9767 19.0787C22.2769 17.1589 24.4056 15.4682 26.9707 14.3179C29.5359 13.1676 32.2142 12.7027 34.5125 13.0088C36.682 13.2978 38.2255 14.2344 38.8585 15.6461C39.0689 16.1153 39.1726 16.6249 39.173 17.1624C39.1152 16.9621 39.0438 16.7654 38.9575 16.573C38.2168 14.9214 36.5404 13.8428 34.2368 13.5359C32.062 13.2462 29.5498 13.6762 27.1629 14.7465C24.7759 15.8169 22.7839 17.4068 21.5536 19.2234C20.2506 21.1475 19.9409 23.1169 20.6815 24.7685C20.7678 24.9609 20.8673 25.1451 20.9784 25.3216C20.5772 24.9637 20.2656 24.5473 20.0552 24.0781C19.4223 22.6664 19.7495 20.8908 20.9767 19.0787ZM31.5539 25.5737C27.2824 27.3417 22.8424 26.7915 21.7253 24.3005C20.5742 21.7336 23.3085 17.9028 27.696 15.9353C32.0835 13.9679 36.7626 14.4742 37.9137 17.0411C39.0308 19.5322 36.4884 23.2135 32.3269 25.227C32.1998 25.2878 32.0723 25.3482 31.9429 25.4062C31.8135 25.4642 31.6838 25.5193 31.5539 25.5737ZM52.1598 50.4829C50.7243 52.6027 48.3751 54.469 45.5449 55.7382C42.7147 57.0073 39.7584 57.5202 37.2207 57.1821C35.3228 56.9292 33.8557 56.227 32.9728 55.17C34.0323 55.7408 35.3192 56.1018 36.7713 56.2213C39.3515 56.4336 42.2914 55.8695 45.0491 54.6328C48.1746 53.2313 50.7367 51.1449 52.2634 48.7581C52.4399 48.4823 52.3629 48.0804 52.0916 47.8603C51.8203 47.6402 51.4575 47.6856 51.2809 47.9611C49.8847 50.1438 47.4189 52.1422 44.5161 53.4439C41.9126 54.6114 39.1531 55.1453 36.7459 54.9472C34.4546 54.7587 32.6784 53.9313 31.7446 52.6173C31.7001 52.5547 31.6478 52.5026 31.5911 52.4605L21.4726 29.8964C22.5724 30.5397 23.9385 30.9446 25.4938 31.0725C28.0742 31.2849 31.014 30.7207 33.7717 29.484C36.897 28.0825 39.459 25.9963 40.9858 23.6097C41.1622 23.3339 41.0852 22.932 40.8139 22.7119C40.5427 22.4918 40.1799 22.5372 40.0032 22.8126C38.6071 24.9952 36.1415 26.9935 33.2387 28.2952C30.6352 29.4627 27.8757 29.9965 25.4685 29.7985C23.2596 29.6168 21.5297 28.8411 20.5715 27.6082L20.4018 26.3761C21.3927 27.2126 22.7438 27.7664 24.3717 27.9832C26.8618 28.3149 29.7401 27.8219 32.4762 26.5949C35.2124 25.3679 37.495 23.5467 38.9037 21.4666C39.8245 20.1069 40.3096 18.7295 40.3441 17.4333L41.1496 18.3775C41.2604 18.9771 41.2428 19.6219 41.0935 20.298C41.0196 20.6321 41.2153 20.9949 41.5304 21.1082C41.6708 21.1587 41.8113 21.1511 41.9303 21.0977C42.0785 21.0313 42.1937 20.8938 42.2346 20.7086C42.2443 20.6647 42.2531 20.6211 42.2618 20.5775L52.379 43.1387C52.3728 43.2092 52.3768 43.283 52.394 43.3581C52.542 44.0044 52.5342 44.7072 52.3709 45.4467C52.2971 45.7808 52.4928 46.1436 52.8079 46.2569C52.9483 46.3074 53.0887 46.2998 53.2078 46.2464C53.328 46.1926 53.4256 46.0913 53.4804 45.9564C53.6884 47.3226 53.2376 48.8913 52.1598 50.4829ZM32.4871 22.4996L36.1946 20.0554C36.9506 19.5569 37.2034 18.4736 36.7827 17.5354C36.3619 16.5971 35.3849 16.0654 34.5099 16.2983L30.2187 17.441C30.1047 17.4713 29.993 17.511 29.8865 17.5587C28.6514 18.1126 28.1607 19.7095 28.7925 21.1185C29.4244 22.5275 30.9432 23.2231 32.1783 22.6693C32.2847 22.6216 32.3886 22.5644 32.4871 22.4996ZM29.8362 20.6504C29.4983 19.8968 29.76 19.0432 30.4195 18.7475C30.4767 18.7218 30.5371 18.7005 30.5988 18.684L34.8899 17.5414C35.2167 17.4543 35.5817 17.6531 35.7389 18.0035C35.896 18.354 35.8016 18.7586 35.5192 18.9447L31.8117 21.3889C31.7584 21.4241 31.7023 21.4549 31.6451 21.4806C30.9856 21.7762 30.174 21.4038 29.8362 20.6504ZM31.6753 20.4562L31.2044 19.4062C31.0572 19.0779 31.1715 18.7071 31.4598 18.5778C31.748 18.4485 32.1009 18.6099 32.2482 18.9382L32.719 19.9881C32.8662 20.3164 32.7519 20.6872 32.4637 20.8165C32.1754 20.9458 31.8225 20.7845 31.6753 20.4562Z" fill="#C4C4C4"/>
</svg>
