<svg width="71" height="71" viewBox="0 0 71 71" fill="none" xmlns="http://www.w3.org/2000/svg">
<g clip-path="url(#clip0)">
<rect x="15" y="9" width="39" height="49" fill="white"/>
<path d="M44.5832 24.8718C44.5832 25.3074 44.3021 25.6606 43.9554 25.6606C43.6087 25.6606 43.3276 25.3074 43.3276 24.8718C43.3276 24.4362 43.6087 24.083 43.9554 24.083C44.3021 24.083 44.5832 24.4362 44.5832 24.8718Z" fill="#C4C4C4"/>
<path d="M50.2333 54.0562C50.2333 51.0117 48.262 48.5348 45.8388 48.5348H45.7698C45.1187 47.7349 44.2711 47.1907 43.3276 47.0204V44.487L46.118 46.8248L46.8145 45.5122L43.3276 42.5913V40.5439L46.118 42.8817L46.8145 41.5691L43.3276 38.6474V36.6L46.118 38.9378L46.8145 37.6253L43.3276 34.7036V32.6562L46.118 34.994L46.8145 33.6814L43.3276 30.7597V28.8155H45.6907C47.1572 28.8155 48.3499 27.317 48.3499 25.4744C48.3499 24.9584 48.2525 24.4419 48.0691 23.9797L45.0785 16.464C44.6252 15.3252 43.7135 14.6177 42.6998 14.6177C41.9359 14.6177 41.2302 15.0205 40.7348 15.7061L41.5711 10.8017L31.5361 9L29.5016 20.9278H25.7493C24.711 20.9278 23.8659 21.9893 23.8659 23.2942V25.6605H25.1215V27.5392L24.3456 28.0268C23.2752 28.6988 22.6103 30.0507 22.6103 31.5543V44.0941C22.5582 44.2555 22.4996 44.4119 22.4588 44.5813L21.3912 49.0521C19.8894 49.9317 18.8435 51.8413 18.8435 54.0562V56.4225H17.5879V58.0001H51.4889V56.4225H50.2333V54.0562ZM45.8388 52.4787V53.1877C44.4081 52.8218 43.3276 51.2277 43.3276 49.3236V48.6145C44.7582 48.9804 45.8388 50.5738 45.8388 52.4787V52.4787ZM42.072 49.3236C42.072 51.2285 40.9914 52.8218 39.5608 53.1877V52.4787C39.5608 50.5738 40.6413 48.9804 42.072 48.6145V49.3236ZM42.072 30.7597L40.4439 32.1235C40.1138 31.8871 39.7879 31.6186 39.4501 31.3236C39.0718 30.9931 38.6706 30.6477 38.2368 30.3511L38.5569 28.4732C38.9072 28.6854 39.2947 28.8155 39.7088 28.8155H42.072V30.7597ZM41.4442 17.17C41.583 16.8215 41.8077 16.5626 42.072 16.3955V19.3503H43.3276V16.3955C43.5918 16.5626 43.8165 16.8215 43.9554 17.17L46.9463 24.6857C47.0435 24.9291 47.0943 25.2021 47.0943 25.4744C47.0943 26.4469 46.4647 27.238 45.6907 27.238H39.7088C38.9348 27.238 38.3052 26.4469 38.3052 25.4744C38.3052 25.2021 38.3567 24.9291 38.4532 24.6857L41.4442 17.17ZM32.518 10.7701L40.0617 12.1235L38.5713 20.8624L37.3307 23.9805C37.1468 24.4419 37.0496 24.9584 37.0496 25.4744C37.0496 26.1392 37.209 26.7562 37.4772 27.2773L37.0545 29.7534C36.7565 29.6602 36.4433 29.6043 36.1091 29.6043C35.5574 29.6043 34.9516 29.9032 34.5773 30.125C34.0927 29.7753 33.5627 29.6043 32.9677 29.6043C32.724 29.6043 32.4944 29.6413 32.2709 29.6925C31.9656 28.9796 31.5036 28.3927 30.9203 28.0268L30.1438 27.5392V25.6605H31.3994V23.2942C31.3994 22.5528 31.1208 21.898 30.695 21.4632L32.518 10.7701ZM25.1215 23.2942C25.1215 22.8593 25.4032 22.5054 25.7493 22.5054H29.516C29.8618 22.5054 30.1438 22.8593 30.1438 23.2942V24.0829H25.1215V23.2942ZM24.9069 29.4379L26.377 28.5144V25.6605H28.8882V28.5144L30.3584 29.4379C30.6435 29.617 30.8783 29.8859 31.0567 30.2078C30.5374 30.5302 30.0672 30.9381 29.6264 31.3228C29.3609 31.5551 29.1034 31.7704 28.8462 31.9706H23.8659V31.5543C23.8659 30.6519 24.2644 29.8408 24.9069 29.4379ZM25.9145 36.3616L25.1797 40.976C24.6963 41.1929 24.2558 41.5171 23.8659 41.9242V33.5482H27.0487C26.4868 34.3165 26.0852 35.2882 25.9145 36.3616V36.3616ZM20.0991 54.0562C20.0991 51.8817 21.5073 50.1124 23.2381 50.1124H29.516V48.5348H23.2381C23.0967 48.5348 22.9582 48.5448 22.8199 48.5614L23.6617 45.035C24.063 43.3543 25.2714 42.2246 26.6683 42.2246H33.2828V40.6471H26.6683C26.6143 40.6471 26.5634 40.6606 26.5095 40.6629L27.1192 36.8319C27.4205 36.9509 27.6501 37.14 27.9113 37.3588C28.4024 37.7705 29.0118 38.2808 30.1438 38.2808V36.7033C29.3922 36.7033 29.0464 36.4136 28.609 36.047C28.3227 35.8063 27.991 35.5351 27.5416 35.3479C27.8579 34.6585 28.3175 34.1012 28.8708 33.7642C29.4005 33.4415 29.8802 33.0228 30.3434 32.6173C31.1885 31.879 31.9871 31.1819 32.9677 31.1819C33.4361 31.1819 33.8045 31.3317 34.1629 31.6683L34.4946 31.9783L34.8523 31.7199C35.1411 31.5123 35.7376 31.1819 36.1091 31.1819C37.0898 31.1819 37.8883 31.879 38.7334 32.6181C38.914 32.7767 39.1013 32.9346 39.2895 33.0906L38.5844 33.6807L39.2809 34.9932L42.072 32.6554V34.7028L38.5844 37.6237L39.2809 38.9363L42.072 36.5993V38.6467L38.5844 41.5676L39.2809 42.8802L42.072 40.5431V42.5905L38.5844 45.5114L39.2809 46.824L42.072 44.487V47.0204C39.9455 47.4052 38.3052 49.7029 38.3052 52.4787V54.845H38.933C40.5325 54.845 41.9307 53.762 42.6998 52.1528C43.4689 53.762 44.867 54.845 46.4665 54.845H47.0943V52.4787C47.0943 51.7034 46.965 50.9658 46.7345 50.2961C48.0272 50.7844 48.9777 52.2749 48.9777 54.0562V56.4225H20.0991V54.0562Z" fill="#C4C4C4"/>
<path d="M28.8882 51.6899V53.2675C29.6395 53.2675 29.9856 53.5567 30.423 53.9238C30.9135 54.3347 31.5229 54.845 32.655 54.845V53.2675C31.9033 53.2675 31.5575 52.9779 31.1201 52.6112C30.6296 52.2003 30.0199 51.6899 28.8882 51.6899Z" fill="#C4C4C4"/>
<path d="M32.027 47.7461V46.1686C31.2754 46.1686 30.9296 45.879 30.4922 45.5123C30.0017 45.1014 29.392 44.5911 28.2603 44.5911V46.1686C29.0116 46.1686 29.3577 46.4578 29.7951 46.8249C30.2856 47.2358 30.895 47.7461 32.027 47.7461Z" fill="#C4C4C4"/>
<path d="M32.6548 49.3237V50.9013C33.4061 50.9013 33.7522 51.1905 34.1896 51.5575C34.6801 51.9685 35.2895 52.4788 36.4216 52.4788V50.9013C35.6699 50.9013 35.3241 50.6116 34.8867 50.245C34.3962 49.834 33.7865 49.3237 32.6548 49.3237V49.3237Z" fill="#C4C4C4"/>
<path d="M33.2827 43.8021V45.3797C34.4145 45.3797 35.0242 44.8694 35.5146 44.4584C35.9521 44.0914 36.2979 43.8021 37.0495 43.8021V42.2246C35.9174 42.2246 35.308 42.7349 34.8176 43.1459C34.3801 43.5125 34.034 43.8021 33.2827 43.8021V43.8021Z" fill="#C4C4C4"/>
<path d="M36.4216 35.1259V33.5483C35.2895 33.5483 34.6801 34.0586 34.1896 34.4696C33.7522 34.8362 33.4061 35.1259 32.6548 35.1259V36.7034C33.7865 36.7034 34.3962 36.1931 34.8867 35.7821C35.3241 35.4151 35.6699 35.1259 36.4216 35.1259Z" fill="#C4C4C4"/>
<path d="M33.2827 13.8289H34.5383V15.4064H33.2827V13.8289Z" fill="#C4C4C4"/>
<path d="M34.5386 18.5615H35.7942V20.1391H34.5386V18.5615Z" fill="#C4C4C4"/>
<path d="M35.166 24.083H36.4216V25.6606H35.166V24.083Z" fill="#C4C4C4"/>
<path d="M32.6548 21.7168H33.9104V23.2943H32.6548V21.7168Z" fill="#C4C4C4"/>
<path d="M37.0498 13.0403H38.3054V14.6178H37.0498V13.0403Z" fill="#C4C4C4"/>
<path d="M32.6548 26.4492H33.9104V28.0268H32.6548V26.4492Z" fill="#C4C4C4"/>
<path d="M15.0767 56.4226H16.3323V58.0002H15.0767V56.4226Z" fill="#C4C4C4"/>
<path d="M52.7446 56.4226H54.0002V58.0002H52.7446V56.4226Z" fill="#C4C4C4"/>
</g>
<circle cx="35.5" cy="35.5" r="34.5" stroke="#C4C4C4" stroke-width="2"/>
<defs>
<clipPath id="clip0">
<rect x="15" y="9" width="39" height="49" fill="white"/>
</clipPath>
</defs>
</svg>
