<svg width="71" height="71" viewBox="0 0 71 71" fill="none" xmlns="http://www.w3.org/2000/svg">
<circle cx="35.5" cy="35.5" r="34.5" stroke="#C4C4C4" stroke-width="2"/>
<path d="M40.2525 35.0885C43.0906 33.5753 45.4928 31.2988 47.0129 28.6797L45.4404 28.1159C44.1091 30.4076 42.0087 32.3995 39.5249 33.7238L38.6998 34.1647L37.9718 32.7993L38.7973 32.3592C41.6354 30.8459 44.0376 28.5695 45.5577 25.9503L43.9852 25.3865C42.6539 27.6782 40.5535 29.6702 38.0697 30.9945L37.2445 31.4353L36.5849 30.1982C37.6846 28.7014 37.9798 26.8491 37.1741 25.3378L38.1729 24.8053C40.354 23.6424 41.3453 21.2306 40.3845 19.4285C40.32 19.3076 40.2472 19.1915 40.1677 19.0803C37.5018 15.3726 33.017 13.004 27.8628 12.5832L26.5004 12.4718C24.9854 12.3489 23.2751 13.2608 22.5321 14.5876L21.8661 15.7805C19.3443 20.2948 18.8113 25.338 20.403 29.6176C20.4511 29.7456 20.5077 29.8711 20.5721 29.9921C21.533 31.7942 24.088 32.3151 26.269 31.1522L27.2679 30.6196C28.0737 32.1309 29.7761 32.918 31.6319 32.8391L32.2911 34.0755L31.4656 34.5157C28.9814 35.8402 26.1569 36.4741 23.5122 36.3023L23.1039 37.9222C26.1258 38.1197 29.3543 37.394 32.1932 35.8803L33.0187 35.4402L33.7463 36.8049L32.9208 37.245C30.4366 38.5695 27.6121 39.2035 24.9674 39.0317L24.5592 40.6515C27.581 40.849 30.8095 40.1234 33.6484 38.6097L34.4739 38.1695L35.2016 39.5342L34.376 39.9744C31.8918 41.2989 29.0674 41.9328 26.4226 41.761L26.0144 43.3809C29.0362 43.5784 32.2648 42.8527 35.1037 41.339L35.9292 40.8989L36.6568 42.2636L35.8313 42.7037C33.3471 44.0282 30.5226 44.6622 27.8779 44.4904L27.4696 46.1102C30.4915 46.3077 33.72 45.5821 36.5589 44.0684L37.3844 43.6282L38.112 44.9929L37.2865 45.4331C34.8023 46.7576 31.9779 47.3915 29.3331 47.2197L28.9249 48.8396C31.9467 49.0371 35.1752 48.3114 38.0141 46.7977L38.8397 46.3576L38.9018 46.4742C39.0091 46.6754 39.1319 46.8659 39.2644 47.0494C34.7982 49.8539 32.8597 55.0264 34.9502 58.9471L36.0416 60.9941L39.3437 59.2335C42.6135 57.4902 44.593 54.4005 44.7106 51.4034C47.2642 52.9763 50.9331 53.0543 54.203 51.3109L57.505 49.5503L56.4136 47.5033C54.3231 43.5825 48.9476 42.3097 44.13 44.4551C44.0523 44.2433 43.9626 44.0352 43.8549 43.8333L43.7927 43.7167L44.6182 43.2766C47.4564 41.7633 49.8585 39.4869 51.3786 36.8677L49.8061 36.3039C48.4748 38.5956 46.3744 40.5876 43.8906 41.9119L43.0655 42.3527L42.3375 40.9874L43.163 40.5472C46.0011 39.034 48.4033 36.7575 49.9234 34.1384L48.3509 33.5746C47.0196 35.8663 44.9192 37.8582 42.4354 39.1825L41.6102 39.6234L40.8823 38.258L41.7078 37.8179C44.5459 36.3046 46.948 34.0282 48.4681 31.409L46.8956 30.8452C45.5644 33.1369 43.464 35.1289 40.9802 36.4532L40.155 36.894L39.427 35.5287L40.2525 35.0885ZM37.2445 35.4121C37.0728 35.7086 36.8225 36.041 36.5867 36.1668C36.3497 36.2931 35.9342 36.3149 35.5935 36.2924L34.9632 35.1103C35.2635 35.0512 35.57 34.9562 35.8591 34.8021C36.1477 34.6482 36.3978 34.4464 36.6146 34.2307L37.2445 35.4121ZM42.5673 47.3837C41.8469 47.0849 41.2592 46.6148 40.8299 46.0183C41.1155 45.958 41.4059 45.8656 41.68 45.7195C41.9541 45.5734 42.1922 45.3839 42.4015 45.1803C42.6575 45.8692 42.7203 46.6192 42.5673 47.3837ZM41.6102 43.6002C41.4385 43.8966 41.1882 44.2291 40.9524 44.3548C40.7154 44.4812 40.2999 44.5029 39.9592 44.4804L39.3289 43.2984C39.6292 43.2392 39.9358 43.1442 40.2248 42.9901C40.5134 42.8363 40.7635 42.6344 40.9803 42.4187L41.6102 43.6002ZM40.155 40.8708C39.9833 41.1673 39.733 41.4997 39.4971 41.6255C39.2601 41.7518 38.8446 41.7736 38.5039 41.7511L37.8737 40.569C38.174 40.5099 38.4805 40.4149 38.7695 40.2608C39.0581 40.1069 39.3082 39.9051 39.5251 39.6894L40.155 40.8708ZM38.6997 38.1415C38.5281 38.4379 38.2777 38.7704 38.0419 38.8961C37.8049 39.0225 37.3894 39.0442 37.0487 39.0217L36.4184 37.8397C36.7187 37.7805 37.0253 37.6855 37.3143 37.5314C37.6029 37.3776 37.853 37.1757 38.0698 36.96L38.6997 38.1415ZM30.5699 28.859L29.8423 27.4943L25.5414 29.7875C24.2717 30.4645 22.7831 30.1619 22.2232 29.1118C22.186 29.0421 22.1534 28.9693 22.126 28.8936C20.6783 25.0036 21.1624 20.42 23.4552 16.317L24.1219 15.1237C24.4838 14.4742 25.321 14.0278 26.062 14.0893L27.4243 14.2007C32.1097 14.5831 36.1849 16.7358 38.6084 20.1063C38.6536 20.1717 38.6963 20.2392 38.7334 20.3088C39.2934 21.359 38.715 22.7636 37.4453 23.4406L31.4933 26.614L32.221 27.9787L35.523 26.2181C36.3256 27.7234 35.4973 29.7371 33.6762 30.7081C31.8551 31.6791 29.7215 31.2446 28.9189 29.7393L30.5699 28.859ZM34.4038 32.0727C34.6852 31.9227 34.9473 31.7522 35.1965 31.571L35.7893 32.6828C35.6176 32.9792 35.3672 33.3117 35.1314 33.4374C34.8944 33.5638 34.4789 33.5855 34.1382 33.5631L33.5451 32.4506C33.8344 32.3456 34.1221 32.223 34.4038 32.0727ZM38.6161 57.8689L36.9651 58.7492L36.6012 58.0668C34.8524 54.7867 36.5536 50.4373 40.3852 48.1826C40.9705 48.6181 41.6594 48.9422 42.426 49.1449C43.8109 52.124 42.1556 55.9817 38.6161 57.8689ZM54.7626 48.3836L55.1264 49.0659L53.4753 49.9462C49.9355 51.8336 45.8102 51.058 44.108 48.249C44.3669 47.4986 44.4813 46.7461 44.4463 46.0182C48.4542 44.0922 53.0137 45.1035 54.7626 48.3836Z" fill="#C4C4C4"/>
<path d="M29.7081 23.9175L27.7986 23.2453L28.3046 21.2852L26.7987 20.755L26.2927 22.7151L24.3832 22.0429L23.9841 23.5888L25.8936 24.261L25.3876 26.2211L26.8936 26.7512L27.3996 24.7911L29.3091 25.4633L29.7081 23.9175Z" fill="#C4C4C4"/>
</svg>
