<svg width="71" height="71" viewBox="0 0 71 71" fill="none" xmlns="http://www.w3.org/2000/svg">
<circle cx="35.5" cy="35.5" r="34.5" stroke="#C4C4C4" stroke-width="2"/>
<path d="M38.8481 22.6194L30.3824 18.9097C30.4876 18.6668 30.4873 18.3955 30.3557 18.1675L28.1731 14.3872C27.9358 13.9761 27.3628 13.8623 26.8937 14.1332L20.4264 17.867C19.9572 18.138 19.7693 18.691 20.0066 19.1021L22.1892 22.8824C22.3208 23.1104 22.5557 23.2464 22.8188 23.2767L21.7986 32.4629C21.7797 32.6343 21.8135 32.8014 21.8961 32.9445L25.1583 38.5948L30.1895 47.3089L35.2529 56.0791C36.2163 57.7476 38.5489 58.2109 40.4529 57.1116C41.4906 56.5125 42.1902 55.5709 42.456 54.5682C43.4573 54.8393 44.6226 54.7042 45.6603 54.1051C46.6979 53.506 47.3976 52.5644 47.6634 51.5617C48.6646 51.8328 49.8299 51.6977 50.8676 51.0986C52.7715 49.9994 53.5368 47.7476 52.5734 46.0791L47.51 37.3089L42.4788 28.5948L39.2166 22.9445C39.1337 22.8014 39.0059 22.6886 38.8481 22.6194ZM22.1356 18.8656L26.9036 16.1128L28.2265 18.4042L28.1957 18.4219L23.4897 21.139L23.4585 21.1569L22.1356 18.8656V18.8656ZM24.8125 22.3605L28.5922 20.1783L37.6436 24.1447L40.3495 28.8315L26.4278 36.8692L23.7218 32.1824L24.8125 22.3605ZM45.3805 37.5455L31.4588 45.5832L27.2874 38.3581L41.2091 30.3204L45.3805 37.5455ZM50.0076 49.6097C49.0404 50.1681 47.8554 49.9328 47.3661 49.0853C47.1287 48.6741 46.5559 48.5604 46.0867 48.8314C45.6175 49.1022 45.4295 49.6552 45.6669 50.0664C46.1562 50.9139 45.7674 52.0578 44.8002 52.6161C43.8331 53.1745 42.6481 52.9393 42.1588 52.0918C41.9213 51.6806 41.3484 51.567 40.8793 51.8378C40.41 52.1088 40.2221 52.6617 40.4595 53.0729C40.9488 53.9204 40.56 55.0642 39.5929 55.6226C38.6258 56.1809 37.4411 55.9455 36.9518 55.0981L32.3182 47.0724L46.2399 39.0347L50.8735 47.0603C51.3631 47.9077 50.9746 49.0514 50.0076 49.6097Z" fill="#C4C4C4"/>
</svg>
