<svg width="37" height="37" viewBox="0 0 37 37" fill="none" xmlns="http://www.w3.org/2000/svg">
<path d="M35.0864 24.8793C35.0864 24.5265 34.8012 24.2413 34.4484 24.2413H33.8105V23.6034C33.8105 23.2506 33.5254 22.9655 33.1726 22.9655C32.8198 22.9655 32.5347 23.2506 32.5347 23.6034V24.2413H31.8967C31.5439 24.2413 31.2588 24.5265 31.2588 24.8793C31.2588 25.232 31.5439 25.5172 31.8967 25.5172H32.5347V26.1551C32.5347 26.5079 32.8198 26.793 33.1726 26.793C33.5254 26.793 33.8105 26.5079 33.8105 26.1551V25.5172H34.4484C34.8012 25.5172 35.0864 25.232 35.0864 24.8793Z" fill="#4DD599"/>
<path d="M2.55198 15.3103C2.1992 15.3103 1.91405 15.5955 1.91405 15.9482V16.5862H1.27611C0.923339 16.5862 0.638184 16.8713 0.638184 17.2241C0.638184 17.5769 0.923339 17.862 1.27611 17.862H1.91405V18.5C1.91405 18.8527 2.1992 19.1379 2.55198 19.1379C2.90475 19.1379 3.18991 18.8527 3.18991 18.5V17.862H3.82784C4.18061 17.862 4.46577 17.5769 4.46577 17.2241C4.46577 16.8713 4.18061 16.5862 3.82784 16.5862H3.18991V15.9482C3.18991 15.5955 2.90475 15.3103 2.55198 15.3103Z" fill="#4DD599"/>
<path d="M22.9656 10.8448H29.3449C30.0498 10.8448 30.6208 10.2738 30.6208 9.56892C30.6208 8.864 30.0498 8.29306 29.3449 8.29306H25.5173V5.74133H10.207V8.29306H6.37938C5.67446 8.29306 5.10352 8.864 5.10352 9.56892C5.10352 10.2738 5.67446 10.8448 6.37938 10.8448H12.7587V13.3965H15.3104V10.8448H20.4139V13.3965H22.9656V10.8448Z" fill="#4DD599"/>
<path d="M29.3446 5.10345H26.155V3.18966C26.155 2.83688 25.8698 2.55172 25.5171 2.55172H21.0515V1.91379C21.0515 0.858655 20.1929 0 19.1377 0H16.586C15.5309 0 14.6722 0.858655 14.6722 1.91379V2.55172H10.2067C9.85394 2.55172 9.56878 2.83688 9.56878 3.18966V5.10345H6.37913C5.32399 5.10345 4.46533 5.9621 4.46533 7.01724C4.46533 8.07238 5.32399 8.93103 6.37913 8.93103H7.07256L9.36018 34.0993C9.51073 35.7528 10.8765 37 12.5371 37H25.5171C27.2758 37 28.7067 35.5691 28.7067 33.8103C28.7067 32.4726 27.8742 31.3026 26.6602 30.8382L28.6518 8.93103H29.3446C30.3998 8.93103 31.2584 8.07238 31.2584 7.01724C31.2584 5.9621 30.3998 5.10345 29.3446 5.10345ZM15.9481 1.91379C15.9481 1.56166 16.2339 1.27586 16.586 1.27586H19.1377C19.4899 1.27586 19.7757 1.56166 19.7757 1.91379V2.55172H15.9481V1.91379ZM10.8446 3.82759H15.3102H20.4136H24.8791V5.10345H10.8446V3.82759ZM26.8012 32.4005C26.8478 32.4426 26.8912 32.4873 26.9333 32.5338C26.9703 32.5747 27.0053 32.6174 27.0385 32.6614C27.0736 32.708 27.1074 32.7546 27.1387 32.8043C27.1712 32.8566 27.1993 32.9109 27.2267 32.9664C27.2503 33.0142 27.2752 33.0614 27.295 33.1112C27.3218 33.1788 27.3409 33.249 27.36 33.3198C27.3715 33.3632 27.3868 33.404 27.3951 33.4486C27.4181 33.5667 27.4315 33.6872 27.4315 33.8103C27.4315 34.8674 26.5747 35.7241 25.5177 35.7241C25.3805 35.7241 25.2472 35.7082 25.1183 35.6808C25.0067 35.6572 24.8995 35.6233 24.7962 35.5806C24.7547 35.564 24.7171 35.541 24.6769 35.5213C24.6125 35.4894 24.5493 35.4575 24.4893 35.4192C24.446 35.3918 24.4071 35.3605 24.3662 35.3293C24.3152 35.2903 24.2648 35.2508 24.2182 35.2068C24.1793 35.1711 24.1436 35.1328 24.1079 35.0939C24.0651 35.0473 24.0256 34.9988 23.9873 34.9478C23.956 34.9057 23.9261 34.8642 23.8986 34.8195C23.8635 34.7634 23.8329 34.7047 23.8036 34.6448C23.7819 34.6001 23.7589 34.5567 23.7411 34.5102C23.713 34.44 23.6932 34.3666 23.6734 34.2933C23.6626 34.2524 23.6486 34.2135 23.6403 34.1721C23.6173 34.0547 23.6039 33.9341 23.6039 33.8097C23.6039 32.7527 24.4606 31.8953 25.5177 31.8953C25.7371 31.8953 25.9445 31.9399 26.1403 32.0075C26.1607 32.0146 26.1824 32.019 26.2028 32.0267C26.2775 32.0554 26.347 32.0918 26.4172 32.1288C26.4523 32.1473 26.488 32.1645 26.5212 32.1855C26.5798 32.2219 26.6347 32.2627 26.6889 32.3048C26.7272 32.3367 26.7648 32.3673 26.8012 32.4005ZM25.3978 30.6232C25.2861 30.6283 25.1707 30.6449 25.0539 30.6673C23.6415 30.8752 22.5386 32.0044 22.3657 33.4276C22.3421 33.5539 22.3274 33.6808 22.3274 33.8065C22.3274 33.8078 22.3274 33.8091 22.3274 33.8097C22.3274 34.0126 22.351 34.209 22.3874 34.4017C22.3988 34.4617 22.4167 34.5184 22.4314 34.5778C22.4639 34.7092 22.5022 34.8374 22.5507 34.9618C22.5749 35.025 22.6023 35.0856 22.6304 35.1462C22.6853 35.2635 22.7465 35.3758 22.8141 35.4849C22.8473 35.5385 22.8792 35.5927 22.9156 35.6438C22.9334 35.6693 22.9475 35.698 22.966 35.7235H12.5364C11.5393 35.7235 10.7202 34.9752 10.6303 33.9826L8.35288 8.9304H12.1205V10.8442C12.1205 11.197 12.4057 11.4821 12.7584 11.4821H15.3102C15.6629 11.4821 15.9481 11.197 15.9481 10.8442V8.9304H19.7757V10.8442C19.7757 11.197 20.0608 11.4821 20.4136 11.4821H22.9653C23.3181 11.4821 23.6033 11.197 23.6033 10.8442V8.9304H27.3702L25.3978 30.6232ZM13.3964 10.2069V8.93103H14.6722V10.2069H13.3964ZM21.0515 10.2069V8.93103H22.3274V10.2069H21.0515ZM29.3446 7.65517H28.0688H22.9653H20.4136H15.3102H12.7584H7.65499H6.37913C6.02699 7.65517 5.74119 7.36938 5.74119 7.01724C5.74119 6.6651 6.02699 6.37931 6.37913 6.37931H10.2067H25.5171H29.3446C29.6968 6.37931 29.9826 6.6651 29.9826 7.01724C29.9826 7.36938 29.6968 7.65517 29.3446 7.65517Z" fill="#808080"/>
</svg>
