<svg width="71" height="68" viewBox="0 0 71 68" fill="none" xmlns="http://www.w3.org/2000/svg">
<path d="M70 34C70 52.1852 54.595 67 35.5 67C16.4051 67 1 52.1852 1 34C1 15.8149 16.4051 1 35.5 1C54.595 1 70 15.8149 70 34Z" fill="white" stroke="#C4C4C4" stroke-width="2"/>
<path d="M52.7126 49.7689C51.7411 49.7689 50.6068 50.212 49.3114 51.0947L42.128 48.596L49.4181 46.0955C50.6427 46.8446 51.776 47.2194 52.8213 47.2194C53.9717 47.2194 54.7282 46.6574 55.0893 45.5368C55.1609 45.2988 55.1968 45.0416 55.1968 44.7697C55.1968 43.3445 54.2245 42.5775 52.2805 42.4769C53.0712 41.7289 53.4695 40.9958 53.4695 40.2819C53.4695 39.5361 53.0535 38.9045 52.2266 38.3943C51.7946 38.1922 51.3443 38.0891 50.8771 38.0891C49.2922 38.0891 48.212 39.2949 47.6361 41.7108L34.9996 46.1498L22.3633 41.8139C21.7874 39.3313 20.7057 38.0891 19.1226 38.0891C18.6548 38.0891 18.2044 38.1922 17.7721 38.3943C16.9813 38.9043 16.5847 39.5361 16.5847 40.2819C16.5847 40.9958 16.9813 41.7289 17.7721 42.4769C15.793 42.5775 14.8027 43.3445 14.8027 44.7699C14.8027 45.0416 14.8393 45.299 14.91 45.5368C15.307 46.6574 16.0629 47.2194 17.179 47.2194C18.2221 47.2194 19.356 46.8446 20.5813 46.0957L27.9252 48.596L20.6878 51.0426C19.428 50.1937 18.3137 49.7689 17.3416 49.7689C16.1882 49.7689 15.3784 50.3311 14.91 51.4515C14.839 51.6894 14.8027 51.9434 14.8027 52.2174C14.8027 53.6441 15.7928 54.411 17.7721 54.5115C16.9813 55.2597 16.5847 55.9928 16.5847 56.7067C16.5847 57.4521 16.9813 58.0812 17.7721 58.5943C18.2774 58.8664 18.7623 58.9999 19.2313 58.9999C20.7057 58.9999 21.7698 57.8099 22.4178 55.4306L34.9996 51.0947L47.5824 55.4306C48.2307 57.8101 49.3114 58.9999 50.8225 58.9999C51.2552 58.9999 51.7215 58.8664 52.2268 58.5943C53.0535 58.0812 53.4697 57.4521 53.4697 56.7067C53.4697 55.9928 53.0712 55.2597 52.2807 54.5115C54.2245 54.411 55.197 53.6441 55.197 52.2174C55.197 51.9434 55.1609 51.6896 55.0895 51.4515C54.657 50.3309 53.865 49.7689 52.7126 49.7689Z" fill="#C4C4C4"/>
<path d="M17.8811 32.8365C19.8606 34.9779 22.6506 36.544 26.2526 37.5274V38.2954C26.2526 39.2464 26.5937 40.046 27.2778 40.6909C27.9612 41.3379 28.8074 41.6949 29.8158 41.7627C30.8595 41.8315 31.6325 41.661 32.137 41.2529C32.9284 41.7957 33.8107 42.0678 34.7838 42.0678C35.6835 42.0678 36.5126 41.8142 37.2676 41.3042C37.7717 41.6768 38.5094 41.8317 39.4824 41.7629C40.4895 41.6612 41.3366 41.2955 42.0202 40.6668C42.7036 40.0347 43.0454 39.2466 43.0454 38.2956V37.7349C46.9331 36.7821 49.9398 35.1845 52.0646 32.9377C54.1167 30.7973 55.1424 28.2647 55.1424 25.3396C55.1424 24.6924 55.07 24.0128 54.9256 23.2978C54.2065 18.9489 52.0821 15.3594 48.5546 12.5381C44.8461 9.51365 40.3278 8 34.9997 8C29.6704 8 25.1522 9.4965 21.4454 12.4858C17.9166 15.3444 15.8111 18.9487 15.1272 23.2976C14.9826 24.0126 14.9102 24.6922 14.9102 25.3394C14.9102 28.1956 15.8998 30.6928 17.8811 32.8365ZM39.1855 19.7048C40.2476 18.5324 41.5345 17.9457 43.0458 17.9457C44.5946 17.9457 45.899 18.5324 46.9615 19.7048C48.0224 20.8755 48.5548 22.2955 48.5548 23.9604C48.5548 25.6268 48.0226 27.0472 46.9615 28.22C45.899 29.3948 44.5944 29.9792 43.0458 29.9792C41.5345 29.9792 40.2476 29.3948 39.1855 28.22C38.1224 27.0472 37.5914 25.6268 37.5914 23.9604C37.5912 22.2955 38.1224 20.8755 39.1855 19.7048ZM33.461 31.3961C33.9825 30.7589 34.4943 30.4389 34.9997 30.4389C35.5036 30.4389 35.9793 30.7917 36.4302 31.5003C36.88 32.2059 37.1069 32.877 37.1069 33.5174C37.1069 34.4928 36.4212 34.9781 35.0531 34.9781C34.1526 34.9781 33.487 34.7592 33.0555 34.3238C32.8031 34.0519 32.6783 33.7174 32.6783 33.3124C32.6785 32.6749 32.9388 32.0365 33.461 31.3961ZM22.5792 19.7048C23.6595 18.5324 24.9559 17.9457 26.4674 17.9457C27.9783 17.9457 29.275 18.5324 30.3558 19.7048C31.4363 20.8755 31.9773 22.2955 31.9773 23.9604C31.9773 25.6268 31.4365 27.0472 30.3558 28.22C29.2752 29.3948 27.9783 29.9792 26.4674 29.9792C24.9559 29.9792 23.6595 29.3948 22.5792 28.22C21.4996 27.0472 20.9586 25.6268 20.9586 23.9604C20.9586 22.2955 21.4996 20.8755 22.5792 19.7048Z" fill="#C4C4C4"/>
</svg>
