<svg width="57" height="42" viewBox="0 0 57 42" fill="none" xmlns="http://www.w3.org/2000/svg">
<path d="M14.1637 32.3091C14.5108 32.3091 14.8156 32.1121 14.8697 31.8367L16.6141 22.9521C16.6735 22.6485 16.4054 22.3646 16.0152 22.3182C15.6249 22.2718 15.2601 22.4803 15.2003 22.7842L13.456 31.6687C13.3965 31.9724 13.6646 32.2563 14.0549 32.3025C14.0913 32.3069 14.1279 32.3091 14.1637 32.3091Z" fill="#3B8686"/>
<path d="M8.23195 32.3092C8.26784 32.3092 8.30416 32.307 8.34091 32.3026C8.73113 32.2563 8.99923 31.9725 8.93975 31.6687L7.19543 22.7842C7.13566 22.4804 6.77147 22.2714 6.38054 22.3182C5.99032 22.3646 5.72222 22.6484 5.7817 22.9521L7.52588 31.8367C7.58007 32.112 7.88478 32.3092 8.23195 32.3092Z" fill="#3B8686"/>
<path d="M11.1993 32.3092C11.5941 32.3092 11.9143 32.0602 11.9143 31.7529V22.8682C11.9143 22.5609 11.5941 22.3119 11.1993 22.3119C10.8045 22.3119 10.4844 22.5609 10.4844 22.8682V31.7529C10.4844 32.0601 10.8045 32.3092 11.1993 32.3092Z" fill="#3B8686"/>
<path d="M0.0988145 17.2042L0.402523 18.4786C1.30435 22.2621 3.67826 32.2224 4.02629 33.8222L3.37841 40.8207C3.36411 40.9748 3.43289 41.1264 3.56815 41.2397C3.70342 41.3528 3.89288 41.4171 4.09149 41.4171H20.5711C20.7789 41.4171 20.9765 41.3466 21.1123 41.2241C21.248 41.1017 21.3086 40.9394 21.2783 40.7795C21.2703 40.7369 20.4935 36.4656 22.4405 33.9835C22.4405 33.9835 27.9503 26.9668 29.6299 24.7752C30.7908 23.2604 30.4177 22.2856 30.092 21.8394C29.644 21.2257 28.7917 20.8593 27.8121 20.8593C27.0476 20.8593 26.314 21.0936 25.7992 21.5022C24.598 22.4555 21.7928 24.8812 21.4072 25.1891C21.3348 22.8192 21.8264 11.6476 21.8406 11.3003C21.8672 10.6523 21.5926 10.0631 21.0678 9.64153C20.5861 9.25443 19.9158 9.03245 19.2293 9.03245C17.9816 9.03245 16.6288 9.7805 16.4188 11.4518C16.3155 12.2734 16.1543 13.4598 15.9834 14.6938C15.954 13.8429 15.9327 13.0255 15.9155 12.3651C15.8886 11.3377 15.8655 10.4503 15.8335 9.9474C15.7534 8.69209 14.4894 8.03528 13.2821 8.03528C11.9753 8.03528 10.639 8.78733 10.6126 10.2248C10.6126 10.2248 10.5546 13.1944 10.5238 14.2635C10.4529 13.4483 10.385 12.6776 10.3159 11.9796C10.1677 10.481 8.91251 9.81032 7.73442 9.81032C7.04579 9.81032 6.37074 10.039 5.88286 10.4375C5.3202 10.8971 5.03536 11.5518 5.08083 12.2808C5.16791 13.6782 5.23426 14.8539 5.28416 15.8426C5.27544 15.8026 5.05052 14.0227 2.68119 14.0227C1.90891 14.0227 1.18553 14.2849 0.696365 14.7426C0.254958 15.1554 -0.207039 15.9176 0.0988145 17.2042ZM4.85977 40.3044L4.9317 39.5271H19.706C19.7229 39.8257 19.7473 40.0887 19.7719 40.3044H4.85977ZM1.79552 15.4541C2.09194 15.1767 2.47758 15.1353 2.68105 15.1353C3.1798 15.1353 3.73402 15.3733 3.8477 15.9051C3.92448 16.2644 4.94885 20.9985 5.26271 21.4186C5.48149 21.7116 5.9931 21.6965 6.0197 21.6946C6.01998 21.6946 6.02027 21.6946 6.02056 21.6946C6.2858 21.6946 6.5479 21.5725 6.66729 21.375C6.81586 21.1287 7.0405 20.7568 6.50901 12.2269C6.48241 11.7988 6.62383 11.4455 6.9181 11.2049C7.13759 11.0258 7.435 10.923 7.73442 10.923C8.23846 10.923 8.80684 11.223 8.8902 12.065C8.96484 12.8189 9.03819 13.6613 9.11598 14.5531C9.49704 18.9264 9.67035 20.3563 10.0118 20.7829C10.1431 20.9469 10.373 21.045 10.6179 21.0451C10.7901 21.0513 10.9402 21.0311 11.0745 20.9776C11.2096 20.924 11.3192 20.8386 11.3876 20.7334C11.6859 20.275 12.0424 10.2405 12.0424 10.2405C12.057 9.43413 12.7193 9.14806 13.282 9.14806C13.775 9.14806 14.365 9.37193 14.4053 10.0027C14.4363 10.4893 14.7036 19.4901 15.1364 20.2642C15.2548 20.4755 15.5326 20.6073 15.9553 20.6073C16.3262 20.6075 16.6362 20.3914 16.6679 20.1035C16.6855 19.9439 17.2405 14.3412 17.8414 11.5602C18.0649 10.5264 18.6443 10.1452 19.229 10.1452C19.5307 10.1452 19.8266 10.2438 20.0406 10.4158C20.2974 10.6221 20.4254 10.9158 20.4111 11.2651C20.3971 11.6118 19.6829 25.6303 20.1985 26.3985C20.3399 26.6091 20.632 26.7128 20.935 26.7128C21.57 26.7129 22.0994 26.2796 23.8373 24.7769C24.6404 24.0822 25.6399 23.2178 26.8199 22.2815C27.0675 22.0849 27.4293 21.9721 27.8119 21.9721C28.2705 21.9721 28.658 22.128 28.8486 22.3891C29.1416 22.7904 28.9787 23.4526 28.4017 24.2055C26.7261 26.3918 21.2198 33.4038 21.2198 33.4038C20.0476 34.8982 19.7259 36.864 19.6879 38.4145H5.03465C5.03465 38.4145 5.46004 33.7482 5.45075 33.705C5.15604 32.3213 1.50482 17.002 1.50482 17.002C1.34496 16.3288 1.44791 15.7791 1.79552 15.4541Z" fill="#3B8686"/>
<path d="M42.8371 24.2738C42.4899 24.2738 42.1852 24.0768 42.131 23.8014L40.3867 14.9167C40.3272 14.613 40.5953 14.3293 40.9855 14.2828C41.3759 14.2365 41.7406 14.4449 41.8004 14.7488L43.5447 23.6335C43.6042 23.9372 43.3361 24.2211 42.9459 24.2674C42.9094 24.2716 42.8728 24.2738 42.8371 24.2738Z" fill="#3B8686"/>
<path d="M48.7663 24.274C48.7305 24.274 48.6941 24.2718 48.6574 24.2674C48.2672 24.2211 47.9991 23.9373 48.0586 23.6335L49.8029 14.7489C49.8626 14.4451 50.2268 14.2363 50.6178 14.2829C51.0079 14.3294 51.276 14.6132 51.2166 14.9168L49.4723 23.8014C49.4182 24.0768 49.1135 24.274 48.7663 24.274Z" fill="#3B8686"/>
<path d="M45.8019 24.274C45.4071 24.274 45.0869 24.0249 45.0869 23.7176V14.8329C45.0869 14.5256 45.4071 14.2766 45.8019 14.2766C46.1967 14.2766 46.5168 14.5256 46.5168 14.8329V23.7176C46.5168 24.0249 46.1967 24.274 45.8019 24.274Z" fill="#3B8686"/>
<path d="M56.3036 6.70729C55.8144 6.24965 55.0912 5.98728 54.3188 5.98728C51.9495 5.98728 51.7245 7.76733 51.7158 7.80728C51.7657 6.81867 51.8321 5.6428 51.9191 4.2454C51.9645 3.51626 51.6796 2.86168 51.1171 2.40214C50.6292 2.00359 49.9542 1.77493 49.2655 1.77493C48.0876 1.77493 46.8323 2.44576 46.684 3.9442C46.615 4.64217 46.547 5.41303 46.4761 6.22818C46.4454 5.15923 46.3873 2.18951 46.3873 2.18951C46.361 0.751943 45.0246 0 43.7179 0C42.5107 0 41.2466 0.656698 41.1665 1.91201C41.1343 2.41494 41.1112 3.30218 41.0844 4.32974C41.0674 4.99022 41.046 5.80747 41.0165 6.65856C40.8456 5.42438 40.6845 4.23805 40.5811 3.41657C40.3711 1.74522 39.0182 0.997176 37.7707 0.997176C37.084 0.997176 36.4138 1.21904 35.9321 1.60614C35.4073 2.02773 35.1328 2.61689 35.1594 3.26491C35.1737 3.61217 35.6651 14.7838 35.5928 17.1537C35.2072 16.8459 32.4021 14.4203 31.2007 13.4669C30.6858 13.0583 29.9522 12.8239 29.1879 12.8239C28.2081 12.8239 27.3558 13.1903 26.9079 13.804C26.5823 14.2502 26.2091 15.225 27.3701 16.7398C29.0496 18.9314 34.5594 25.9483 34.5594 25.9483C36.5065 28.4303 35.7296 32.7016 35.7216 32.7442C35.6913 32.9042 35.7519 33.0666 35.8876 33.1889C36.0235 33.3115 36.2211 33.3818 36.4289 33.3818H52.9085C53.1071 33.3818 53.2966 33.3175 53.4318 33.2044C53.5671 33.0912 53.6359 32.9395 53.6216 32.7854L52.9737 25.7869C53.3217 24.187 55.6956 14.2267 56.5975 10.4432L56.9012 9.16885C57.207 7.88238 56.745 7.11998 56.3036 6.70729ZM37.228 32.2691C37.2526 32.0533 37.2771 31.7902 37.2939 31.4918H52.0683L52.1402 32.2691H37.228ZM55.495 8.96657C55.495 8.96657 51.8438 24.286 51.5491 25.6696C51.5399 25.7129 51.9652 30.3791 51.9652 30.3791H37.3117C37.2736 28.8285 36.9519 26.8625 35.7797 25.3685C35.7797 25.3685 30.2735 18.3564 28.5978 16.17C28.0208 15.4169 27.8579 14.755 28.1509 14.3537C28.3415 14.0926 28.729 13.9366 29.1876 13.9366C29.5702 13.9366 29.9319 14.0495 30.1797 14.2461C31.3596 15.1823 32.3591 16.0468 33.1623 16.7414C34.9002 18.2444 35.4294 18.6774 36.0645 18.6774C36.3675 18.6774 36.6596 18.5737 36.8011 18.363C37.3165 17.5949 36.6023 3.57635 36.5884 3.22975C36.574 2.88026 36.7021 2.58674 36.9589 2.38045C37.173 2.20832 37.4687 2.10985 37.7705 2.10985C38.3552 2.10985 38.9347 2.49105 39.1581 3.52483C39.7591 6.30584 40.314 11.9086 40.3316 12.068C40.3635 12.356 40.6735 12.572 41.0443 12.572C41.4668 12.572 41.7446 12.44 41.8632 12.2288C42.296 11.4547 42.5634 2.45377 42.5943 1.9672C42.6346 1.33654 43.2245 1.11267 43.7176 1.11267C44.2802 1.11267 44.9426 1.39863 44.9571 2.20509C44.9571 2.20509 45.3136 12.2396 45.6119 12.6979C45.6804 12.8031 45.7899 12.8887 45.925 12.9421C46.0593 12.9956 46.2094 13.0158 46.3816 13.0097C46.6265 13.0095 46.8565 12.9114 46.9877 12.7474C47.3292 12.3208 47.5025 10.8908 47.8836 6.51758C47.9613 5.62566 48.0347 4.78337 48.1093 4.02954C48.1927 3.18769 48.7611 2.88749 49.2651 2.88749C49.5645 2.88749 49.862 2.9903 50.0814 3.16955C50.3759 3.40989 50.5173 3.76328 50.4905 4.19143C49.9589 12.7214 50.1835 13.0932 50.3322 13.3395C50.4516 13.537 50.7137 13.6591 50.979 13.6591C50.9787 13.6591 50.9793 13.6591 50.979 13.6591C51.0054 13.6612 51.5181 13.6761 51.7368 13.3832C52.0505 12.9632 53.0749 8.22887 53.1518 7.86959C53.2655 7.33784 53.8197 7.09984 54.3185 7.09984C54.522 7.09984 54.9076 7.14134 55.204 7.41862C55.5519 7.74386 55.655 8.29352 55.495 8.96657Z" fill="#3B8686"/>
</svg>
