<svg width="39" height="41" viewBox="0 0 39 41" fill="none" xmlns="http://www.w3.org/2000/svg">
<path d="M4.99986 40.1162C2.23851 40.0954 0.0168732 37.84 0.0376874 35.0786L0.264412 4.99988C0.285226 2.23853 2.54061 0.0168912 5.30196 0.0377054L33.3012 0.248755C36.0625 0.269569 38.2841 2.52495 38.2633 5.2863L38.0366 35.3651C38.0158 38.1264 35.7604 40.348 32.9991 40.3272L4.99986 40.1162Z" fill="#4DD599" fill-opacity="0.4"/>
<g clip-path="url(#clip0)">
<path d="M28.3438 20.7656H27.5312V18.2344C27.5289 16.8516 27.0908 15.5076 26.2839 14.4076C25.477 13.3077 24.3456 12.5121 23.0625 12.1425V8.95313C23.0622 8.88976 23.0482 8.82727 23.0215 8.7703C22.9947 8.71334 22.956 8.66335 22.9081 8.62406L20.8769 6.93656C20.8058 6.87632 20.7168 6.84352 20.625 6.84375H17.375C17.2832 6.84352 17.1942 6.87632 17.1231 6.93656L15.0919 8.62406C15.044 8.66335 15.0053 8.71334 14.9785 8.7703C14.9518 8.82727 14.9378 8.88976 14.9375 8.95313V12.1425C13.6544 12.5121 12.523 13.3077 11.7161 14.4076C10.9092 15.5076 10.4711 16.8516 10.4688 18.2344V20.7656H9.65625C9.33331 20.7666 9.02388 20.9003 8.79553 21.1374C8.56718 21.3746 8.43846 21.6959 8.4375 22.0313V26.6719C8.43846 27.0072 8.56718 27.3286 8.79553 27.5657C9.02388 27.8028 9.33331 27.9365 9.65625 27.9375H10.4688V30.0469C10.4688 30.6063 10.6828 31.1428 11.0637 31.5384C11.4446 31.934 11.9613 32.1563 12.5 32.1563H25.5C26.0387 32.1563 26.5554 31.934 26.9363 31.5384C27.3172 31.1428 27.5312 30.6063 27.5312 30.0469V27.9375H28.3438C28.6667 27.9365 28.9761 27.8028 29.2045 27.5657C29.4328 27.3286 29.5615 27.0072 29.5625 26.6719V22.0313C29.5615 21.6959 29.4328 21.3746 29.2045 21.1374C28.9761 20.9003 28.6667 20.7666 28.3438 20.7656ZM10.4688 27.0938H9.65625C9.54851 27.0938 9.44517 27.0493 9.36899 26.9702C9.2928 26.8911 9.25 26.7838 9.25 26.6719V23.7188H10.4688V27.0938ZM10.4688 22.875H9.25V22.0313C9.25 21.9194 9.2928 21.8121 9.36899 21.7329C9.44517 21.6538 9.54851 21.6094 9.65625 21.6094H10.4688V22.875ZM17.5172 7.6875H20.4828L21.4984 8.53125H16.5016L17.5172 7.6875ZM22.25 9.375V11.9695C21.9809 11.9293 21.7094 11.9081 21.4375 11.9063V9.375H22.25ZM20.625 9.375V11.9063H17.375V9.375H20.625ZM15.75 9.375H16.5625V11.9063C16.2906 11.9081 16.0191 11.9293 15.75 11.9695V9.375ZM26.7188 30.0469C26.7178 30.3822 26.5891 30.7036 26.3607 30.9407C26.1324 31.1778 25.8229 31.3115 25.5 31.3125H12.5C12.1771 31.3115 11.8676 31.1778 11.6393 30.9407C11.4109 30.7036 11.2822 30.3822 11.2812 30.0469V26.25H13.3125V28.3594C13.3125 28.8069 13.4837 29.2362 13.7885 29.5526C14.0932 29.8691 14.5065 30.0469 14.9375 30.0469H23.0625C23.4935 30.0469 23.9068 29.8691 24.2115 29.5526C24.5163 29.2362 24.6875 28.8069 24.6875 28.3594V26.25H26.7188V30.0469ZM15.3438 22.4531V22.875H16.1562V22.4531H23.875V28.3594C23.8744 28.583 23.7885 28.7972 23.6363 28.9553C23.4841 29.1134 23.2778 29.2025 23.0625 29.2031H14.9375C14.7222 29.2025 14.5159 29.1134 14.3637 28.9553C14.2115 28.7972 14.1256 28.583 14.125 28.3594V22.4531H15.3438ZM14.125 21.6094V20.7656C14.1256 20.5421 14.2115 20.3278 14.3637 20.1697C14.5159 20.0117 14.7222 19.9225 14.9375 19.9219H23.0625C23.2778 19.9225 23.4841 20.0117 23.6363 20.1697C23.7885 20.3278 23.8744 20.5421 23.875 20.7656V21.6094H14.125ZM26.7188 25.4063H24.6875V20.7656C24.6875 20.3181 24.5163 19.8889 24.2115 19.5724C23.9068 19.2559 23.4935 19.0781 23.0625 19.0781H14.9375C14.5065 19.0781 14.0932 19.2559 13.7885 19.5724C13.4837 19.8889 13.3125 20.3181 13.3125 20.7656V25.4063H11.2812V18.2344C11.2825 16.7802 11.8394 15.386 12.8295 14.3578C13.8197 13.3296 15.1622 12.7513 16.5625 12.75H21.4375C22.8378 12.7513 24.1803 13.3296 25.1705 14.3578C26.1606 15.386 26.7175 16.7802 26.7188 18.2344V25.4063ZM28.75 26.6719C28.75 26.7838 28.7072 26.8911 28.631 26.9702C28.5548 27.0493 28.4515 27.0938 28.3438 27.0938H27.5312V23.7188H28.75V26.6719ZM28.75 22.875H27.5312V21.6094H28.3438C28.4515 21.6094 28.5548 21.6538 28.631 21.7329C28.7072 21.8121 28.75 21.9194 28.75 22.0313V22.875Z" fill="#4DD599"/>
<path d="M16.5625 18.2344H21.4375C21.7607 18.2344 22.0707 18.101 22.2993 17.8637C22.5278 17.6263 22.6562 17.3044 22.6562 16.9688V15.2812C22.6562 14.9456 22.5278 14.6237 22.2993 14.3863C22.0707 14.149 21.7607 14.0156 21.4375 14.0156H16.5625C16.2393 14.0156 15.9293 14.149 15.7007 14.3863C15.4722 14.6237 15.3438 14.9456 15.3438 15.2812V16.9688C15.3438 17.3044 15.4722 17.6263 15.7007 17.8637C15.9293 18.101 16.2393 18.2344 16.5625 18.2344ZM16.1562 15.2812C16.1562 15.1694 16.1991 15.0621 16.2752 14.9829C16.3514 14.9038 16.4548 14.8594 16.5625 14.8594H21.4375C21.5452 14.8594 21.6486 14.9038 21.7248 14.9829C21.8009 15.0621 21.8438 15.1694 21.8438 15.2812H18.1875V16.125H21.8438V16.9688C21.8438 17.0806 21.8009 17.1879 21.7248 17.2671C21.6486 17.3462 21.5452 17.3906 21.4375 17.3906H16.5625C16.4548 17.3906 16.3514 17.3462 16.2752 17.2671C16.1991 17.1879 16.1562 17.0806 16.1562 16.9688V15.2812Z" fill="#4DD599"/>
<path d="M16.5625 18.2344H21.4375C21.7607 18.2344 22.0707 18.101 22.2993 17.8637C22.5278 17.6263 22.6562 17.3044 22.6562 16.9688V15.2812C22.6562 14.9456 22.5278 14.6237 22.2993 14.3863C22.0707 14.149 21.7607 14.0156 21.4375 14.0156H16.5625C16.2393 14.0156 15.9293 14.149 15.7007 14.3863C15.4722 14.6237 15.3438 14.9456 15.3438 15.2812V16.9688C15.3438 17.3044 15.4722 17.6263 15.7007 17.8637C15.9293 18.101 16.2393 18.2344 16.5625 18.2344ZM16.1562 15.2812C16.1562 15.1694 16.1991 15.0621 16.2752 14.9829C16.3514 14.9038 16.4548 14.8594 16.5625 14.8594H21.4375C21.5452 14.8594 21.6486 14.9038 21.7248 14.9829C21.8009 15.0621 21.8438 15.1694 21.8438 15.2812H18.1875V16.125H21.8438V16.9688C21.8438 17.0806 21.8009 17.1879 21.7248 17.2671C21.6486 17.3462 21.5452 17.3906 21.4375 17.3906H16.5625C16.4548 17.3906 16.3514 17.3462 16.2752 17.2671C16.1991 17.1879 16.1562 17.0806 16.1562 16.9688V15.2812Z" stroke="#3B8686"/>
<path d="M16.5625 15.2812H17.375V16.125H16.5625V15.2812Z" fill="#4DD599"/>
<path d="M16.5625 15.2812H17.375V16.125H16.5625V15.2812Z" stroke="black"/>
<path d="M15.3438 23.2969H16.1562V24.1406H15.3438V23.2969Z" fill="#4DD599"/>
<path d="M15.3438 23.2969H16.1562V24.1406H15.3438V23.2969Z" stroke="black"/>
</g>
<defs>
<clipPath id="clip0">
</clipPath>
</defs>
</svg>
