<svg width="51" height="40" viewBox="0 0 51 40" fill="none" xmlns="http://www.w3.org/2000/svg">
<path d="M50.907 9.03529C50.8828 8.41257 50.3827 7.92616 49.785 7.95304L45.6748 8.12748L41.841 5.66756C41.4892 5.44186 41.0292 5.55721 40.8136 5.92515C40.5979 6.29309 40.7081 6.7743 41.0599 6.9999L42.9945 8.24127L27.2043 8.9116L20.2919 9.20504L29.3833 2.25189C30.4956 1.40129 32.22 1.32793 33.3945 2.08163L38.4896 5.35089C38.8415 5.57659 39.3014 5.46124 39.517 5.0933C39.7328 4.72536 39.6225 4.24415 39.2708 4.01855L34.1757 0.74929C32.4871 -0.334107 30.1007 -0.23303 28.5015 0.990103L17.6114 9.31893L12.6312 9.53036C12.0366 9.55558 11.5726 10.0822 11.5967 10.7041L11.6888 13.08C11.7123 13.6873 12.1859 14.1631 12.7668 14.1632C12.7814 14.1632 12.7961 14.1629 12.8108 14.1623L13.2605 14.1432L15.084 18.8373C15.2394 19.2372 15.6752 19.4295 16.0574 19.2672C16.4396 19.1046 16.6236 18.6487 16.4683 18.2489L14.8472 14.0759L15.4908 14.0486L46.0101 12.7531L34.9679 26.8231L25.4558 25.9213C25.4477 25.9202 25.4398 25.918 25.4315 25.9172L19.219 25.3298L17.5959 21.1515C17.4405 20.7516 17.0048 20.5594 16.6225 20.7216C16.2403 20.8842 16.0563 21.3401 16.2116 21.7399L17.5446 25.1714L17.0011 25.12L14.0725 24.8424C14.05 24.8403 14.0303 24.8264 14.02 24.8055L7.04292 10.6248C6.76621 10.0623 6.19694 9.7149 5.59271 9.74106L0.716719 9.948C0.304436 9.96551 -0.0161079 10.3293 0.000626522 10.7606C0.0173609 11.1919 0.364102 11.5275 0.777382 11.5097L5.65337 11.3027C5.67986 11.3022 5.70277 11.3163 5.71453 11.34L12.6916 25.5207C12.9371 26.0196 13.4025 26.3479 13.9372 26.399L15.263 26.5247L14.3231 33.7309C14.3216 33.7427 14.3203 33.7545 14.3192 33.7663C14.1753 35.433 15.3542 36.9116 16.9474 37.0622L17.0464 37.0716C17.1332 37.0798 17.2211 37.084 17.3081 37.084C18.3351 37.084 19.2875 36.5125 19.8074 35.5888L25.706 27.5146L34.8563 28.382L34.974 28.3932L36.4495 29.8177C35.8059 30.746 35.4079 31.8421 35.3075 33.0043C35.0031 36.5287 37.496 39.6551 40.8647 39.9736C41.05 39.9911 41.238 40 41.423 40C42.9479 40 44.4113 39.4069 45.5439 38.3299C46.6835 37.2462 47.3875 35.7651 47.5262 34.1595C47.8306 30.6352 45.3377 27.5088 41.969 27.1902C41.7837 27.1727 41.5958 27.1639 41.4107 27.1639C39.964 27.1639 38.5731 27.6986 37.4672 28.673L36.3191 27.5646L48.0097 12.6679L49.9646 12.585C50.559 12.5597 51.0231 12.0333 50.9991 11.4112L50.907 9.03529ZM18.591 34.6799C18.5698 34.7089 18.5506 34.7393 18.5335 34.7711C18.2846 35.2336 17.8151 35.5209 17.3081 35.5209C17.2658 35.5209 17.223 35.5189 17.1809 35.5149L17.0819 35.5055C16.3143 35.433 15.7449 34.7247 15.806 33.9228L16.7525 26.666L17.1243 26.7011L23.9473 27.3479L18.591 34.6799ZM36.7958 33.145C36.8682 32.3061 37.1375 31.5366 37.5525 30.8825L38.2855 31.5901C37.9536 32.1706 37.7623 32.8488 37.7623 33.573C37.7623 35.7099 39.4242 37.4483 41.4668 37.4483C43.5094 37.4483 45.1713 35.7098 45.1713 33.573C45.1713 31.4362 43.5094 29.6977 41.4668 29.6977C40.6557 29.6977 39.9051 29.9726 39.2942 30.4369L38.5695 29.7373C39.3545 29.1014 40.3402 28.7269 41.4109 28.7269C41.5513 28.7269 41.694 28.7337 41.8347 28.747C44.3829 28.9879 46.2687 31.3529 46.0384 34.019C45.8208 36.5377 43.8368 38.4371 41.4233 38.4371C41.2829 38.4371 41.1403 38.4303 40.9995 38.4169C38.4513 38.1761 36.5656 35.811 36.7958 33.145ZM39.2563 33.573C39.2563 32.2981 40.248 31.2607 41.4667 31.2607C42.6854 31.2607 43.677 32.2981 43.677 33.573C43.677 34.848 42.6854 35.8852 41.4667 35.8852C40.248 35.8853 39.2563 34.848 39.2563 33.573ZM47.6147 11.1205L22.221 12.1984L13.1648 12.5828L13.1064 11.0743L17.898 10.8709C17.8984 10.8709 17.8987 10.8709 17.8991 10.8709L45.5082 9.69896C45.5082 9.69896 45.5083 9.69896 45.5084 9.69896L49.431 9.53244L49.4894 11.0409L47.6147 11.1205Z" fill="#C4C4C4"/>
</svg>
