<svg width="39" height="40" viewBox="0 0 39 40" fill="none" xmlns="http://www.w3.org/2000/svg">
<path d="M34.1555 34L33.2414 32.75C33.0245 32.4521 32.907 32.0905 32.9063 31.7188V16.3017C32.9063 15.1459 32.6843 14.0013 32.253 12.9334C31.8218 11.8656 31.1896 10.8953 30.3928 10.0779C29.5959 9.26062 28.6498 8.61229 27.6087 8.16997C26.5675 7.72764 25.4515 7.49999 24.3246 7.5H22.5469V6.17747C22.8448 6.09005 23.116 5.92597 23.3347 5.7008L24.4273 4.58027C24.6933 4.30744 24.8744 3.95984 24.9478 3.58142C25.0212 3.20299 24.9836 2.81074 24.8396 2.45427C24.6956 2.09781 24.4518 1.79313 24.139 1.57877C23.8263 1.36441 23.4585 1.25 23.0823 1.25H15.9177C15.5415 1.25 15.1738 1.36441 14.861 1.57877C14.5482 1.79313 14.3044 2.09781 14.1604 2.45427C14.0164 2.81074 13.9788 3.20299 14.0522 3.58142C14.1256 3.95984 14.3067 4.30744 14.5727 4.58027L15.6653 5.7008C15.884 5.92597 16.1552 6.09005 16.4531 6.17747V7.5H14.6754C13.5485 7.5 12.4325 7.72766 11.3914 8.16998C10.3502 8.61231 9.40414 9.26064 8.60726 10.078C7.81038 10.8953 7.17825 11.8656 6.74699 12.9334C6.31572 14.0013 6.09375 15.1459 6.09375 16.3017V31.7188C6.093 32.0905 5.97547 32.4521 5.7586 32.75L4.84454 34C4.52201 34.4411 4.3256 34.9655 4.27732 35.5146C4.22905 36.0638 4.33081 36.6158 4.57121 37.1089C4.81161 37.6021 5.18114 38.0168 5.63841 38.3066C6.09568 38.5965 6.62261 38.75 7.16016 38.75H31.8398C32.3774 38.75 32.9043 38.5965 33.3616 38.3066C33.8189 38.0168 34.1884 37.6021 34.4288 37.1089C34.6692 36.6158 34.771 36.0638 34.7227 35.5146C34.6744 34.9655 34.478 34.4411 34.1555 34ZM15.4345 3.69641C15.3389 3.59839 15.2739 3.47351 15.2475 3.33757C15.2211 3.20162 15.2347 3.0607 15.2864 2.93264C15.3381 2.80458 15.4257 2.69512 15.5381 2.61811C15.6504 2.5411 15.7825 2.5 15.9177 2.5H16.4531V3.75H17.6719V2.5H18.8906V3.75H20.1094V2.5H21.3281V3.75H22.5469V2.5H23.0823C23.2175 2.5 23.3496 2.5411 23.4619 2.61811C23.5743 2.69512 23.6619 2.80458 23.7136 2.93264C23.7653 3.0607 23.7789 3.20162 23.7525 3.33757C23.7261 3.47351 23.6611 3.59839 23.5655 3.69641L22.473 4.81693C22.4165 4.87515 22.3494 4.92131 22.2754 4.95274C22.2014 4.98416 22.1221 5.00022 22.0421 5H16.958C16.8779 5.00022 16.7986 4.98416 16.7246 4.95274C16.6506 4.92131 16.5835 4.87515 16.527 4.81693L15.4345 3.69641ZM17.6719 6.25H21.3281V7.5H17.6719V6.25ZM31.8398 37.5H7.16016C6.84894 37.5 6.54388 37.4111 6.27915 37.2433C6.01442 37.0755 5.80047 36.8354 5.6613 36.5499C5.52212 36.2644 5.4632 35.9448 5.49115 35.6269C5.51909 35.309 5.6328 35.0053 5.81953 34.75L6.73359 33.5C6.75528 33.4703 6.77627 33.4402 6.79682 33.4097C6.91427 33.5766 7.04451 33.7337 7.1863 33.8794C7.53187 34.2358 7.94293 34.5184 8.39568 34.7107C8.84843 34.903 9.33389 35.0014 9.82394 35H15.8438V33.75H9.82394C9.49413 33.75 9.16755 33.6834 8.86285 33.5539C8.55814 33.4245 8.28128 33.2348 8.04807 32.9956C7.81486 32.7564 7.62987 32.4724 7.50366 32.1599C7.37745 31.8474 7.3125 31.5124 7.3125 31.1742V16.3017C7.30784 14.5128 7.92446 12.7807 9.05185 11.4157C10.1792 10.0507 11.7437 9.14212 13.4649 8.85273C13.5556 8.83724 13.6467 8.82401 13.7381 8.812C12.8807 9.44884 12.1828 10.285 11.7014 11.252C11.22 12.219 10.9689 13.2893 10.9688 14.375H12.1875C12.1892 12.942 12.7235 11.5636 13.6816 10.5206C14.6396 9.47749 15.9492 8.84823 17.3438 8.76095C16.4915 9.49698 15.8064 10.4153 15.3368 11.4516C14.8671 12.4879 14.6242 13.6171 14.625 14.7599V17.5H15.8438V14.7599C15.843 13.4916 16.1992 12.2502 16.8698 11.1846C17.5403 10.1191 18.4966 9.27479 19.6237 8.75322C21.0557 8.78774 22.4179 9.39497 23.4194 10.4453C24.421 11.4956 24.9826 12.9059 24.9844 14.375V17.5H26.2031V14.375C26.2029 13.2713 25.9434 12.1839 25.4467 11.2047C24.95 10.2256 24.2307 9.38363 23.3495 8.75H24.3246C25.2915 8.74998 26.2489 8.94529 27.1423 9.3248C28.0356 9.7043 28.8473 10.2606 29.531 10.9618C30.2147 11.663 30.7571 12.4956 31.1271 13.4118C31.4971 14.328 31.6875 15.31 31.6875 16.3017V31.1742C31.6875 31.5124 31.6226 31.8474 31.4963 32.1599C31.3701 32.4724 31.1851 32.7564 30.9519 32.9956C30.7187 33.2348 30.4419 33.4245 30.1372 33.5539C29.8325 33.6834 29.5059 33.75 29.1761 33.75H26.2031V35H29.1761C29.6661 35.0014 30.1516 34.903 30.6043 34.7107C31.0571 34.5184 31.4681 34.2358 31.8137 33.8794C31.9555 33.7337 32.0857 33.5766 32.2032 33.4097C32.2237 33.4402 32.2448 33.4703 32.2664 33.5L33.1805 34.75C33.3672 35.0053 33.4809 35.309 33.5089 35.6269C33.5368 35.9448 33.4779 36.2644 33.3387 36.5499C33.1995 36.8354 32.9856 37.0755 32.7209 37.2433C32.4561 37.4111 32.1511 37.5 31.8398 37.5Z" fill="#3B8686"/>
</svg>
