<svg width="39" height="41" viewBox="0 0 39 41" fill="none" xmlns="http://www.w3.org/2000/svg">
<path d="M4.99986 40.1162C2.23851 40.0954 0.0168732 37.84 0.0376874 35.0786L0.264412 4.99988C0.285226 2.23853 2.54061 0.0168912 5.30196 0.0377054L33.3012 0.248755C36.0625 0.269569 38.2841 2.52495 38.2633 5.2863L38.0366 35.3651C38.0158 38.1264 35.7604 40.348 32.9991 40.3272L4.99986 40.1162Z" fill="#C4C4C4" fill-opacity="0.2"/>
<path d="M26.7421 23.871C25.4082 23.871 24.3228 24.9564 24.3228 26.2903C24.3228 27.6243 25.4082 28.7097 26.7421 28.7097C28.0761 28.7097 29.1615 27.6243 29.1615 26.2903C29.1615 24.9564 28.0761 23.871 26.7421 23.871ZM26.7421 27.7419C25.9419 27.7419 25.2905 27.0906 25.2905 26.2903C25.2905 25.4901 25.9419 24.8387 26.7421 24.8387C27.5423 24.8387 28.1937 25.4901 28.1937 26.2903C28.1937 27.0906 27.5423 27.7419 26.7421 27.7419Z" fill="#C4C4C4"/>
<path d="M11.2582 23.871C9.92427 23.871 8.83887 24.9564 8.83887 26.2903C8.83887 27.6243 9.92427 28.7097 11.2582 28.7097C12.5922 28.7097 13.6776 27.6243 13.6776 26.2903C13.6776 24.9564 12.5922 23.871 11.2582 23.871ZM11.2582 27.7419C10.458 27.7419 9.80661 27.0906 9.80661 26.2903C9.80661 25.4901 10.458 24.8387 11.2582 24.8387C12.0585 24.8387 12.7098 25.4901 12.7098 26.2903C12.7098 27.0906 12.0585 27.7419 11.2582 27.7419Z" fill="#C4C4C4"/>
<path d="M33.0323 23.9601V20.0083C33.0323 18.9335 32.3107 17.9774 31.2773 17.6813L29.4984 17.1733L26.9496 12.0743C27.3999 11.8283 27.7097 11.3551 27.7097 10.8065C27.7097 10.0062 27.0583 9.35486 26.2581 9.35486H13.1935C12.3933 9.35486 11.7419 10.0062 11.7419 10.8065C11.7419 11.3416 12.0361 11.8047 12.4682 12.0568L10.3551 15.6794L6.58474 11.752C6.30382 11.4588 5.90831 11.2903 5.50194 11.2903C4.67406 11.2903 4 11.9644 4 12.8324C4 13.2065 4.13845 13.566 4.39055 13.8427L7.90239 17.7059L7.28361 17.9121C5.89863 18.3733 4.96774 19.6648 4.96774 21.1246V23.9601C4.4059 24.1604 4 24.6927 4 25.3226V26.2903C4 27.0906 4.65138 27.742 5.45161 27.742H7.15721C7.75685 29.4308 9.36605 30.6452 11.2581 30.6452C13.1501 30.6452 14.7593 29.4308 15.3589 27.742H22.6411C23.2407 29.4308 24.8499 30.6452 26.7419 30.6452C28.6339 30.6452 30.2431 29.4308 30.8428 27.742H32.5484C33.3486 27.742 34 27.0906 34 26.2903V25.3226C34 24.6927 33.5941 24.1604 33.0323 23.9601ZM13.1935 10.3226H26.2581C26.525 10.3226 26.7419 10.5395 26.7419 10.8065C26.7419 11.0735 26.525 11.2903 26.2581 11.2903H13.1935C12.9266 11.2903 12.7097 11.0735 12.7097 10.8065C12.7097 10.5395 12.9266 10.3226 13.1935 10.3226ZM5.10667 13.1916C5.01712 13.0933 4.96774 12.9655 4.96774 12.7923C4.96774 12.4977 5.20731 12.2581 5.50194 12.2581C5.64653 12.2581 5.78735 12.3181 5.88705 12.4221L9.84851 16.5491L9.48088 17.1795L8.90652 17.3711L5.10667 13.1916ZM7.58981 18.8296L10.1325 17.9818L13.4719 12.2581H25.959L28.8241 17.9875L31.0117 18.6127C31.6314 18.7899 32.0645 19.3642 32.0645 20.0088V23.871H30.3603C29.6631 22.8317 28.5302 22.1092 27.2258 21.9641V18.4556L25.1339 13.2258H14.346L11.7419 18.4343V21.9641C11.5827 21.9461 11.4216 21.9355 11.2581 21.9355C9.7514 21.9355 8.4217 22.7048 7.63966 23.871H5.93548V21.1246C5.93548 20.0818 6.60033 19.1596 7.58981 18.8296ZM23.1235 23.871H19.9677V19.0323H26.2581V20H24.3226V20.9678H26.2581V21.9641C24.9532 22.1092 23.8208 22.8317 23.1235 23.871ZM12.7097 22.1895V19.0323H19V20H17.0645V20.9678H19V23.871H14.8765C14.3593 23.0991 13.5995 22.5056 12.7097 22.1895ZM17.1231 17.0968H19V18.0645H15.3164L15.504 17.5018L17.1231 17.0968ZM22.1303 16.1291H22.612L23.9025 18.0645H20.5175L22.1303 16.1291ZM25.0654 18.0645L23.7749 16.1291H25.253L26.0272 18.0645H25.0654ZM22.2023 15.1613L21.7185 14.1936H24.479L24.866 15.1613H22.2023ZM20.6364 14.1936L21.3289 15.5783L19.9677 17.2114V14.1936H20.6364ZM19 16.1291H17.2916L15.6788 14.1936H19V16.1291ZM14.7468 14.5879L16.1988 16.3303L14.7536 16.6914L14.2962 18.0645H13.0088L14.7468 14.5879ZM5.45161 26.7742C5.18463 26.7742 4.96774 26.5573 4.96774 26.2903V25.3226C4.96774 25.0556 5.18463 24.8387 5.45161 24.8387H7.15721C6.99561 25.2935 6.90323 25.7807 6.90323 26.2903C6.90323 26.4538 6.91386 26.615 6.93181 26.7742H5.45161ZM11.2581 29.6774C9.39086 29.6774 7.87097 28.1575 7.87097 26.2903C7.87097 24.4231 9.39086 22.9032 11.2581 22.9032C13.1253 22.9032 14.6452 24.4231 14.6452 26.2903C14.6452 28.1575 13.1253 29.6774 11.2581 29.6774ZM15.5843 26.7742C15.6023 26.615 15.6129 26.4538 15.6129 26.2903C15.6129 25.7807 15.5205 25.2935 15.3589 24.8387H22.6411C22.4795 25.2935 22.3871 25.7807 22.3871 26.2903C22.3871 26.4538 22.3977 26.615 22.4157 26.7742H15.5843ZM26.7419 29.6774C24.8747 29.6774 23.3548 28.1575 23.3548 26.2903C23.3548 24.4231 24.8747 22.9032 26.7419 22.9032C28.6091 22.9032 30.129 24.4231 30.129 26.2903C30.129 28.1575 28.6091 29.6774 26.7419 29.6774ZM33.0323 26.2903C33.0323 26.5573 32.8154 26.7742 32.5484 26.7742H31.0682C31.0861 26.615 31.0968 26.4538 31.0968 26.2903C31.0968 25.7807 31.0044 25.2935 30.8428 24.8387H32.5484C32.8154 24.8387 33.0323 25.0556 33.0323 25.3226V26.2903Z" fill="#C4C4C4"/>
</svg>
