<svg width="35" height="37" viewBox="0 0 35 37" fill="none" xmlns="http://www.w3.org/2000/svg">
<path d="M30.4771 14.5559C30.4771 25.5411 18.7461 35.715 18.7461 35.715C18.0607 36.3094 16.9389 36.3094 16.2534 35.715C16.2534 35.715 4.52246 25.5411 4.52246 14.5559C4.52246 6.97916 10.3326 0.837036 17.4998 0.837036C24.667 0.837036 30.4771 6.97923 30.4771 14.5559Z" fill="#4DD599"/>
<path d="M17.5002 21.4581C13.9 21.4581 10.9712 18.3618 10.9712 14.556C10.9712 10.7502 13.9001 7.65393 17.5002 7.65393C21.1002 7.65393 24.0291 10.7502 24.0291 14.556C24.0291 18.3618 21.1002 21.4581 17.5002 21.4581Z" fill="white"/>
<path d="M17.5002 0C9.90782 0 3.73096 6.52982 3.73096 14.556C3.73096 17.1845 4.37258 19.9749 5.6379 22.8497C6.63704 25.1194 8.02637 27.4493 9.76754 29.7745C12.7192 33.7164 15.6293 36.2561 15.7517 36.3623C16.2419 36.7874 16.8711 37 17.5003 37C18.1294 37 18.7585 36.7874 19.2488 36.3623C19.3712 36.256 22.2813 33.7164 25.2329 29.7745C26.974 27.4493 28.3634 25.1195 29.3625 22.8497C30.6279 19.9749 31.2695 17.1846 31.2695 14.556C31.2693 6.52982 25.0924 0 17.5002 0ZM24.0111 28.7087C21.1642 32.5169 18.2729 35.043 18.2443 35.0678C17.8479 35.4117 17.1524 35.4116 16.7562 35.068C16.7274 35.043 13.8362 32.5169 10.9893 28.7087C8.40057 25.2459 5.31463 19.9797 5.31463 14.556C5.31456 7.45287 10.781 1.6741 17.5001 1.6741C24.2193 1.6741 29.6857 7.45287 29.6857 14.556C29.6857 19.9796 26.5998 25.2459 24.0111 28.7087Z" fill="#808080"/>
<path d="M17.5 6.81689C13.4633 6.81689 10.1792 10.2887 10.1792 14.5561C10.1792 18.8234 13.4633 22.2952 17.5 22.2952C21.5366 22.2952 24.8208 18.8234 24.8208 14.5561C24.8207 10.2887 21.5366 6.81689 17.5 6.81689ZM17.5 20.621C14.3365 20.621 11.7628 17.9003 11.7628 14.556C11.7628 11.2117 14.3365 8.49092 17.5 8.49092C20.6635 8.49092 23.2371 11.2117 23.2371 14.556C23.2371 17.9003 20.6634 20.621 17.5 20.621Z" fill="#808080"/>
</svg>
