<svg width="44" height="41" viewBox="0 0 44 41" fill="none" xmlns="http://www.w3.org/2000/svg">
<path d="M37.3542 37.5168H2.75593C1.94709 37.5168 1.28906 36.9036 1.28906 36.1499V17.387C1.28906 16.6333 1.94709 16.0201 2.75593 16.0201H3.55927C3.91531 16.0201 4.2038 15.7513 4.2038 15.4196C4.2038 15.0878 3.91531 14.819 3.55927 14.819H2.75593C1.23638 14.819 0 15.971 0 17.387V36.1499C0 37.566 1.23638 38.718 2.75593 38.718H37.3542C37.7102 38.718 37.9987 38.4491 37.9987 38.1174C37.9987 37.7856 37.7102 37.5168 37.3542 37.5168Z" fill="#808080"/>
<path d="M41.2441 14.819H6.10156C5.74552 14.819 5.45703 15.0878 5.45703 15.4196C5.45703 15.7513 5.74552 16.0201 6.10156 16.0201H41.2441C42.0529 16.0201 42.7109 16.6333 42.7109 17.387V36.1499C42.7109 36.9036 42.0529 37.5168 41.2441 37.5168H40.0755C39.7195 37.5168 39.431 37.7856 39.431 38.1174C39.431 38.4491 39.7195 38.718 40.0755 38.718H41.2441C42.7638 38.718 44 37.566 44 36.1499V17.387C44 15.971 42.7637 14.819 41.2441 14.819Z" fill="#808080"/>
<path d="M41.133 16.8899H2.86719C2.51123 16.8899 2.22266 17.1587 2.22266 17.4905V36.0464C2.22266 36.3781 2.51115 36.6469 2.86719 36.6469H41.133C41.489 36.6469 41.7775 36.3781 41.7775 36.0464V17.4905C41.7775 17.1587 41.489 16.8899 41.133 16.8899ZM40.4885 35.4458H3.51172V18.0911H40.4885V35.4458Z" fill="#4DD599"/>
<path d="M24.5871 32.9766H19.1919C18.8359 32.9766 18.5474 33.2454 18.5474 33.5771C18.5474 33.9089 18.8359 34.1777 19.1919 34.1777H24.5871C24.9432 34.1777 25.2316 33.9089 25.2316 33.5771C25.2316 33.2454 24.9432 32.9766 24.5871 32.9766Z" fill="#808080"/>
<path d="M12.7912 19.379H7.396C7.03996 19.379 6.75146 19.6479 6.75146 19.9796C6.75146 20.3114 7.03996 20.5802 7.396 20.5802H12.7912C13.1473 20.5802 13.4358 20.3114 13.4358 19.9796C13.4358 19.6479 13.1472 19.379 12.7912 19.379Z" fill="#808080"/>
<path d="M12.7912 26.1406H7.396C7.03996 26.1406 6.75146 26.4094 6.75146 26.7412C6.75146 27.073 7.03996 27.3418 7.396 27.3418H12.7912C13.1473 27.3418 13.4358 27.073 13.4358 26.7412C13.4358 26.4094 13.1472 26.1406 12.7912 26.1406Z" fill="#808080"/>
<path d="M5.6748 20.2858C5.31877 20.2858 5.03027 20.5546 5.03027 20.8864V25.9137C5.03027 26.2454 5.31877 26.5143 5.6748 26.5143C6.03084 26.5143 6.31934 26.2454 6.31934 25.9137V20.8864C6.31934 20.5547 6.03084 20.2858 5.6748 20.2858Z" fill="#808080"/>
<path d="M14.5513 20.2858C14.1952 20.2858 13.9067 20.5546 13.9067 20.8864V25.9137C13.9067 26.2454 14.1952 26.5143 14.5513 26.5143C14.9073 26.5143 15.1958 26.2454 15.1958 25.9137V20.8864C15.1958 20.5547 14.9073 20.2858 14.5513 20.2858Z" fill="#808080"/>
<path d="M12.7912 32.9766H7.396C7.03996 32.9766 6.75146 33.2454 6.75146 33.5771C6.75146 33.9089 7.03996 34.1777 7.396 34.1777H12.7912C13.1473 34.1777 13.4358 33.9089 13.4358 33.5771C13.4358 33.2454 13.1472 32.9766 12.7912 32.9766Z" fill="#808080"/>
<path d="M5.6748 27.1217C5.31877 27.1217 5.03027 27.3905 5.03027 27.7223V32.7497C5.03027 33.0814 5.31877 33.3503 5.6748 33.3503C6.03084 33.3503 6.31934 33.0814 6.31934 32.7497V27.7223C6.31934 27.3907 6.03084 27.1217 5.6748 27.1217Z" fill="#808080"/>
<path d="M14.5513 27.1217C14.1952 27.1217 13.9067 27.3905 13.9067 27.7223V32.7497C13.9067 33.0814 14.1952 33.3503 14.5513 33.3503C14.9073 33.3503 15.1958 33.0814 15.1958 32.7497V27.7223C15.1958 27.3907 14.9073 27.1217 14.5513 27.1217Z" fill="#808080"/>
<path d="M24.5871 19.379H19.1919C18.8359 19.379 18.5474 19.6479 18.5474 19.9796C18.5474 20.3114 18.8359 20.5802 19.1919 20.5802H24.5871C24.9432 20.5802 25.2316 20.3114 25.2316 19.9796C25.2316 19.6479 24.9432 19.379 24.5871 19.379Z" fill="#808080"/>
<path d="M24.5871 26.1406H19.1919C18.8359 26.1406 18.5474 26.4094 18.5474 26.7412C18.5474 27.073 18.8359 27.3418 19.1919 27.3418H24.5871C24.9432 27.3418 25.2316 27.073 25.2316 26.7412C25.2316 26.4094 24.9432 26.1406 24.5871 26.1406Z" fill="#808080"/>
<path d="M17.4707 20.2858C17.1147 20.2858 16.8262 20.5546 16.8262 20.8864V25.9137C16.8262 26.2454 17.1147 26.5143 17.4707 26.5143C17.8267 26.5143 18.1152 26.2454 18.1152 25.9137V20.8864C18.1152 20.5547 17.8267 20.2858 17.4707 20.2858Z" fill="#808080"/>
<path d="M26.3472 20.2858C25.9911 20.2858 25.7026 20.5546 25.7026 20.8864V25.9137C25.7026 26.2454 25.9911 26.5143 26.3472 26.5143C26.7032 26.5143 26.9917 26.2454 26.9917 25.9137V20.8864C26.9917 20.5547 26.7032 20.2858 26.3472 20.2858Z" fill="#808080"/>
<path d="M17.4707 27.1217C17.1147 27.1217 16.8262 27.3905 16.8262 27.7223V32.7497C16.8262 33.0814 17.1147 33.3503 17.4707 33.3503C17.8267 33.3503 18.1152 33.0814 18.1152 32.7497V27.7223C18.1152 27.3907 17.8267 27.1217 17.4707 27.1217Z" fill="#808080"/>
<path d="M26.3472 27.1217C25.9911 27.1217 25.7026 27.3905 25.7026 27.7223V32.7497C25.7026 33.0814 25.9911 33.3503 26.3472 33.3503C26.7032 33.3503 26.9917 33.0814 26.9917 32.7497V27.7223C26.9917 27.3907 26.7032 27.1217 26.3472 27.1217Z" fill="#808080"/>
<path d="M36.3834 19.379H30.9883C30.6322 19.379 30.3438 19.6479 30.3438 19.9796C30.3438 20.3114 30.6322 20.5802 30.9883 20.5802H36.3834C36.7395 20.5802 37.028 20.3114 37.028 19.9796C37.028 19.6479 36.7395 19.379 36.3834 19.379Z" fill="#808080"/>
<path d="M36.3834 26.1406H30.9883C30.6322 26.1406 30.3438 26.4094 30.3438 26.7412C30.3438 27.073 30.6322 27.3418 30.9883 27.3418H36.3834C36.7395 27.3418 37.028 27.073 37.028 26.7412C37.028 26.4094 36.7395 26.1406 36.3834 26.1406Z" fill="#808080"/>
<path d="M29.2666 20.2858C28.9106 20.2858 28.6221 20.5546 28.6221 20.8864V25.9137C28.6221 26.2454 28.9106 26.5143 29.2666 26.5143C29.6226 26.5143 29.9111 26.2454 29.9111 25.9137V20.8864C29.9111 20.5547 29.6226 20.2858 29.2666 20.2858Z" fill="#808080"/>
<path d="M38.1436 20.2858C37.7875 20.2858 37.499 20.5546 37.499 20.8864V25.9137C37.499 26.2454 37.7875 26.5143 38.1436 26.5143C38.4996 26.5143 38.7881 26.2454 38.7881 25.9137V20.8864C38.7881 20.5547 38.4995 20.2858 38.1436 20.2858Z" fill="#808080"/>
<path d="M36.3834 32.9766H30.9883C30.6322 32.9766 30.3438 33.2454 30.3438 33.5771C30.3438 33.9089 30.6322 34.1777 30.9883 34.1777H36.3834C36.7395 34.1777 37.028 33.9089 37.028 33.5771C37.028 33.2454 36.7395 32.9766 36.3834 32.9766Z" fill="#808080"/>
<path d="M29.2666 27.1217C28.9106 27.1217 28.6221 27.3905 28.6221 27.7223V32.7497C28.6221 33.0814 28.9106 33.3503 29.2666 33.3503C29.6226 33.3503 29.9111 33.0814 29.9111 32.7497V27.7223C29.9111 27.3907 29.6226 27.1217 29.2666 27.1217Z" fill="#808080"/>
<path d="M38.1436 27.1217C37.7875 27.1217 37.499 27.3905 37.499 27.7223V32.7497C37.499 33.0814 37.7875 33.3503 38.1436 33.3503C38.4996 33.3503 38.7881 33.0814 38.7881 32.7497V27.7223C38.7881 27.3907 38.4995 27.1217 38.1436 27.1217Z" fill="#808080"/>
<path d="M28.2747 8.12573C28.6636 7.7725 28.8009 7.254 28.6331 6.77273C28.4653 6.29146 28.0271 5.9472 27.4897 5.87449L25.631 5.62272C25.2786 5.57436 24.9517 5.80234 24.9005 6.13066C24.8493 6.45898 25.0933 6.76368 25.4456 6.8114L27.3043 7.06317C27.3562 7.07022 27.391 7.09744 27.4071 7.14397C27.4234 7.19057 27.4125 7.23157 27.3749 7.26569L25.7687 8.72463C25.1496 9.28694 24.8673 10.0968 25.0134 10.8908L25.3926 12.9508C25.4014 12.9991 25.3843 13.0381 25.3419 13.0669C25.2993 13.0955 25.2542 13.0989 25.2076 13.0759L22.6594 11.8275C22.2465 11.6251 21.7538 11.6252 21.341 11.8274L18.7928 13.0758C18.7462 13.0987 18.7011 13.0956 18.6585 13.0668C18.616 13.038 18.599 12.999 18.6079 12.9507L18.9869 10.8907C19.133 10.0967 18.8507 9.28694 18.2316 8.72447L16.6255 7.26569C16.5878 7.23149 16.577 7.19057 16.5932 7.14389C16.6094 7.09736 16.6441 7.07014 16.6961 7.06309L18.9156 6.76248C19.7713 6.64676 20.5107 6.14619 20.8933 5.42365L21.886 3.5495C21.9093 3.50562 21.9477 3.48336 22.0002 3.48336C22.0527 3.48336 22.0912 3.50562 22.1144 3.5495L22.9767 5.17749C23.1342 5.4749 23.5206 5.59694 23.8399 5.45024C24.1592 5.30345 24.2902 4.94326 24.1326 4.64585L23.2703 3.01786C23.03 2.56406 22.5432 2.2821 22.0002 2.2821C21.4571 2.2821 20.9704 2.56406 20.73 3.01786L19.7374 4.89201C19.5425 5.25997 19.1661 5.51478 18.7303 5.5738L16.5107 5.87441C15.9733 5.94712 15.5351 6.2913 15.3673 6.77264C15.1994 7.25399 15.3368 7.77242 15.7256 8.12573L17.3318 9.58451C17.647 9.87087 17.7908 10.2833 17.7164 10.6876L17.3374 12.7474C17.2455 13.2462 17.4614 13.7409 17.9008 14.0384C18.3402 14.3359 18.9118 14.3743 19.3926 14.139L21.941 12.8905C21.9781 12.8723 22.0223 12.8722 22.0594 12.8905L24.6078 14.139C24.8169 14.2414 25.043 14.292 25.2682 14.2919C25.5607 14.2919 25.8512 14.2065 26.0996 14.0384C26.5389 13.7409 26.7548 13.2462 26.6631 12.7475L26.2839 10.6876C26.2096 10.2832 26.3533 9.87087 26.6686 9.58459L28.2747 8.12573Z" fill="#4DD599"/>
<path d="M14.8207 8.96578C15.177 8.64218 15.3029 8.16716 15.1491 7.72625C14.9953 7.28526 14.5939 6.96999 14.1016 6.90337L12.2237 6.64904C11.8876 6.60355 11.597 6.40688 11.4466 6.12293L10.6068 4.5373C10.3866 4.12153 9.94064 3.86328 9.44315 3.86328C8.94557 3.86328 8.49972 4.12161 8.27964 4.5373L7.43986 6.12293C7.28947 6.40688 6.99891 6.60355 6.66264 6.64904L4.78482 6.90337C4.29248 6.97007 3.89115 7.28534 3.73733 7.72617C3.58358 8.16716 3.7094 8.6421 4.06561 8.96578L5.42428 10.2C5.66765 10.421 5.7786 10.7393 5.72119 11.0514L5.40039 12.7942C5.31634 13.2511 5.51417 13.7042 5.91661 13.9767C6.31923 14.2491 6.84276 14.2844 7.28319 14.0688L9.4471 13.0126L11.6031 14.0688C11.7947 14.1626 12.0019 14.2089 12.2081 14.2089C12.4761 14.2089 12.7423 14.1306 12.9697 13.9767C13.3722 13.7042 13.5699 13.251 13.4857 12.7942L13.165 11.0513C13.1076 10.7393 13.2186 10.421 13.4619 10.2L14.8207 8.96578ZM12.5621 9.33982C12.0149 9.83687 11.7654 10.5527 11.8945 11.2544L12.2168 13.0004C12.2151 13.0032 12.2089 13.0076 12.2029 13.0055L10.0468 11.9492C9.66873 11.7641 9.21739 11.7643 8.83926 11.9493L6.68043 13.0079C6.67716 13.0072 6.67106 13.0031 6.67089 12.9972L6.99161 11.2545C7.12086 10.5526 6.87129 9.83687 6.32404 9.33982L4.96194 8.1039C4.96159 8.10077 4.964 8.09405 4.9701 8.09213L6.84792 7.8378C7.60408 7.73554 8.25747 7.29319 8.59572 6.65464L9.43627 5.06557C9.43937 5.06421 9.44693 5.06421 9.44744 5.06381C9.44744 5.06381 9.44882 5.06525 9.4508 5.06902L10.2906 6.65464C10.6288 7.29327 11.2822 7.73554 12.0383 7.8378L13.92 8.09181C13.9222 8.09405 13.9246 8.10077 13.9209 8.10566L12.5621 9.33982Z" fill="#4DD599"/>
<path d="M39.9346 8.96562C40.2909 8.64202 40.4166 8.167 40.2629 7.72609C40.109 7.28518 39.7077 6.96999 39.2155 6.90337L37.3375 6.64904C37.0013 6.60355 36.7107 6.40688 36.5603 6.12293L35.7205 4.53738C35.5004 4.12161 35.0546 3.86328 34.557 3.86328C34.557 3.86328 34.557 3.86328 34.557 3.86328C34.0595 3.86328 33.6135 4.12161 33.3934 4.5373L32.5536 6.12293C32.4032 6.40688 32.1126 6.60355 31.7764 6.64904L29.8986 6.90337C29.4063 6.96999 29.0049 7.28534 28.8511 7.72625C28.6973 8.16716 28.8232 8.64218 29.1794 8.96578L30.5381 10.1999C30.7815 10.4209 30.8924 10.7391 30.835 11.0513L30.5143 12.7939C30.4302 13.2508 30.6278 13.7039 31.0303 13.9765C31.2578 14.1306 31.524 14.2087 31.7919 14.2087C31.9981 14.2087 32.2054 14.1624 32.397 14.0686L34.5608 13.0124L36.7169 14.0686C37.1572 14.2843 37.6807 14.249 38.0834 13.9766C38.4858 13.7041 38.6836 13.2509 38.5995 12.794L38.2788 11.0512C38.2214 10.7392 38.3324 10.4209 38.5757 10.1999L39.9346 8.96562ZM37.6757 9.33966C37.1285 9.83671 36.879 10.5525 37.0082 11.2543L37.3304 13.0002C37.3287 13.003 37.3227 13.0074 37.3165 13.0053L35.1603 11.9491C34.7823 11.7639 34.3309 11.7642 33.9528 11.9492L31.7941 13.0077C31.7908 13.0071 31.7847 13.0029 31.7845 12.997L32.1052 11.2543C32.2345 10.5524 31.9849 9.83671 31.4377 9.33966L30.0756 8.10374C30.0754 8.10061 30.0777 8.09389 30.0838 8.09197L31.9616 7.83764C32.7177 7.73538 33.3711 7.29303 33.7094 6.65448L34.55 5.06541C34.553 5.06405 34.5606 5.06405 34.5611 5.06357C34.5611 5.06357 34.5625 5.06509 34.5644 5.06878C34.5644 5.06886 34.5644 5.06886 34.5644 5.06886L35.4042 6.65448C35.7425 7.29311 36.3958 7.73538 37.1519 7.83764L39.0336 8.09157C39.0358 8.09389 39.0382 8.10061 39.0346 8.1055L37.6757 9.33966Z" fill="#4DD599"/>
</svg>
