<svg width="30" height="30" viewBox="0 0 30 30" fill="none" xmlns="http://www.w3.org/2000/svg">
<path d="M15 19.633C18.6831 19.633 21.6797 16.5518 21.6797 12.7645C21.6797 8.97715 18.6831 5.896 15 5.896C11.3169 5.896 8.32031 8.97715 8.32031 12.7645C8.32031 16.5518 11.3169 19.633 15 19.633ZM11.2668 9.41238H13.221V8.97715C13.2213 8.75776 13.3085 8.54743 13.4637 8.3923C13.6188 8.23716 13.8291 8.14989 14.0485 8.14963H15.9515C16.1709 8.14989 16.3812 8.23716 16.5363 8.3923C16.6915 8.54743 16.7787 8.75776 16.779 8.97715V9.41238H18.7332C18.8265 9.41238 18.9159 9.44942 18.9818 9.51535C19.0478 9.58128 19.0848 9.67071 19.0848 9.76395C19.0848 9.85719 19.0478 9.94661 18.9818 10.0125C18.9159 10.0785 18.8265 10.1155 18.7332 10.1155H18.0669L17.5462 15.9987C17.5385 16.0862 17.4982 16.1677 17.4334 16.227C17.3686 16.2864 17.2839 16.3193 17.196 16.3193H12.804C12.7161 16.3193 12.6314 16.2864 12.5666 16.227C12.5018 16.1677 12.4615 16.0862 12.4538 15.9987L11.9331 10.1155H11.2668C11.1735 10.1155 11.0841 10.0785 11.0182 10.0125C10.9522 9.94661 10.9152 9.85719 10.9152 9.76395C10.9152 9.67071 10.9522 9.58128 11.0182 9.51535C11.0841 9.44942 11.1735 9.41238 11.2668 9.41238Z" fill="#4DD599"/>
<path d="M16.076 8.97718C16.076 8.94421 16.0629 8.91259 16.0395 8.88927C16.0162 8.86595 15.9846 8.85283 15.9517 8.85278H14.0487C14.0157 8.85283 13.9841 8.86595 13.9608 8.88927C13.9375 8.91259 13.9243 8.94421 13.9243 8.97718V9.41241H16.076V8.97718Z" fill="#4DD599"/>
<path d="M8.08987 19.7908L14.7437 26.8782C14.7766 26.9132 14.8163 26.9411 14.8604 26.9602C14.9045 26.9792 14.952 26.9891 15 26.9891C15.048 26.9891 15.0956 26.9792 15.1396 26.9602C15.1837 26.9411 15.2234 26.9132 15.2563 26.8782L21.9102 19.7908C22.9231 18.7119 23.6689 17.5282 24.127 16.2726C24.5946 15.0123 24.7919 13.6677 24.7061 12.3262C24.5449 9.87418 23.5015 7.56336 21.7688 5.82086C20.8809 4.9302 19.826 4.22354 18.6644 3.74136C17.5029 3.25919 16.2576 3.01099 15 3.01099C13.7424 3.01099 12.4971 3.25919 11.3356 3.74136C10.1741 4.22354 9.11911 4.9302 8.2312 5.82086C6.49851 7.56336 5.45515 9.87418 5.29396 12.3262C5.20818 13.6677 5.40545 15.0123 5.87298 16.2726C6.33112 17.5282 7.07696 18.7119 8.08987 19.7908ZM15 5.19291C19.0709 5.19291 22.3828 8.58953 22.3828 12.7645C22.3828 16.9395 19.0709 20.3362 15 20.3362C10.9291 20.3362 7.6172 16.9395 7.6172 12.7645C7.6172 8.58953 10.9291 5.19291 15 5.19291Z" fill="#4DD599"/>
<path d="M16.8743 15.6161L17.3611 10.1155H12.6392L13.126 15.6161H16.8743Z" fill="#4DD599"/>
</svg>
