<svg width="22" height="25" viewBox="0 0 22 25" fill="none" xmlns="http://www.w3.org/2000/svg">
<path d="M16.3227 0H5.67751C4.69928 0 3.90332 0.904502 3.90332 2.01613V22.9839C3.90332 24.0955 4.69928 25 5.67751 25H16.3227C17.3009 25 18.0969 24.0955 18.0969 22.9839V2.01613C18.0969 0.904502 17.3009 0 16.3227 0ZM17.3872 22.9839C17.3872 23.6507 16.9095 24.1935 16.3227 24.1935H5.67751C5.09068 24.1935 4.613 23.6507 4.613 22.9839V2.01613C4.613 1.34927 5.09068 0.806452 5.67751 0.806452H16.3227C16.9095 0.806452 17.3872 1.34927 17.3872 2.01613V22.9839Z" fill="#4DD599"/>
<path d="M15.6131 4.8386H14.7523C14.2871 2.97978 12.7829 1.61279 11.0002 1.61279C9.21749 1.61279 7.71324 2.97978 7.24803 4.8386H6.38727C5.80043 4.8386 5.32275 5.38142 5.32275 6.04828V20.1612H16.6776V6.04828C16.6776 5.38142 16.1999 4.8386 15.6131 4.8386ZM14.9034 6.14101V6.04828C14.9034 5.91203 14.8959 5.77815 14.8854 5.64505H15.6131C15.8085 5.64505 15.9679 5.82619 15.9679 6.04828V9.67731H13.6848L14.3471 8.42333C14.7111 7.73383 14.9034 6.94471 14.9034 6.14101ZM13.484 11.2902V15.3225H15.9679V16.1289H13.484V19.3547H12.7744V16.1289H6.03243V10.4838H8.74119L9.16707 11.2902H6.74211V15.3225H12.7744V11.4018L13.2591 10.4838H15.9679V11.2902H13.484ZM15.9679 12.0967V14.516H14.1937V12.0967H15.9679ZM10.1585 13.1681C10.3348 13.5019 10.6575 13.7096 11.0002 13.7096C11.3429 13.7096 11.6655 13.5019 11.8419 13.1681L12.0647 12.7462V14.516H7.45179V12.0967H9.59294L10.1585 13.1681ZM7.80662 6.04828C7.80662 4.04751 9.23949 2.41924 11.0002 2.41924C12.7608 2.41924 14.1937 4.04751 14.1937 6.04828V6.14101C14.1937 6.79862 14.0366 7.44421 13.7384 8.0079L11.2334 12.7531C11.1357 12.9382 10.8647 12.9382 10.767 12.7531L8.26195 8.0079C7.96412 7.44421 7.80662 6.79822 7.80662 6.14101V6.04828ZM6.38727 5.64505H7.11497C7.1044 5.77815 7.09695 5.91203 7.09695 6.04828V6.14101C7.09695 6.94471 7.28927 7.73383 7.65329 8.42333L8.31549 9.67731H6.03243V6.04828C6.03243 5.82619 6.19183 5.64505 6.38727 5.64505ZM6.03243 16.9354H12.0647V19.3547H6.03243V16.9354ZM14.1937 19.3547V16.9354H15.9679V19.3547H14.1937Z" fill="#4DD599"/>
<path d="M5.32275 22.1775C5.32275 22.8443 5.80043 23.3871 6.38727 23.3871H7.09695C7.68378 23.3871 8.16146 22.8443 8.16146 22.1775V20.9678H5.32275V22.1775ZM6.03243 21.7742H7.45179V22.1775C7.45179 22.3995 7.29239 22.5807 7.09695 22.5807H6.38727C6.19183 22.5807 6.03243 22.3995 6.03243 22.1775V21.7742Z" fill="#4DD599"/>
<path d="M13.8389 22.1775C13.8389 22.8443 14.3165 23.3871 14.9034 23.3871H15.6131C16.1999 23.3871 16.6776 22.8443 16.6776 22.1775V20.9678H13.8389V22.1775ZM14.5485 21.7742H15.9679V22.1775C15.9679 22.3995 15.8085 22.5807 15.6131 22.5807H14.9034C14.7079 22.5807 14.5485 22.3995 14.5485 22.1775V21.7742Z" fill="#4DD599"/>
<path d="M9.22559 21.7742H9.93526V22.5806H9.22559V21.7742Z" fill="#4DD599"/>
<path d="M10.645 21.7742H11.3547V22.5806H10.645V21.7742Z" fill="#4DD599"/>
<path d="M12.0645 21.7742H12.7741V22.5806H12.0645V21.7742Z" fill="#4DD599"/>
<path d="M10.9998 4.03228C11.978 4.03228 12.774 4.93678 12.774 6.04841C12.774 6.46778 12.6601 6.87101 12.4446 7.21497L13.0228 7.68278C13.3242 7.20158 13.4836 6.63632 13.4836 6.04841C13.4836 4.49201 12.3694 3.22583 10.9998 3.22583C10.4824 3.22583 9.98497 3.40697 9.56152 3.74955L9.97319 4.40657C10.2759 4.16164 10.6307 4.03228 10.9998 4.03228Z" fill="#4DD599"/>
<path d="M11 8.87101C11.5173 8.87101 12.0148 8.68987 12.4382 8.34729L12.0266 7.69027C11.7239 7.9352 11.369 8.06456 11 8.06456C10.0218 8.06456 9.22579 7.16005 9.22579 6.04843C9.22579 5.62906 9.33962 5.22583 9.55516 4.88187L8.97699 4.41406C8.67551 4.89526 8.51611 5.46052 8.51611 6.04843C8.51611 7.60482 9.63036 8.87101 11 8.87101Z" fill="#4DD599"/>
</svg>
