<svg width="25" height="24" viewBox="0 0 25 24" fill="none" xmlns="http://www.w3.org/2000/svg">
<path d="M7.11779 17.4206V2.13295H17.2155V13.9365H18.1896V1.34454C18.1896 0.605243 17.5598 0 16.789 0H7.54432C6.77353 0 6.14307 0.605243 6.14307 1.34454V18.5654C6.14307 19.3041 6.77353 19.9086 7.54432 19.9086H10.0523L8.66975 17.42L7.11779 17.4206ZM10.6876 0.969583H13.6457C13.739 0.969583 13.8144 1.04192 13.8144 1.13284C13.8144 1.22243 13.739 1.29477 13.6457 1.29477H10.6876C10.5943 1.29477 10.5176 1.22243 10.5176 1.13284C10.5176 1.04192 10.595 0.969583 10.6876 0.969583ZM18.8574 15.7556V15.5896C18.8574 15.2193 18.5442 14.9174 18.1564 14.9174H18.0824C17.6939 14.9174 17.3815 15.2193 17.3815 15.589V15.7556V16.3469H17.1112V15.7556V15.589C17.1112 15.2193 16.7987 14.9174 16.4116 14.9174H16.3355C15.9498 14.9174 15.6352 15.2193 15.6352 15.589V16.3469H15.3649V15.589C15.3649 15.2193 15.0518 14.9174 14.6654 14.9174H14.59C14.2022 14.9174 13.8897 15.2193 13.8897 15.589V15.7556V16.3469H13.6664V14.5716C15.1112 14.2126 16.1869 12.9616 16.1869 11.4644C16.1869 9.6872 14.6813 8.24245 12.8313 8.24245C10.9814 8.24245 9.4758 9.68787 9.4758 11.4644C9.4758 13.0267 10.642 14.3301 12.1815 14.6221V16.3489V17.1479V18.7625C11.4349 17.9987 10.9835 17.1472 10.5003 17.041C9.87606 16.9023 9.34929 17.3629 9.78066 18.1619C10.2127 18.9603 12.2797 22.4258 12.2825 22.4298C12.5562 23.0669 13.4369 24.0007 15.5177 24C18.8553 24.0007 18.8553 21.1417 18.8553 21.1417V17.0145C18.8553 17.0118 18.8567 17.0105 18.8567 17.0079V15.7556H18.8574ZM12.9634 11.2793L12.8873 11.2786C12.4981 11.2786 12.1829 11.5812 12.1829 11.9562V12.7015C11.7108 12.4712 11.3838 12.0066 11.3838 11.4651C11.3838 10.6986 12.0336 10.0741 12.8327 10.0741C13.6319 10.0741 14.2824 10.6979 14.2824 11.4651C14.2824 11.9323 14.0377 12.3451 13.6692 12.5966V11.9562C13.6685 11.5812 13.354 11.2786 12.9634 11.2793ZM9.82283 11.4644C9.82283 9.87103 11.1729 8.57427 12.8327 8.57427C14.4925 8.57427 15.8426 9.87103 15.8426 11.4644C15.8426 12.7778 14.9191 13.8755 13.6678 14.2259V13.3552C14.4331 13.0413 14.9723 12.3126 14.9723 11.4644C14.9723 10.3316 14.0121 9.4098 12.832 9.4098C11.652 9.4098 10.6918 10.3316 10.6918 11.4644C10.6918 12.3776 11.3209 13.1454 12.1822 13.4116V14.2823C10.8356 13.9949 9.82283 12.8428 9.82283 11.4644Z" fill="#4DD599"/>
</svg>
