<svg width="22" height="24" viewBox="0 0 22 24" fill="none" xmlns="http://www.w3.org/2000/svg">
<g opacity="0.5">
<path d="M21.0128 15.4735V16.9757C19.929 19.5672 18.0248 21.6641 15.6627 22.8719C15.2349 23.0903 14.7917 23.2798 14.3355 23.4377C13.8224 23.6164 13.293 23.7541 12.7499 23.8486C12.7475 23.8489 12.7449 23.8495 12.7427 23.8495V15.4735C12.7427 13.6882 14.0029 12.2238 15.6066 12.0828C15.6911 12.0749 15.776 12.0714 15.8616 12.0714H17.8929C18.1331 12.0714 18.3671 12.1003 18.5915 12.1567C19.9779 12.5024 21.0128 13.8567 21.0128 15.4735Z" fill="#3B8686"/>
<path d="M21.0127 15.4735V16.9757C19.9289 19.5672 18.0247 21.6641 15.6626 22.8719C15.2348 23.0903 14.7917 23.2798 14.3354 23.4377V15.4735C14.3354 13.5947 15.7323 12.0714 17.455 12.0714H17.8931C19.6164 12.0714 21.0127 13.5947 21.0127 15.4735Z" fill="#3B8686"/>
<path d="M13.8248 8.31873C13.8248 8.88068 13.4483 9.34668 12.9555 9.43329C12.9018 9.44281 12.8462 9.44775 12.7898 9.44775C12.218 9.44775 11.7549 8.94238 11.7549 8.31873C11.7549 7.69507 12.218 7.1897 12.7898 7.1897C12.8462 7.1897 12.9018 7.19464 12.9555 7.20416C13.4483 7.29077 13.8248 7.75677 13.8248 8.31873Z" fill="#D3A489"/>
<path d="M13.8249 8.31866C13.8249 8.88062 13.4485 9.34662 12.9557 9.43323C12.8662 9.078 12.8184 8.70447 12.8184 8.31866C12.8184 7.93304 12.8662 7.55933 12.9557 7.2041C13.4485 7.29071 13.8249 7.75671 13.8249 8.31866Z" fill="#BF8E75"/>
<path d="M13.1598 8.3186C13.1598 8.54144 12.9941 8.72217 12.7899 8.72217C12.5856 8.72217 12.4199 8.54144 12.4199 8.3186C12.4199 8.09576 12.5856 7.91504 12.7899 7.91504C12.9941 7.91504 13.1598 8.09576 13.1598 8.3186Z" fill="#BF8E75"/>
<path d="M16.8774 13.4642L15.4731 14.3157L15.0459 12.1481L15.9185 11.5874" fill="#CFF09E"/>
<path d="M16.8774 13.4642L18.2816 14.3157L18.7088 12.1481L17.8363 11.5874" fill="#CFF09E"/>
<path d="M19.9302 8.31873C19.9302 8.88068 20.3065 9.34668 20.7993 9.43329C20.8532 9.44281 20.9087 9.44775 20.9651 9.44775C21.537 9.44775 22.0001 8.94238 22.0001 8.31873C22.0001 7.69507 21.537 7.1897 20.9651 7.1897C20.9087 7.1897 20.8532 7.19464 20.7993 7.20416C20.3065 7.29077 19.9302 7.75677 19.9302 8.31873Z" fill="#D3A489"/>
<path d="M19.9302 8.31866C19.9302 8.88062 20.3065 9.34662 20.7993 9.43323C20.8889 9.078 20.9368 8.70447 20.9368 8.31866C20.9368 7.93304 20.8889 7.55933 20.7993 7.2041C20.3065 7.29071 19.9302 7.75671 19.9302 8.31866Z" fill="#BF8E75"/>
<path d="M21.3351 8.31873C21.3351 8.54156 21.1694 8.72229 20.9651 8.72229C20.7609 8.72229 20.5952 8.54156 20.5952 8.31873C20.5952 8.09589 20.7609 7.91516 20.9651 7.91516C21.1694 7.91516 21.3351 8.09589 21.3351 8.31873Z" fill="#BF8E75"/>
<path d="M20.7282 7.71866C20.7282 9.80899 19.3283 11.5432 17.4956 11.8651C17.2945 11.9012 17.0881 11.9193 16.8776 11.9193C14.7508 11.9193 13.0269 10.0388 13.0269 7.71866C13.0269 6.62094 13.3765 4.97299 14.0083 4.22464C14.712 3.39133 15.757 3.51785 16.8776 3.51785C17.0881 3.51785 17.2945 3.53616 17.4956 3.57223C19.3283 3.89413 20.7282 5.62814 20.7282 7.71866Z" fill="#BF8E75"/>
<path d="M17.9905 10.7604V12.2503C17.9905 12.7958 17.6608 13.2568 17.2066 13.4099C17.1027 13.4451 16.9919 13.4641 16.8775 13.4641C16.2628 13.4641 15.7646 12.9208 15.7646 12.2503V10.7604H17.9905Z" fill="#BF8E75"/>
<path d="M17.9901 12.156V12.2503C17.9901 12.7958 17.6604 13.2568 17.2063 13.4101C16.7965 13.2726 16.4885 12.884 16.4316 12.4085C16.506 12.4135 16.5807 12.416 16.6559 12.416C16.8665 12.416 17.0728 12.3977 17.2739 12.3616C17.5216 12.3182 17.761 12.2487 17.9901 12.156Z" fill="#D3A489"/>
<path d="M20.728 7.71863C20.728 9.80896 19.3281 11.5432 17.4954 11.8651C15.6625 11.5432 14.2627 9.80896 14.2627 7.71863C14.2627 6.4314 14.7934 5.2793 15.6296 4.50861C16.1508 4.02777 16.7913 3.6958 17.4954 3.57202C19.2041 3.87213 20.5368 5.40015 20.709 7.29968C20.7216 7.43756 20.728 7.57745 20.728 7.71863Z" fill="#D3A489"/>
<path d="M16.8773 9.78756C16.5548 9.78756 16.2324 9.6993 15.9385 9.52316C15.8556 9.47335 15.8252 9.35983 15.8709 9.26937C15.9165 9.17892 16.0206 9.14596 16.1035 9.19558C16.5881 9.48617 17.1665 9.48617 17.651 9.19558C17.7338 9.14596 17.838 9.17892 17.8837 9.26937C17.9292 9.35983 17.8989 9.47335 17.816 9.52316C17.5221 9.6993 17.1997 9.78756 16.8773 9.78756Z" fill="#BF8E75"/>
<path d="M16.0572 7.474C16.0572 7.7373 15.8617 7.95062 15.6205 7.95062C15.3791 7.95062 15.1836 7.7373 15.1836 7.474C15.1836 7.21088 15.3791 6.99756 15.6205 6.99756C15.8617 6.99756 16.0572 7.21088 16.0572 7.474Z" fill="#3D4159"/>
<path d="M18.5709 7.474C18.5709 7.7373 18.3754 7.95062 18.1342 7.95062C17.893 7.95062 17.6973 7.7373 17.6973 7.474C17.6973 7.21088 17.893 6.99756 18.1342 6.99756C18.3754 6.99756 18.5709 7.21088 18.5709 7.474Z" fill="#3D4159"/>
<path d="M15.9682 7.38995C15.9682 7.50275 15.8843 7.59412 15.7809 7.59412C15.6775 7.59412 15.5938 7.50275 15.5938 7.38995C15.5938 7.27716 15.6775 7.18579 15.7809 7.18579C15.8843 7.18579 15.9682 7.27716 15.9682 7.38995Z" fill="white"/>
<path d="M18.5034 7.38995C18.5034 7.50275 18.4194 7.59412 18.3161 7.59412C18.2127 7.59412 18.1289 7.50275 18.1289 7.38995C18.1289 7.27716 18.2127 7.18579 18.3161 7.18579C18.4194 7.18579 18.5034 7.27716 18.5034 7.38995Z" fill="white"/>
<path d="M17.3144 8.67389H16.4408C16.3367 8.67389 16.2524 8.58179 16.2524 8.46826C16.2524 8.35474 16.3367 8.26282 16.4408 8.26282H17.3144C17.4185 8.26282 17.5029 8.35474 17.5029 8.46826C17.5029 8.58179 17.4185 8.67389 17.3144 8.67389Z" fill="#BF8E75"/>
<path d="M18.145 15.3619H19.8237V15.9226H18.145V15.3619Z" fill="#CFF09E"/>
<path d="M16.6519 2.31764C17.8184 2.40865 18.755 3.4366 18.8142 4.73061L18.8253 4.97359H19.4964L19.8577 7.59529L20.733 7.29976L20.6156 4.73061C20.5535 3.37142 19.5229 2.30611 18.2758 2.31105L16.6519 2.31764Z" fill="#2A2F4F"/>
<path d="M20.5415 1.30396C21.4704 2.31726 21.4704 3.96027 20.5415 4.97357C19.6127 5.98688 18.1066 5.98688 17.1777 4.97357L20.5415 1.30396Z" fill="#3D4159"/>
<path d="M17.1777 4.97353H14.2583L13.8968 7.59541L13.0215 7.29988L13.139 4.73073C13.2009 3.37172 14.2315 2.30605 15.4788 2.31118L19.6949 2.32857L20.2523 3.42299" fill="#3D4159"/>
<path d="M17.1027 2.31764C15.9363 2.40865 14.9997 3.4366 14.9403 4.73061L14.9292 4.97359H14.2583L13.8968 7.59529L13.0215 7.29976L13.1391 4.73061C13.2011 3.37142 14.2317 2.30611 15.4788 2.31105L17.1027 2.31764Z" fill="#2A2F4F"/>
<path d="M8.64934 15.574V23.7252C5.17827 22.9008 2.31917 20.2892 0.922852 16.8181V15.574C0.922852 14.1031 1.83829 12.8654 3.08186 12.503C3.12735 12.4893 3.173 12.477 3.21983 12.4662C3.3432 12.4369 3.46992 12.4167 3.59866 12.4056C3.67722 12.3986 3.75677 12.3948 3.83717 12.3948H5.73502C5.94734 12.3948 6.15379 12.4191 6.35319 12.4662C6.36494 12.4688 6.37602 12.4717 6.38727 12.4746C6.421 12.4828 6.45424 12.4916 6.48747 12.5015C6.48881 12.5021 6.48881 12.5021 6.49016 12.5024C6.8183 12.598 7.12361 12.7548 7.39485 12.9604C8.15318 13.5344 8.64934 14.491 8.64934 15.574Z" fill="#3B8686"/>
<path d="M6.49742 12.4663L6.49037 12.5024L5.56067 17.2181C5.51266 17.2227 5.46432 17.2267 5.41599 17.2303C5.34801 17.2351 5.27953 17.2397 5.21071 17.243C5.07005 17.2503 4.92873 17.254 4.78673 17.254C4.64087 17.254 4.49619 17.2503 4.35217 17.2426C4.28705 17.2393 4.22192 17.2353 4.1568 17.23C4.10812 17.2263 4.05978 17.2227 4.01144 17.2183L3.08224 12.5027L3.0752 12.4663H6.49742Z" fill="#3B8686"/>
<path d="M4.78574 13.6962L3.47385 14.4916L3.07471 12.4665L3.88994 11.9426" fill="#CFF09E"/>
<path d="M4.78564 13.6962L6.0977 14.4916L6.49684 12.4665L5.68161 11.9426" fill="#CFF09E"/>
<path d="M6.54671 15.1993H6.9628L5.17725 20.2408L4.82578 21.2336L4.43604 20.1772L4.79472 18.8336L6.48746 12.5016L6.49736 12.4663L7.39484 12.7862L6.54671 15.1993Z" fill="#79BD9A"/>
<path d="M5.17731 20.2408L4.82584 21.2336L4.4361 20.1772L2.59935 15.1993H3.01595L2.16748 12.7862L3.06529 12.4663L3.07486 12.5016L4.79478 18.8336L5.17731 20.2408Z" fill="#79BD9A"/>
<path d="M5.82555 11.1702V12.5623C5.82555 13.0719 5.51755 13.5026 5.09323 13.6456C4.99622 13.6785 4.89265 13.6963 4.78574 13.6963C4.21153 13.6963 3.74609 13.1887 3.74609 12.5621V11.1702H5.82555Z" fill="#EAB599"/>
<path d="M5.8257 12.4741V12.5624C5.8257 13.072 5.5177 13.5026 5.09338 13.6456C4.71069 13.5173 4.42284 13.1542 4.36963 12.71C4.43912 12.7145 4.50894 12.7169 4.5791 12.7169C4.77582 12.7169 4.96867 12.6999 5.1565 12.6662C5.38796 12.6257 5.6117 12.5607 5.8257 12.4741Z" fill="#F6CAAE"/>
<path d="M1.93376 8.88885C1.93376 9.414 1.58229 9.84943 1.12189 9.93018C1.07153 9.93915 1.01967 9.94373 0.966965 9.94373C0.432709 9.94373 0 9.47168 0 8.88885C0 8.30621 0.432709 7.83398 0.966965 7.83398C1.01967 7.83398 1.07153 7.83875 1.12189 7.84753C1.58229 7.92847 1.93376 8.36371 1.93376 8.88885Z" fill="#F6CAAE"/>
<path d="M1.93393 8.88885C1.93393 9.414 1.58246 9.84943 1.12205 9.93018C1.0383 9.59839 0.993652 9.24921 0.993652 8.88885C0.993652 8.5285 1.0383 8.17932 1.12205 7.84753C1.58246 7.92847 1.93393 8.36371 1.93393 8.88885Z" fill="#EAB599"/>
<path d="M1.31277 8.88885C1.31277 9.09705 1.15802 9.26587 0.967178 9.26587C0.776337 9.26587 0.621582 9.09705 0.621582 8.88885C0.621582 8.68066 0.776337 8.51184 0.967178 8.51184C1.15802 8.51184 1.31277 8.68066 1.31277 8.88885Z" fill="#EAB599"/>
<path d="M7.63818 8.88885C7.63818 9.414 7.98982 9.84943 8.45023 9.93018C8.50058 9.93915 8.55228 9.94373 8.60515 9.94373C9.13924 9.94373 9.57195 9.47168 9.57195 8.88885C9.57195 8.30621 9.13924 7.83398 8.60515 7.83398C8.55228 7.83398 8.50058 7.83875 8.45023 7.84753C7.98982 7.92847 7.63818 8.36371 7.63818 8.88885Z" fill="#F6CAAE"/>
<path d="M7.63818 8.88885C7.63818 9.414 7.98982 9.84943 8.45022 9.93018C8.53381 9.59839 8.57846 9.24921 8.57846 8.88885C8.57846 8.5285 8.53381 8.17932 8.45022 7.84753C7.98982 7.92847 7.63818 8.36371 7.63818 8.88885Z" fill="#EAB599"/>
<path d="M8.38356 6.8338V8.32831C8.38356 10.2813 7.0757 11.9014 5.36333 12.2021C5.35762 12.2032 5.35141 12.2041 5.3457 12.2052C5.16359 12.2371 4.97661 12.2528 4.78593 12.2528C2.79913 12.2528 1.18848 10.4957 1.18848 8.32831V6.8338C1.18848 6.37732 1.25981 5.93878 1.39174 5.53137C1.8837 4.00409 3.21774 2.90894 4.78593 2.90894H4.7861C4.97661 2.90894 5.16393 2.92505 5.34637 2.95636C7.06714 3.24988 8.38356 4.87421 8.38356 6.8338Z" fill="#EAB599"/>
<path d="M8.95079 8.88885C8.95079 9.09705 8.79621 9.26587 8.60536 9.26587C8.41435 9.26587 8.25977 9.09705 8.25977 8.88885C8.25977 8.68066 8.41435 8.51184 8.60536 8.51184C8.79621 8.51184 8.95079 8.68066 8.95079 8.88885Z" fill="#EAB599"/>
<path d="M8.38379 6.83398V8.32849C8.38379 10.2815 7.07593 11.9016 5.36355 12.2023C5.35785 12.2034 5.35164 12.2043 5.34593 12.2054C3.62517 11.912 2.30908 10.2877 2.30908 8.32849V6.83398C2.30908 4.87439 3.6255 3.25006 5.3466 2.95654C7.06737 3.25006 8.38379 4.87439 8.38379 6.83398Z" fill="#F6CAAE"/>
<path d="M4.01985 8.09985C4.01985 8.34558 3.83707 8.54498 3.61165 8.54498C3.3864 8.54498 3.20361 8.34558 3.20361 8.09985C3.20361 7.85394 3.3864 7.65454 3.61165 7.65454C3.83707 7.65454 4.01985 7.85394 4.01985 8.09985Z" fill="#3D4159"/>
<path d="M6.36848 8.09985C6.36848 8.34558 6.18587 8.54498 5.96045 8.54498C5.73503 8.54498 5.55225 8.34558 5.55225 8.09985C5.55225 7.85394 5.73503 7.65454 5.96045 7.65454C6.18587 7.65454 6.36848 7.85394 6.36848 8.09985Z" fill="#3D4159"/>
<path d="M3.93671 8.02136C3.93671 8.12665 3.85849 8.21197 3.76181 8.21197C3.6653 8.21197 3.58691 8.12665 3.58691 8.02136C3.58691 7.91589 3.6653 7.83057 3.76181 7.83057C3.85849 7.83057 3.93671 7.91589 3.93671 8.02136Z" fill="white"/>
<path d="M6.30536 8.02136C6.30536 8.12665 6.22697 8.21197 6.13046 8.21197C6.03395 8.21197 5.95557 8.12665 5.95557 8.02136C5.95557 7.91589 6.03395 7.83057 6.13046 7.83057C6.22697 7.83057 6.30536 7.91589 6.30536 8.02136Z" fill="white"/>
<path d="M5.19397 9.04614H4.37773C4.28055 9.04614 4.20166 8.96027 4.20166 8.85406C4.20166 8.74805 4.28055 8.66199 4.37773 8.66199H5.19397C5.29115 8.66199 5.37004 8.74805 5.37004 8.85406C5.37004 8.96008 5.29115 9.04614 5.19397 9.04614Z" fill="#EAB599"/>
<path d="M4.78612 10.2612C4.48501 10.2612 4.18372 10.1788 3.90912 10.0142C3.83175 9.96766 3.80338 9.86146 3.84601 9.77705C3.88865 9.69246 3.98583 9.6617 4.06337 9.70821C4.51606 9.97957 5.05652 9.97957 5.50921 9.70821C5.58658 9.6617 5.68394 9.69246 5.7264 9.77705C5.76903 9.86146 5.74084 9.96766 5.66329 10.0142C5.38869 10.1788 5.08741 10.2612 4.78612 10.2612Z" fill="#EAB599"/>
<path d="M8.38356 5.47754V7.00848H7.71402V5.80951L2.88071 4.82971L1.85802 4.62225V7.00848H1.18848V5.47754C1.18848 3.73236 2.48509 2.31787 4.0845 2.31787H5.48737C5.52547 2.31787 5.56357 2.31842 5.60167 2.32062C7.14804 2.38544 8.38356 3.77392 8.38356 5.47754Z" fill="#594439"/>
<path d="M8.38371 5.47772V7.00867H7.71417V5.80969L2.88086 4.8299C3.14723 3.43463 4.25687 2.37738 5.60182 2.3208C7.14819 2.38562 8.38371 3.77411 8.38371 5.47772Z" fill="#594439"/>
<path d="M15.6692 22.0394V22.8685C14.2523 23.5944 12.6696 23.9999 11.0002 23.9999C10.1936 23.9999 9.40688 23.9055 8.64955 23.7253C8.34508 23.6528 8.04564 23.5671 7.75107 23.4677C7.20825 23.2849 6.68289 23.0571 6.17969 22.7892V22.0394C6.17969 20.2331 7.30392 18.7131 8.83133 18.2675C8.88705 18.2513 8.94312 18.2361 9.00018 18.223C9.15192 18.1871 9.30768 18.1622 9.46613 18.1479C9.56264 18.1391 9.66016 18.1353 9.75885 18.1353H12.0896C12.3499 18.1353 12.604 18.1651 12.8487 18.223C12.8627 18.2259 12.8771 18.2292 12.8905 18.2327C12.9318 18.2429 12.9731 18.2543 13.0136 18.2665C13.0149 18.2665 13.0157 18.2665 13.0166 18.2669C13.4199 18.3845 13.7947 18.5771 14.1279 18.8298C15.0594 19.5345 15.6692 20.7095 15.6692 22.0394Z" fill="#79BD9A"/>
<path d="M15.6691 22.0394V22.8685C14.2522 23.5944 12.6695 23.9999 11.0001 23.9999C10.1935 23.9999 9.40678 23.9055 8.64946 23.7253C8.34499 23.6528 8.04555 23.5671 7.75098 23.4677V22.0394C7.75098 20.2331 8.87521 18.7131 10.4026 18.2675C10.4583 18.2513 10.5144 18.2361 10.5715 18.223C10.7232 18.1871 10.879 18.1622 11.0374 18.1479C11.1341 18.1391 11.2314 18.1353 11.3301 18.1353H12.0895C12.3498 18.1353 12.6039 18.1651 12.8486 18.223C12.8626 18.2259 12.877 18.2292 12.8904 18.2327C12.9317 18.2429 12.973 18.2543 13.0135 18.2665C13.0148 18.2665 13.0156 18.2665 13.0165 18.2669C13.4198 18.3845 13.7946 18.5771 14.1278 18.8298C15.0593 19.5345 15.6691 20.7095 15.6691 22.0394Z" fill="#79BD9A"/>
<path d="M13.0257 18.2229L13.0166 18.2668L11.8947 23.9607C11.5996 23.9867 11.3015 23.9999 11.0002 23.9999C10.6466 23.9999 10.2958 23.9818 9.9502 23.9455L8.83133 18.2674L8.82227 18.2229H13.0257Z" fill="#3B8686"/>
<path d="M10.9237 19.7332L9.31255 20.71L8.82227 18.2227L9.82347 17.5795" fill="#CFF09E"/>
<path d="M10.9238 19.7332L12.5352 20.71L13.0253 18.2227L12.0242 17.5795" fill="#CFF09E"/>
<path d="M6.11279 17.1936V11.3053C6.11279 10.7069 6.20427 10.1208 6.3847 9.56305C7.06029 7.46594 8.88445 6.0564 10.9238 6.0564C11.1764 6.0564 11.4285 6.07782 11.6734 6.12012C12.7939 6.3111 13.8218 6.93494 14.5672 7.87683C15.3205 8.8288 15.7353 10.0464 15.7353 11.3053V17.1936" fill="#443334"/>
<path d="M8.09204 11.5352C8.09204 13.618 9.2099 16.0275 9.82388 17.1935H6.11279V11.3052C6.11279 10.707 6.20427 10.1209 6.3847 9.56299C7.05609 7.47797 8.86363 6.07263 10.8889 6.05688C9.40964 6.09717 8.09204 8.68591 8.09204 11.5352Z" fill="#443334"/>
<path d="M12.2009 16.6309V18.3403C12.2009 18.9662 11.8226 19.4952 11.3016 19.671C11.1823 19.7112 11.0552 19.7332 10.9238 19.7332C10.2187 19.7332 9.64697 19.1096 9.64697 18.3403V16.6309H12.2009Z" fill="#EAB599"/>
<path d="M12.2013 18.2322V18.3404C12.2013 18.9662 11.823 19.4952 11.302 19.671C10.8319 19.5134 10.4784 19.0675 10.4131 18.5219C10.4984 18.5275 10.5841 18.5303 10.6704 18.5303C10.9119 18.5303 11.1488 18.5094 11.3795 18.4682C11.6637 18.4182 11.9385 18.3386 12.2013 18.2322Z" fill="#F6CAAE"/>
<path d="M7.42142 13.829C7.42142 14.4739 6.98955 15.0087 6.42424 15.108C6.36231 15.1188 6.29886 15.1244 6.2339 15.1244C5.57796 15.1244 5.04639 14.5447 5.04639 13.829C5.04639 13.1134 5.57796 12.5337 6.2339 12.5337C6.29886 12.5337 6.36231 12.5394 6.42424 12.5502C6.98955 12.6494 7.42142 13.1841 7.42142 13.829Z" fill="#F6CAAE"/>
<path d="M7.42139 13.8291C7.42139 14.474 6.98952 15.0089 6.42421 15.1081C6.32149 14.7005 6.2666 14.2719 6.2666 13.8291C6.2666 13.3865 6.32149 12.9579 6.42421 12.5503C6.98952 12.6495 7.42139 13.1842 7.42139 13.8291Z" fill="#EAB599"/>
<path d="M6.65838 13.8291C6.65838 14.0849 6.46837 14.2922 6.23389 14.2922C5.99957 14.2922 5.80957 14.0849 5.80957 13.8291C5.80957 13.5735 5.99957 13.3662 6.23389 13.3662C6.46837 13.3662 6.65838 13.5735 6.65838 13.8291Z" fill="#EAB599"/>
<path d="M13.9732 12.1751V16.6281C13.3423 17.285 12.5332 17.7401 11.6331 17.8983C11.626 17.8995 11.6185 17.9008 11.6114 17.9021C11.3879 17.9411 11.1582 17.9605 10.9239 17.9605C8.48394 17.9605 6.50586 15.8026 6.50586 13.1408V11.3054C6.50586 11.0704 6.5213 10.8392 6.55118 10.6132C7.60224 11.4379 9.1095 11.3564 10.0698 10.3662C10.3878 10.0386 10.6087 9.64844 10.7338 9.23462C10.8032 9.95935 11.1072 10.6647 11.6457 11.22C12.2868 11.8805 13.134 12.1991 13.9732 12.1751Z" fill="#EAB599"/>
<path d="M13.9732 12.1751V16.6281C13.3422 17.285 12.5332 17.7401 11.633 17.8983C11.626 17.8995 11.6184 17.9008 11.6114 17.9021C9.4982 17.5419 7.88184 15.547 7.88184 13.1408V11.3054C7.88184 11.2565 7.88251 11.2081 7.88419 11.1596C8.66333 11.2466 9.47218 10.9825 10.0697 10.3662C10.3878 10.0386 10.6087 9.64844 10.7337 9.23462C10.8034 9.95935 11.1072 10.6647 11.6456 11.22C12.2868 11.8805 13.1339 12.1991 13.9732 12.1751Z" fill="#F6CAAE"/>
<path d="M13.2966 12.7336C13.2966 12.2914 12.9681 11.9331 12.5629 11.9331C12.1576 11.9331 11.8291 12.2914 11.8291 12.7336" fill="#EAB599"/>
<path d="M10.0192 12.7336C10.0192 12.2914 9.69077 11.9331 9.28542 11.9331C8.88023 11.9331 8.55176 12.2914 8.55176 12.7336" fill="#EAB599"/>
<path d="M9.78656 13.0746C9.78656 13.3765 9.56215 13.6213 9.28537 13.6213C9.00859 13.6213 8.78418 13.3765 8.78418 13.0746C8.78418 12.7726 9.00859 12.5278 9.28537 12.5278C9.56215 12.5278 9.78656 12.7726 9.78656 13.0746Z" fill="#3D4159"/>
<path d="M13.0644 13.0746C13.0644 13.3765 12.84 13.6213 12.5632 13.6213C12.2863 13.6213 12.062 13.3765 12.062 13.0746C12.062 12.7726 12.2863 12.5278 12.5632 12.5278C12.84 12.5278 13.0644 12.7726 13.0644 13.0746Z" fill="#3D4159"/>
<path d="M11.4256 14.451H10.4232C10.3039 14.451 10.207 14.3456 10.207 14.2152C10.207 14.085 10.3039 13.9794 10.4232 13.9794H11.4256C11.5451 13.9794 11.6418 14.085 11.6418 14.2152C11.6418 14.3456 11.5451 14.451 11.4256 14.451Z" fill="#EAB599"/>
<path d="M10.9241 15.9433C10.5542 15.9433 10.1843 15.842 9.84705 15.6399C9.75188 15.5828 9.71714 15.4526 9.76951 15.3488C9.82171 15.2449 9.94122 15.207 10.0364 15.2642C10.5923 15.5976 11.2561 15.5976 11.812 15.2642C11.907 15.207 12.0265 15.2449 12.0789 15.3488C12.1313 15.4526 12.0965 15.5828 12.0014 15.6399C11.6642 15.8422 11.2942 15.9433 10.9241 15.9433Z" fill="#EAB599"/>
<path d="M9.68472 12.9778C9.68472 13.1073 9.58871 13.212 9.47005 13.212C9.35138 13.212 9.25537 13.1073 9.25537 12.9778C9.25537 12.8484 9.35138 12.7437 9.47005 12.7437C9.58871 12.7437 9.68472 12.8484 9.68472 12.9778Z" fill="white"/>
<path d="M12.9865 12.9778C12.9865 13.1073 12.8905 13.212 12.7718 13.212C12.6531 13.212 12.5571 13.1073 12.5571 12.9778C12.5571 12.8484 12.6531 12.7437 12.7718 12.7437C12.8905 12.7437 12.9865 12.8484 12.9865 12.9778Z" fill="white"/>
<path d="M13.9313 14.4062C13.9313 14.7378 13.6849 15.0066 13.3809 15.0066C13.077 15.0066 12.8306 14.7378 12.8306 14.4062C12.8306 14.0746 13.077 13.8058 13.3809 13.8058C13.6849 13.8058 13.9313 14.0746 13.9313 14.4062Z" fill="#EAB599"/>
<path d="M9.01773 14.4062C9.01773 14.7378 8.77133 15.0066 8.46736 15.0066C8.16339 15.0066 7.91699 14.7378 7.91699 14.4062C7.91699 14.0746 8.16339 13.8058 8.46736 13.8058C8.77133 13.8058 9.01773 14.0746 9.01773 14.4062Z" fill="#EAB599"/>
</g>
</svg>
