<svg width="31" height="45" viewBox="0 0 31 45" fill="none" xmlns="http://www.w3.org/2000/svg">
<path d="M29.0934 36.8548C28.3478 36.8548 27.4773 37.2458 26.4831 38.0247L20.9704 35.82L26.565 33.6136C27.5049 34.2746 28.3746 34.6053 29.1768 34.6053C30.0597 34.6053 30.6402 34.1094 30.9173 33.1206C30.9723 32.9106 30.9998 32.6837 30.9998 32.4438C30.9998 31.1862 30.2537 30.5094 28.7618 30.4207C29.3686 29.7607 29.6742 29.1138 29.6742 28.4839C29.6742 27.8258 29.355 27.2685 28.7204 26.8184C28.3888 26.64 28.0433 26.5491 27.6848 26.5491C26.4684 26.5491 25.6394 27.613 25.1975 29.7447L15.4998 33.6616L5.80224 29.8357C5.36026 27.6451 4.53016 26.5491 3.31523 26.5491C2.95623 26.5491 2.61054 26.64 2.27878 26.8184C1.67194 27.2684 1.36758 27.8258 1.36758 28.4839C1.36758 29.1138 1.67194 29.7607 2.27878 30.4207C0.759958 30.5094 0 31.1862 0 32.444C0 32.6837 0.028025 32.9108 0.0823524 33.1206C0.387025 34.1094 0.967091 34.6053 1.82365 34.6053C2.62416 34.6053 3.49434 34.2746 4.43466 33.6138L10.0706 35.82L4.51638 37.9788C3.5496 37.2297 2.69445 36.8548 1.94843 36.8548C1.06322 36.8548 0.441822 37.3509 0.0823524 38.3395C0.0278684 38.5495 0 38.7735 0 39.0153C0 40.2742 0.759802 40.9508 2.27878 41.0396C1.67194 41.6997 1.36758 42.3466 1.36758 42.9765C1.36758 43.6343 1.67194 44.1893 2.27878 44.6421C2.66659 44.8821 3.03874 44.9999 3.39868 44.9999C4.53016 44.9999 5.34679 43.95 5.84404 41.8505L15.4998 38.0247L25.1563 41.8505C25.6538 43.9501 26.4832 44.9999 27.6428 44.9999C27.9749 44.9999 28.3328 44.8821 28.7206 44.6421C29.355 44.1893 29.6744 43.6343 29.6744 42.9765C29.6744 42.3466 29.3686 41.6997 28.7619 41.0396C30.2537 40.9508 31 40.2742 31 39.0153C31 38.7735 30.9723 38.5496 30.9175 38.3395C30.5856 37.3507 29.9778 36.8548 29.0934 36.8548Z" fill="#C4C4C4"/>
<path d="M2.36304 21.9148C3.88217 23.8042 6.02333 25.1861 8.78761 26.0538V26.7314C8.78761 27.5706 9.04939 28.2761 9.57434 28.8452C10.0988 29.4161 10.7483 29.7311 11.5221 29.7909C12.3231 29.8516 12.9163 29.7012 13.3035 29.3411C13.9108 29.82 14.588 30.06 15.3348 30.06C16.0252 30.06 16.6615 29.8363 17.2409 29.3863C17.6278 29.7151 18.1939 29.8518 18.9406 29.7911C19.7135 29.7013 20.3636 29.3787 20.8882 28.8239C21.4127 28.2661 21.675 27.5708 21.675 26.7316V26.2369C24.6586 25.3962 26.966 23.9865 28.5966 22.004C30.1715 20.1154 30.9587 17.8808 30.9587 15.2997C30.9587 14.7287 30.9031 14.1291 30.7923 13.4982C30.2404 9.6609 28.6101 6.49364 25.9029 4.00421C23.0569 1.33559 19.5894 0 15.5004 0C11.4105 0 7.94311 1.32046 5.09835 3.95814C2.39028 6.48038 0.774391 9.66073 0.249591 13.498C0.138588 14.1289 0.0830078 14.7285 0.0830078 15.2996C0.0830078 17.8198 0.842496 20.0233 2.36304 21.9148ZM18.7128 10.3278C19.5279 9.29334 20.5155 8.77567 21.6753 8.77567C22.8639 8.77567 23.865 9.29334 24.6803 10.3278C25.4945 11.3608 25.9031 12.6138 25.9031 14.0828C25.9031 15.5532 25.4946 16.8065 24.6803 17.8414C23.865 18.8779 22.8637 19.3935 21.6753 19.3935C20.5155 19.3935 19.5279 18.8779 18.7128 17.8414C17.8969 16.8065 17.4894 15.5532 17.4894 14.0828C17.4892 12.6138 17.8969 11.3608 18.7128 10.3278ZM14.3196 20.6438C14.7198 20.0816 15.1126 19.7992 15.5004 19.7992C15.8871 19.7992 16.2522 20.1105 16.5982 20.7358C16.9435 21.3583 17.1176 21.9505 17.1176 22.5156C17.1176 23.3762 16.5913 23.8044 15.5414 23.8044C14.8504 23.8044 14.3395 23.6113 14.0084 23.2271C13.8147 22.9872 13.7189 22.692 13.7189 22.3347C13.719 21.7721 13.9188 21.2089 14.3196 20.6438ZM5.96853 10.3278C6.79754 9.29334 7.7925 8.77567 8.95247 8.77567C10.112 8.77567 11.1071 9.29334 11.9366 10.3278C12.7657 11.3608 13.1809 12.6138 13.1809 14.0828C13.1809 15.5532 12.7659 16.8065 11.9366 17.8414C11.1073 18.8779 10.112 19.3935 8.95247 19.3935C7.7925 19.3935 6.79754 18.8779 5.96853 17.8414C5.14 16.8065 4.72479 15.5532 4.72479 14.0828C4.72479 12.6138 5.14 11.3608 5.96853 10.3278Z" fill="#C4C4C4"/>
</svg>
