<svg width="69" height="78" viewBox="0 0 69 78" fill="none" xmlns="http://www.w3.org/2000/svg">
<g clip-path="url(#clip0)">
<rect y="14.2568" width="53.4388" height="65.5873" transform="rotate(-15.4734 0 14.2568)" fill="white"/>
<path d="M46.2817 24.3069L41.3419 6.46236C41.0964 5.57886 40.5755 4.81091 39.8933 4.32695C39.2112 3.843 38.4236 3.68257 37.7032 3.88085L13.8297 10.4896C13.1099 10.69 12.5169 11.2326 12.1808 11.9985C11.8446 12.7643 11.7927 13.6908 12.0365 14.5748L16.9763 32.4193C17.1055 32.8851 17.3131 33.3235 17.5856 33.7061C17.858 34.0886 18.1893 34.4068 18.5579 34.6398C18.3617 35.0293 18.2411 35.4725 18.2042 35.9407C18.1672 36.4089 18.2146 36.8917 18.3433 37.3576L26.7 67.5454C26.9455 68.4289 27.4665 69.1968 28.1486 69.6808C28.8308 70.1647 29.6184 70.3251 30.3387 70.1269L30.7077 70.0247L31.4418 72.6766C31.5052 72.9058 31.6403 73.1051 31.8172 73.2306C31.9941 73.3561 32.1984 73.3976 32.3851 73.3459L37.4146 71.9536C37.6014 71.9019 37.7553 71.7613 37.8424 71.5626C37.9296 71.364 37.943 71.1237 37.8795 70.8945L37.1454 68.2426L47.4056 65.4024L48.1397 68.0542C48.2031 68.2834 48.3381 68.4827 48.5151 68.6082C48.692 68.7337 48.8963 68.7752 49.083 68.7235L54.1125 67.3312C54.2993 67.2795 54.4531 67.1389 54.5403 66.9403C54.6275 66.7416 54.6409 66.5013 54.5774 66.2721L53.8433 63.6202L54.2123 63.5181C54.932 63.3177 55.525 62.7751 55.8612 62.0093C56.1973 61.2434 56.2492 60.3169 56.0054 59.4329L47.6487 29.2452C47.5195 28.7794 47.312 28.341 47.0395 27.9584C46.767 27.5759 46.4357 27.2577 46.0672 27.0246C46.2634 26.6352 46.3839 26.192 46.4209 25.7237C46.4578 25.2555 46.4104 24.7728 46.2817 24.3069ZM36.232 70.4201L32.6108 71.4225L32.1159 69.6349L35.7372 68.6324L36.232 70.4201ZM52.9299 65.7977L49.3087 66.8002L48.8138 65.0125L52.435 64.0101L52.9299 65.7977ZM46.2405 29.635L54.5972 59.8228C54.7145 60.2484 54.6896 60.6945 54.5277 61.0632C54.3659 61.4319 54.0803 61.6932 53.7338 61.7897L29.8602 68.3985C29.5134 68.4939 29.1342 68.4167 28.8058 68.1836C28.4773 67.9506 28.2265 67.5809 28.1083 67.1555L19.7516 36.9678C19.6342 36.5421 19.6592 36.096 19.8211 35.7273C19.9829 35.3586 20.2684 35.0973 20.615 35.0008L44.4885 28.392C44.8354 28.2966 45.2146 28.3738 45.543 28.6069C45.8714 28.8399 46.1223 29.2096 46.2405 29.635V29.635ZM20.1365 33.2724C19.7897 33.3679 19.4105 33.2906 19.082 33.0576C18.7536 32.8246 18.5028 32.4548 18.3846 32.0295L13.4448 14.185C13.3274 13.7593 13.3524 13.3132 13.5143 12.9445C13.6761 12.5758 13.9616 12.3145 14.3082 12.218L38.1817 5.60925C38.5285 5.5138 38.9078 5.59106 39.2362 5.82407C39.5646 6.05708 39.8154 6.42682 39.9337 6.8522L44.8735 24.6967C44.9908 25.1223 44.9658 25.5684 44.804 25.9372C44.6421 26.3059 44.3566 26.5671 44.0101 26.6636L20.1365 33.2724Z" fill="#C4C4C4"/>
<path d="M37.4059 10.6446L34.7906 11.3686C34.6038 11.4203 34.4499 11.5609 34.3627 11.7595C34.2755 11.9581 34.2622 12.1985 34.3257 12.4277L37.1964 22.7981C37.2599 23.0273 37.3949 23.2266 37.5718 23.3521C37.7487 23.4776 37.953 23.5191 38.1398 23.4674L40.7551 22.7434C40.9419 22.6917 41.0958 22.5511 41.183 22.3524C41.2701 22.1538 41.2835 21.9135 41.22 21.6843L38.3492 11.3139C38.2858 11.0847 38.1508 10.8854 37.9738 10.7599C37.7969 10.6343 37.5926 10.5929 37.4059 10.6446V10.6446ZM39.5725 21.2099L38.3655 21.544L35.9731 12.902L37.1802 12.5679L39.5725 21.2099Z" fill="#C4C4C4"/>
<path d="M44.0968 44.9864L46.7122 44.2624C46.8989 44.2107 47.0528 44.0701 47.14 43.8715C47.2272 43.6729 47.2405 43.4325 47.1771 43.2033L44.3063 32.8329C44.2428 32.6037 44.1078 32.4044 43.9309 32.2789C43.754 32.1534 43.5497 32.1119 43.3629 32.1636L40.7476 32.8876C40.5608 32.9393 40.4069 33.0799 40.3198 33.2785C40.2326 33.4772 40.2192 33.7175 40.2827 33.9467L43.1535 44.3171C43.2169 44.5463 43.352 44.7456 43.5289 44.8711C43.7058 44.9966 43.9101 45.0381 44.0968 44.9864ZM41.9302 34.4211L43.1373 34.0869L45.5296 42.729L44.3225 43.0631L41.9302 34.4211Z" fill="#C4C4C4"/>
</g>
<defs>
<clipPath id="clip0">
<rect y="14.2568" width="53.4388" height="65.5873" transform="rotate(-15.4734 0 14.2568)" fill="white"/>
</clipPath>
</defs>
</svg>
