<svg width="49" height="73" viewBox="0 0 49 73" fill="none" xmlns="http://www.w3.org/2000/svg">
<path d="M27.4437 19.8234C24.6564 19.19 22.4357 17.2661 21.4609 14.7115L18.0551 5.78686C17.4699 4.25343 15.6945 3.50245 14.0964 4.11233L10.7759 5.37947C9.17823 5.98916 8.35452 7.73199 8.9397 9.26542L12.3455 18.1901C12.8572 19.5311 13.0028 20.9963 12.7667 22.427C12.6756 22.979 13.0614 23.4861 13.6284 23.5593C14.1959 23.6323 14.7292 23.2442 14.8201 22.6917C15.1127 20.92 14.9323 19.1055 14.2986 17.4448L12.4066 12.487L17.6153 10.4993L19.5073 15.457C20.717 18.6271 23.4721 21.0052 26.9178 21.788C29.0227 22.2646 30.8231 23.4841 32.0001 25.1934L26.3102 27.3647C25.7713 27.5704 25.4941 28.1569 25.6914 28.674C25.8889 29.1916 26.4864 29.4443 27.0254 29.2387L32.9324 26.9845L33.9619 29.6823L28.6988 37.0799C23.1276 35.5537 18.9583 41.4286 21.1918 47.6347L18.3296 51.6602L11.9663 34.9854L23.1187 30.7295C23.6581 30.5237 23.9353 29.9371 23.738 29.42C23.5405 28.9024 22.943 28.6497 22.4036 28.8555L11.4668 33.0292C11.3781 32.3275 11.38 31.6156 11.4773 30.9015C11.7086 29.188 12.3257 28.0976 13.1575 26.8618C13.4754 26.3895 13.3451 25.7673 12.8666 25.4719C12.3882 25.1764 11.7426 25.32 11.425 25.7916C10.4266 27.2728 9.6925 28.6377 9.41471 30.6928C9.17936 32.4244 9.39502 34.1094 9.97951 35.6425L9.9808 35.6459L21.314 65.344C22.8652 69.4088 27.5739 71.4006 31.8104 69.7839L41.3169 66.1561C45.4533 64.5776 47.7836 60.0367 46.1628 55.7895C46.0806 55.5739 35.0067 26.5554 34.8536 26.1541C33.6368 22.9657 30.8794 20.6012 27.4437 19.8234ZM16.9 8.62487L11.6913 10.6126L10.8928 8.5201C10.7021 8.02037 10.9704 7.45269 11.4912 7.25393L14.8117 5.98679C15.3325 5.78803 15.9108 6.03265 16.1015 6.53238L16.9 8.62487ZM22.7658 45.4221C21.9649 40.5946 25.5775 37.3144 29.4204 39.5731C33.9136 42.203 34.5512 49.8426 30.2695 51.4766C27.1798 52.6557 23.4567 49.6246 22.7658 45.4221ZM19.2003 53.9418L22.2096 49.7115C22.9141 50.8153 23.7999 51.7284 24.7844 52.4049L20.7684 58.0511L19.2003 53.9418ZM43.8518 55.5982L28.8344 61.3291C28.2955 61.5347 28.0178 62.1215 28.2151 62.6386C28.4126 63.1562 29.0106 63.4087 29.5495 63.2031L44.4935 57.5002C45.0544 60.2846 43.4505 63.1945 40.6016 64.2817L31.095 67.9095C28.2461 68.9967 25.1114 67.8952 23.6742 65.4452L25.6429 64.6939C26.1818 64.4882 26.4595 63.9015 26.262 63.3839C26.0647 62.8668 25.4667 62.6143 24.9277 62.8199L22.8857 63.5992L21.6391 60.3326L26.6124 53.3436C32.5884 55.469 37.2169 48.9121 34.4053 42.3851L37.2716 38.3552L43.8518 55.5982ZM36.4009 36.0737L33.3055 40.4252C32.5512 39.3708 31.6234 38.5152 30.6073 37.905L34.8326 31.9639L36.4009 36.0737Z" fill="#C4C4C4"/>
</svg>
