<svg width="56" height="62" viewBox="0 0 56 62" fill="none" xmlns="http://www.w3.org/2000/svg">
<g clip-path="url(#clip0)">
<rect y="14.4214" width="41.0127" height="50.0708" transform="rotate(-20.587 0 14.4214)" fill="white"/>
<path d="M25.5177 18.5216L29.5281 17.0152C30.4457 16.6712 31.1589 15.8966 31.5111 14.8615C31.8632 13.8264 31.8254 12.6156 31.406 11.4951C31.3744 11.4115 31.3296 11.3337 31.2741 11.2665C31.2186 11.1992 31.1535 11.1437 31.0826 11.1032C31.0117 11.0627 30.9364 11.038 30.861 11.0305C30.7856 11.0231 30.7117 11.0329 30.6434 11.0596L24.6369 13.3158C24.2463 13.4658 23.9429 13.7976 23.7922 14.2394C23.6415 14.6813 23.6557 15.1978 23.8317 15.6775L24.747 18.1142C24.8801 18.4686 25.2278 18.6305 25.5177 18.5216ZM24.8815 15.2831C24.8329 15.1434 24.8304 14.9942 24.8745 14.8665C24.9187 14.7388 25.0061 14.6425 25.1186 14.5974L30.5424 12.5601C30.8183 14.0234 30.1969 15.3015 29.0466 15.7336L25.5448 17.0489L24.8815 15.2831Z" fill="#C4C4C4"/>
<path d="M13.7782 26.2612C13.9206 26.3437 14.0781 26.3615 14.2165 26.3107C14.355 26.2599 14.4632 26.1446 14.5179 25.9899L14.6222 25.6948L15.5166 26.2536L14.7855 28.3089C14.6564 28.6708 14.595 29.0688 14.6048 29.4795C14.6146 29.8903 14.6955 30.3054 14.8426 30.7006L21.6358 48.7861C22.1604 50.1754 23.1146 51.3373 24.2892 52.0172C25.4639 52.697 26.7632 52.8393 27.9024 52.413L43.9169 46.3976C45.0534 45.9685 45.9356 45.0058 46.3697 43.7213C46.8037 42.4368 46.7541 40.9355 46.2318 39.5475L35 9.64522C34.8559 9.25945 34.6509 8.90066 34.3968 8.58936C34.1427 8.27805 33.8444 8.02032 33.5189 7.83091C33.1935 7.64149 32.8473 7.52409 32.5002 7.48542C32.153 7.44675 31.8117 7.48756 31.4957 7.60553L21.7215 11.2769C21.4076 11.3963 21.1255 11.5904 20.8916 11.848C20.6576 12.1057 20.4764 12.4218 20.3584 12.7781C20.2405 13.1343 20.188 13.5238 20.2041 13.924C20.2203 14.3241 20.3046 14.7271 20.4524 15.1095L21.3422 17.4784L19.205 18.2811C18.5786 18.5107 18.0876 19.0302 17.837 19.7284L17.2575 21.3522L16.3563 20.7868L16.5746 20.1659C16.6021 20.0879 16.6151 20.0022 16.613 19.9139C16.6108 19.8255 16.5935 19.7362 16.5621 19.6511C16.5306 19.5661 16.4857 19.4869 16.4298 19.4183C16.3739 19.3496 16.3082 19.2929 16.2365 19.2513L13.4887 17.6585C13.3463 17.5759 13.1888 17.5581 13.0504 17.6089C12.9119 17.6597 12.8036 17.7749 12.7489 17.9298L10.6923 23.755C10.6648 23.833 10.6517 23.9185 10.6539 24.0068C10.656 24.0951 10.6733 24.1844 10.7047 24.2694C10.7361 24.3544 10.7811 24.4335 10.8369 24.502C10.8928 24.5706 10.9585 24.6273 11.0302 24.6688L13.7782 26.2612ZM18.9136 20.3741C19.0558 19.9817 19.3332 19.6905 19.6864 19.5628L22.313 18.5762C22.4566 18.5192 22.5687 18.3975 22.6267 18.2358C22.6847 18.0741 22.6843 17.8846 22.6254 17.7055L21.5022 14.7152C21.1585 13.8003 21.4535 12.8401 22.2029 12.5586L31.9771 8.88722C32.1552 8.82083 32.3476 8.79798 32.5432 8.81998C32.7389 8.84199 32.9339 8.90842 33.1172 9.01547C33.3005 9.12251 33.4684 9.26807 33.6114 9.4438C33.7543 9.61954 33.8694 9.82199 33.9501 10.0396L45.1819 39.9418C45.577 40.9899 45.6149 42.1238 45.2874 43.0942C44.9599 44.0645 44.2938 44.7917 43.4355 45.116L27.421 51.1313C26.5603 51.4535 25.5786 51.3461 24.691 50.8326C23.8034 50.3191 23.0823 49.4414 22.6857 48.3918L15.8924 30.3062C15.8098 30.0835 15.7647 29.8496 15.7598 29.6183C15.7549 29.3869 15.7902 29.163 15.8637 28.9596L18.9136 20.3741ZM15.9334 25.0773L15.0378 24.5173L15.9401 21.9617L16.8389 22.5236L15.9334 25.0773ZM13.6213 19.1532L15.2867 20.1185L13.6455 24.7663L11.9803 23.8014L13.6213 19.1532Z" fill="#C4C4C4"/>
<path d="M25.5992 45.6572C25.5459 45.8143 25.5518 45.9981 25.6157 46.1681C25.6795 46.3381 25.796 46.4803 25.9396 46.5635C26.0832 46.6467 26.2421 46.6641 26.3813 46.6118C26.5206 46.5595 26.6287 46.4418 26.682 46.2847L28.1822 41.8612L36.7478 38.6438L40.8281 40.9744C40.8995 41.0159 40.9755 41.0415 41.0517 41.0498C41.1278 41.0581 41.2027 41.0488 41.2719 41.0226C41.341 40.9964 41.4032 40.9537 41.4548 40.897C41.5064 40.8402 41.5464 40.7707 41.5725 40.6922C41.5985 40.6137 41.6102 40.5279 41.6067 40.4398C41.6032 40.3516 41.5847 40.2628 41.5523 40.1785C41.5198 40.0942 41.474 40.0161 41.4175 39.9486C41.361 39.8811 41.295 39.8256 41.2231 39.7853L37.1468 37.457L33.2207 27.0044L34.7412 22.5212C34.7945 22.364 34.7886 22.1802 34.7247 22.0103C34.6609 21.8403 34.5443 21.6981 34.4008 21.6149C34.2572 21.5316 34.0983 21.5143 33.9591 21.5666C33.8198 21.6189 33.7117 21.7365 33.6584 21.8937L32.1379 26.377L23.5762 29.5929L19.5191 27.2079C19.448 27.1654 19.3722 27.1387 19.296 27.1293C19.2199 27.1199 19.1448 27.128 19.0752 27.1531C19.0056 27.1783 18.9429 27.22 18.8906 27.2758C18.8383 27.3317 18.7974 27.4005 18.7705 27.4785C18.7435 27.5564 18.7309 27.6419 18.7334 27.7299C18.7359 27.818 18.7534 27.9069 18.785 27.9915C18.8166 28.0762 18.8616 28.1549 18.9175 28.2231C18.9733 28.2913 19.0388 28.3477 19.1103 28.389L23.1714 30.7763L27.0994 41.2337L25.5992 45.6572ZM24.3632 30.7598L32.3118 27.7741L35.9569 37.4783L28.0082 40.464L24.3632 30.7598Z" fill="#C4C4C4"/>
<path d="M30.8934 30.6051L27.294 31.9571C27.1547 32.0094 27.0466 32.1271 26.9933 32.2842C26.94 32.4414 26.9459 32.6252 27.0098 32.7951L28.6604 37.1895C28.7242 37.3595 28.8407 37.5017 28.9843 37.5849C29.1279 37.6681 29.2868 37.6855 29.426 37.6332L33.0254 36.2812C33.1646 36.2289 33.2727 36.1112 33.326 35.9541C33.3793 35.7969 33.3734 35.6131 33.3096 35.4432L31.659 31.0488C31.5951 30.8789 31.4786 30.7366 31.335 30.6534C31.1914 30.5702 31.0326 30.5528 30.8934 30.6051V30.6051ZM32.019 35.1967L29.4695 36.1543L28.3003 33.0417L30.8499 32.084L32.019 35.1967Z" fill="#C4C4C4"/>
</g>
<defs>
<clipPath id="clip0">
<rect y="14.4214" width="41.0127" height="50.0708" transform="rotate(-20.587 0 14.4214)" fill="white"/>
</clipPath>
</defs>
</svg>
