<svg width="33" height="45" viewBox="0 0 33 45" fill="none" xmlns="http://www.w3.org/2000/svg">
<path d="M22.8184 6.49827L20.7016 3.69176C20.0132 1.96073 18.3179 0.757137 15.9128 0.29767C13.583 -0.147282 10.8296 0.153722 8.15989 1.14544C5.49019 2.13715 3.20805 3.7067 1.73374 5.56487C0.211817 7.48311 -0.286548 9.50158 0.322125 11.2622L0.550944 14.7701C0.55514 14.8344 0.568836 14.8983 0.591497 14.9593L9.97264 40.2134C9.98082 40.2354 9.99007 40.2568 10.0002 40.2773C10.7664 42.1235 12.6031 43.4077 15.1961 43.9031C17.75 44.391 20.7692 44.0606 23.6975 42.9728C26.6258 41.885 29.1285 40.1641 30.7446 38.1274C32.3854 36.0592 32.9382 33.8873 32.3133 31.9886C32.3075 31.9665 32.3006 31.9442 32.2924 31.9222L22.9113 6.6681C22.8886 6.60709 22.8572 6.54974 22.8184 6.49827ZM2.59032 6.382C3.951 4.66698 6.07882 3.21049 8.58164 2.28077C11.0845 1.35104 13.647 1.06518 15.7974 1.47595C17.8272 1.8637 19.2209 2.81972 19.7217 4.16788C19.8882 4.61596 19.9511 5.09579 19.9144 5.59599C19.8735 5.40641 19.8196 5.21947 19.7514 5.03577C19.1654 3.45842 17.6559 2.36303 15.5006 1.95124C13.4658 1.56259 11.0626 1.82498 8.73362 2.69012C6.40461 3.55528 4.41293 4.92545 3.12539 6.54827C1.76167 8.26717 1.33327 10.0826 1.91921 11.6599C1.98745 11.8436 2.06875 12.0205 2.16162 12.1908C1.80723 11.8358 1.54154 11.4313 1.37507 10.9831C0.874427 9.635 1.30595 8.00088 2.59032 6.382ZM12.136 13.0047C7.9784 14.4157 3.8214 13.6605 2.93768 11.2816C2.02705 8.83017 4.87442 5.41569 9.15536 3.82545C13.4363 2.2352 17.8223 2.9627 18.7329 5.4141C19.6167 7.79314 16.9609 11.079 12.8903 12.7245C12.766 12.7741 12.6414 12.8233 12.5151 12.8702C12.3889 12.9171 12.2625 12.9612 12.136 13.0047ZM29.8879 37.3102C28.3855 39.2038 26.0373 40.8116 23.2758 41.8374C20.5143 42.8633 17.6859 43.1785 15.3115 42.7249C13.5358 42.3856 12.198 41.6519 11.4368 40.62C12.3984 41.2092 13.5894 41.6156 14.9531 41.8063C17.3764 42.1452 20.1928 41.7814 22.8836 40.7818C25.9332 39.649 28.4977 37.8481 30.1046 35.711C30.2904 35.4641 30.2453 35.0859 30.0042 34.8663C29.763 34.6466 29.4171 34.669 29.2312 34.9156C27.7617 36.87 25.2943 38.5943 22.4619 39.6464C19.9217 40.59 17.2776 40.9356 15.017 40.6195C12.8652 40.3185 11.244 39.4513 10.4523 38.1776C10.4146 38.1169 10.3687 38.0656 10.318 38.0233L2.31325 16.4744C3.30794 17.1332 4.57073 17.5848 6.03144 17.789C8.45473 18.128 11.2712 17.7641 13.9619 16.7645C17.0114 15.6318 19.5758 13.831 21.1827 11.6941C21.3684 11.4472 21.3234 11.069 21.0822 10.8493C20.8411 10.6297 20.4953 10.6521 20.3093 10.8986C18.8398 12.8529 16.3726 14.5771 13.5403 15.6292C11 16.5728 8.35601 16.9184 6.09533 16.6022C4.02089 16.3122 2.43994 15.4956 1.61954 14.296L1.54416 13.1403C2.4227 13.9729 3.66109 14.5622 5.18413 14.8531C7.51402 15.2982 10.2674 14.9972 12.9371 14.0054C15.6068 13.0137 17.8889 11.4442 19.3632 9.586C20.3269 8.37134 20.8803 7.11634 21.0021 5.91215L21.6981 6.83484C21.7615 7.3988 21.7004 7.99774 21.5127 8.61862C21.42 8.92543 21.5799 9.27371 21.8697 9.39643C21.9989 9.45111 22.1321 9.45176 22.2483 9.40861C22.3929 9.35489 22.5112 9.23325 22.5626 9.06316C22.5748 9.0229 22.5861 8.98279 22.5973 8.94268L30.6011 30.4889C30.5904 30.5541 30.5891 30.623 30.6002 30.6938C30.6954 31.3033 30.6396 31.9567 30.4344 32.6358C30.3417 32.9426 30.5015 33.2909 30.7914 33.4136C30.9206 33.4683 31.0538 33.469 31.17 33.4258C31.2872 33.3823 31.3865 33.2934 31.4475 33.1709C31.5499 34.4534 31.0159 35.8883 29.8879 37.3102ZM13.2296 10.1955L16.901 8.1245C17.6496 7.70214 17.9631 6.70808 17.6303 5.81207C17.2974 4.916 16.411 4.36768 15.5682 4.53648L11.4351 5.36457C11.3253 5.38656 11.217 5.41733 11.1131 5.45591C9.90801 5.90357 9.3343 7.36252 9.83415 8.70811C10.334 10.0537 11.721 10.7842 12.9261 10.3365C13.0299 10.298 13.132 10.2505 13.2296 10.1955ZM10.8525 8.32975C10.5851 7.6101 10.8913 6.83023 11.5348 6.59119C11.5906 6.57046 11.6491 6.55389 11.7085 6.54199L15.8416 5.7139C16.1563 5.65082 16.4875 5.85571 16.6118 6.19041C16.7361 6.5251 16.619 6.89643 16.3394 7.05412L12.6681 9.12517C12.6153 9.15493 12.5602 9.18058 12.5043 9.20131C11.8608 9.44027 11.1198 9.04932 10.8525 8.32975ZM12.6034 8.24986L12.2309 7.24714C12.1145 6.93356 12.248 6.59481 12.5293 6.49032C12.8106 6.38583 13.1329 6.55525 13.2493 6.86883L13.6218 7.87148C13.7383 8.18506 13.6048 8.52381 13.3235 8.62829C13.0422 8.73278 12.7199 8.56336 12.6034 8.24986Z" fill="#C4C4C4"/>
</svg>
