<svg width="21" height="28" viewBox="0 0 21 28" fill="none" xmlns="http://www.w3.org/2000/svg">
<g clip-path="url(#clip0)">
<rect width="21" height="28" fill="white"/>
<path d="M15.9295 9.06962C15.9295 9.31853 15.7781 9.52035 15.5915 9.52035C15.4048 9.52035 15.2534 9.31853 15.2534 9.06962C15.2534 8.82071 15.4048 8.6189 15.5915 8.6189C15.7781 8.6189 15.9295 8.82071 15.9295 9.06962Z" fill="#C4C4C4"/>
<path d="M18.9719 25.7464C18.9719 24.0067 17.9104 22.5913 16.6056 22.5913H16.5684C16.2178 22.1342 15.7614 21.8232 15.2534 21.726V20.2783L16.7559 21.6142L17.1309 20.8641L15.2534 19.195V18.0251L16.7559 19.361L17.1309 18.6109L15.2534 16.9414V15.7714L16.7559 17.1073L17.1309 16.3573L15.2534 14.6878V13.5178L16.7559 14.8537L17.1309 14.1037L15.2534 12.4341V11.3232H16.5258C17.3155 11.3232 17.9577 10.4668 17.9577 9.41397C17.9577 9.11906 17.9052 8.82393 17.8065 8.55983L16.1962 4.26517C15.9521 3.61439 15.4612 3.2101 14.9153 3.2101C14.504 3.2101 14.124 3.44031 13.8573 3.83205L14.3076 1.02954L8.90415 0L7.80864 6.81591H5.78813C5.22907 6.81591 4.774 7.42245 4.774 8.16809V9.52027H5.45009V10.5938L5.03232 10.8724C4.45593 11.2565 4.09791 12.029 4.09791 12.8882V20.0538C4.06985 20.146 4.03832 20.2354 4.01637 20.3322L3.44146 22.8869C2.63283 23.3896 2.06964 24.4807 2.06964 25.7464V27.0986H1.39355V28H19.648V27.0986H18.9719V25.7464ZM16.6056 24.845V25.2501C15.8352 25.041 15.2534 24.1301 15.2534 23.042V22.6369C16.0237 22.846 16.6056 23.7564 16.6056 24.845V24.845ZM14.5773 23.042C14.5773 24.1306 13.9954 25.041 13.2251 25.2501V24.845C13.2251 23.7564 13.8069 22.846 14.5773 22.6369V23.042ZM14.5773 12.4341L13.7006 13.2134C13.5229 13.0783 13.3474 12.9249 13.1655 12.7563C12.9618 12.5675 12.7458 12.3701 12.5122 12.2006L12.6845 11.1275C12.8732 11.2488 13.0818 11.3232 13.3048 11.3232H14.5773V12.4341ZM14.2392 4.66858C14.314 4.46941 14.435 4.32151 14.5773 4.226V5.91446H15.2534V4.226C15.3957 4.32151 15.5166 4.46941 15.5914 4.66858L17.2019 8.96324C17.2542 9.10233 17.2816 9.25837 17.2816 9.41397C17.2816 9.96967 16.9426 10.4217 16.5258 10.4217H13.3048C12.8881 10.4217 12.549 9.96967 12.549 9.41397C12.549 9.25837 12.5768 9.10233 12.6287 8.96324L14.2392 4.66858ZM9.43284 1.01149L13.4948 1.78486L12.6923 6.7785L12.0243 8.56027C11.9253 8.82393 11.8729 9.11906 11.8729 9.41397C11.8729 9.79383 11.9588 10.1464 12.1032 10.4442L11.8756 11.8591C11.7151 11.8058 11.5464 11.7739 11.3665 11.7739C11.0694 11.7739 10.7433 11.9447 10.5417 12.0714C10.2808 11.8716 9.99537 11.7739 9.67498 11.7739C9.54376 11.7739 9.42013 11.795 9.2998 11.8243C9.1354 11.4169 8.88665 11.0815 8.57254 10.8724L8.15444 10.5938V9.52027H8.83053V8.16809C8.83053 7.74443 8.68049 7.37029 8.45122 7.12182L9.43284 1.01149ZM5.45009 8.16809C5.45009 7.91962 5.60178 7.71736 5.78813 7.71736H7.8164C8.00259 7.71736 8.15444 7.91962 8.15444 8.16809V8.61881H5.45009V8.16809ZM5.33455 11.6788L6.12618 11.1511V9.52027H7.47835V11.1511L8.26999 11.6788C8.42349 11.7812 8.54993 11.9348 8.64599 12.1188C8.36638 12.303 8.11318 12.536 7.87582 12.7559C7.73288 12.8886 7.59423 13.0116 7.45574 13.1261H4.774V12.8882C4.774 12.3725 4.98858 11.909 5.33455 11.6788ZM5.8771 15.6352L5.48145 18.272C5.22115 18.3959 4.98396 18.5812 4.774 18.8139V14.0275H6.48782C6.18527 14.4666 5.96904 15.0219 5.8771 15.6352V15.6352ZM2.74573 25.7464C2.74573 24.5038 3.50402 23.4928 4.43595 23.4928H7.8164V22.5913H4.43595C4.35986 22.5913 4.28525 22.597 4.21081 22.6065L4.66407 20.5914C4.88013 19.631 5.5308 18.9855 6.28298 18.9855H9.84466V18.0841H6.28298C6.25393 18.0841 6.22653 18.0918 6.19748 18.0931L6.52579 15.9039C6.68804 15.9719 6.81167 16.08 6.95231 16.205C7.21673 16.4403 7.54487 16.7319 8.15444 16.7319V15.8304C7.74971 15.8304 7.56353 15.6649 7.32798 15.4554C7.17382 15.3179 6.99522 15.1629 6.75324 15.056C6.92358 14.662 7.17101 14.3436 7.46895 14.151C7.75417 13.9666 8.01249 13.7273 8.2619 13.4956C8.71697 13.0737 9.14695 12.6753 9.67498 12.6753C9.9272 12.6753 10.1256 12.761 10.3186 12.9533L10.4971 13.1305L10.6898 12.9828C10.8453 12.8642 11.1665 12.6753 11.3665 12.6753C11.8946 12.6753 12.3245 13.0737 12.7796 13.496C12.8768 13.5867 12.9777 13.6769 13.079 13.7661L12.6994 14.1032L13.0744 14.8533L14.5773 13.5174V14.6873L12.6994 16.3564L13.0744 17.1065L14.5773 15.771V16.941L12.6994 18.6101L13.0744 19.3601L14.5773 18.0246V19.1946L12.6994 20.8637L13.0744 21.6137L14.5773 20.2783V21.726C13.4323 21.9458 12.549 23.2588 12.549 24.845V26.1971H12.8871C13.7484 26.1971 14.5012 25.5783 14.9153 24.6588C15.3295 25.5783 16.0823 26.1971 16.9436 26.1971H17.2816V24.845C17.2816 24.4019 17.212 23.9805 17.0879 23.5978C17.7839 23.8768 18.2958 24.7285 18.2958 25.7464V27.0986H2.74573V25.7464Z" fill="#C4C4C4"/>
<path d="M7.47803 24.3943V25.2957C7.88259 25.2957 8.06895 25.461 8.30449 25.6708C8.56858 25.9056 8.89673 26.1972 9.5063 26.1972V25.2957C9.10157 25.2957 8.91538 25.1302 8.67984 24.9207C8.41574 24.6859 8.08743 24.3943 7.47803 24.3943Z" fill="#C4C4C4"/>
<path d="M9.16841 22.1405V21.2391C8.76368 21.2391 8.57749 21.0736 8.34195 20.8641C8.07785 20.6293 7.74954 20.3376 7.14014 20.3376V21.2391C7.5447 21.2391 7.73106 21.4044 7.9666 21.6141C8.2307 21.8489 8.55884 22.1405 9.16841 22.1405Z" fill="#C4C4C4"/>
<path d="M9.50635 23.042V23.9434C9.91091 23.9434 10.0973 24.1087 10.3328 24.3185C10.5969 24.5533 10.925 24.8449 11.5346 24.8449V23.9434C11.1299 23.9434 10.9437 23.7779 10.7082 23.5684C10.4441 23.3336 10.1158 23.042 9.50635 23.042V23.042Z" fill="#C4C4C4"/>
<path d="M9.84473 19.887V20.7885C10.4541 20.7885 10.7824 20.4969 11.0465 20.2621C11.2821 20.0523 11.4683 19.887 11.873 19.887V18.9856C11.2634 18.9856 10.9353 19.2772 10.6712 19.512C10.4356 19.7215 10.2493 19.887 9.84473 19.887V19.887Z" fill="#C4C4C4"/>
<path d="M11.5346 14.929V14.0276C10.925 14.0276 10.5969 14.3192 10.3328 14.554C10.0973 14.7635 9.91091 14.929 9.50635 14.929V15.8305C10.1158 15.8305 10.4441 15.5389 10.7082 15.3041C10.9437 15.0943 11.1299 14.929 11.5346 14.929Z" fill="#C4C4C4"/>
<path d="M9.84473 2.75928H10.5208V3.66073H9.84473V2.75928Z" fill="#C4C4C4"/>
<path d="M10.5205 5.46362H11.1966V6.36507H10.5205V5.46362Z" fill="#C4C4C4"/>
<path d="M10.8589 8.6189H11.535V9.52035H10.8589V8.6189Z" fill="#C4C4C4"/>
<path d="M9.50635 7.2666H10.1824V8.16806H9.50635V7.2666Z" fill="#C4C4C4"/>
<path d="M11.873 2.30859H12.5491V3.21005H11.873V2.30859Z" fill="#C4C4C4"/>
<path d="M9.50635 9.97095H10.1824V10.8724H9.50635V9.97095Z" fill="#C4C4C4"/>
<path d="M0.0410156 27.0986H0.717105V28.0001H0.0410156V27.0986Z" fill="#C4C4C4"/>
<path d="M20.3242 27.0986H21.0003V28.0001H20.3242V27.0986Z" fill="#C4C4C4"/>
</g>
<defs>
<clipPath id="clip0">
<rect width="21" height="28" fill="white"/>
</clipPath>
</defs>
</svg>
