<svg width="62" height="60" viewBox="0 0 62 60" fill="none" xmlns="http://www.w3.org/2000/svg">
<g clip-path="url(#clip0)">
<rect y="16.7151" width="49.38" height="45.54" transform="rotate(-19.7854 0 16.7151)" fill="white"/>
<path d="M34.9958 31.4375C37.5735 30.5102 39.848 28.8047 41.3972 26.6355L40.0997 25.8527C38.7431 27.7505 36.7542 29.2431 34.4983 30.0546L33.7488 30.325L33.251 28.9414L34.0008 28.6717C36.5785 27.7444 38.8531 26.0388 40.4023 23.8697L39.1047 23.0869C37.7482 24.9846 35.7592 26.4772 33.5033 27.2887L32.7538 27.5591L32.3028 26.3055C33.3865 25.1042 33.8126 23.4406 33.2617 21.9091L34.1688 21.5827C36.1498 20.8701 37.2257 18.8049 36.5688 16.9786C36.5247 16.8561 36.473 16.7366 36.4152 16.6206C34.472 12.7487 30.8423 9.81261 26.4565 8.56629L25.2972 8.2367C24.0079 7.87111 22.4546 8.4299 21.693 9.53326L21.01 10.5256C18.4242 14.2806 17.4964 18.8554 18.4641 23.0774C18.4934 23.2038 18.5303 23.3293 18.5744 23.4518C19.2313 25.2781 21.3763 26.1846 23.3573 25.472L24.2644 25.1457C24.8154 26.6772 26.2037 27.6882 27.8042 27.9238L28.2549 29.1768L27.5052 29.4465C25.2489 30.2581 22.7649 30.3746 20.5103 29.7759L20.0088 31.2059C22.5848 31.8911 25.4242 31.7569 28.0027 30.8294L28.7524 30.5597L29.2499 31.9426L28.5001 32.2123C26.2439 33.024 23.7599 33.1404 21.5053 32.5418L21.0038 33.9717C23.5798 34.6569 26.4192 34.5228 28.9976 33.5953L29.7474 33.3255L30.2449 34.7085L29.4951 34.9782C27.2389 35.7898 24.7548 35.9063 22.5002 35.3076L21.9987 36.7376C24.5747 37.4228 27.4142 37.2886 29.9926 36.3611L30.7424 36.0914L31.2399 37.4743L30.4901 37.744C28.2338 38.5557 25.7498 38.6721 23.4952 38.0735L22.9937 39.5034C25.5697 40.1886 28.4091 40.0545 30.9876 39.127L31.7373 38.8572L32.2348 40.2402L31.4851 40.5099C29.2288 41.3215 26.7448 41.438 24.4902 40.8393L23.9887 42.2693C26.5647 42.9545 29.4041 42.8203 31.9825 41.8928L32.7323 41.6231L32.7748 41.7413C32.8482 41.9452 32.9358 42.1417 33.0325 42.3334C28.9366 44.184 26.7902 48.6446 28.2195 52.6178L28.9658 54.6922L31.9648 53.6133C34.9346 52.545 36.9221 50.0172 37.3024 47.2653C39.3482 49.1445 42.4909 49.8268 45.4606 48.7584L48.4597 47.6796L47.7135 45.6052C46.2842 41.632 41.7877 39.561 37.4517 40.7437C37.4046 40.5349 37.347 40.3276 37.2734 40.123L37.2309 40.0048L37.9807 39.7351C40.5584 38.8078 42.8329 37.1022 44.3821 34.9331L43.0846 34.1503C41.728 36.048 39.7391 37.5406 37.4832 38.3521L36.7337 38.6225L36.2359 37.2389L36.9857 36.9692C39.5634 36.0419 41.838 34.3364 43.3872 32.1672L42.0896 31.3844C40.7331 33.2821 38.7441 34.7748 36.4882 35.5863L35.7387 35.8567L35.241 34.4731L35.9907 34.2034C38.5684 33.2761 40.843 31.5705 42.3922 29.4014L41.0947 28.6186C39.7381 30.5163 37.7491 32.0089 35.4933 32.8204L34.7437 33.0908L34.246 31.7072L34.9958 31.4375ZM32.3831 31.2365C32.208 31.4821 31.9621 31.7479 31.748 31.8249C31.5327 31.9024 31.1739 31.8533 30.8835 31.7759L30.4526 30.578C30.7159 30.5733 30.988 30.5364 31.2505 30.442C31.5126 30.3477 31.7461 30.2027 31.9524 30.0393L32.3831 31.2365ZM35.837 43.1919C35.2463 42.7958 34.7856 42.2633 34.4726 41.6403C34.7235 41.6321 34.9814 41.595 35.2304 41.5054C35.4793 41.4158 35.7014 41.2803 35.9 41.1268C36.0556 41.8064 36.0397 42.5104 35.837 43.1919ZM35.368 39.534C35.193 39.7797 34.947 40.0454 34.7329 40.1225C34.5176 40.1999 34.1589 40.1509 33.8684 40.0735L33.4375 38.8756C33.7008 38.8708 33.9729 38.834 34.2354 38.7395C34.4975 38.6453 34.731 38.5002 34.9373 38.3368L35.368 39.534ZM34.373 36.7682C34.198 37.0138 33.9521 37.2796 33.7379 37.3566C33.5226 37.4341 33.1639 37.385 32.8735 37.3076L32.4425 36.1097C32.7059 36.105 32.9779 36.0681 33.2404 35.9737C33.5025 35.8794 33.7361 35.7344 33.9423 35.571L34.373 36.7682ZM33.378 34.0023C33.203 34.248 32.9571 34.5137 32.7429 34.5908C32.5277 34.6682 32.1689 34.6192 31.8785 34.5418L31.4476 33.3439C31.7109 33.3391 31.983 33.3023 32.2454 33.2078C32.5076 33.1136 32.7411 32.9685 32.9474 32.8051L33.378 34.0023ZM27.2635 24.0668L26.766 22.6839L22.8598 24.0891C21.7066 24.5039 20.4567 23.9766 20.0739 22.9124C20.0485 22.8418 20.0273 22.769 20.0108 22.6945C19.1305 18.8567 19.9734 14.6987 22.3243 11.286L23.0079 10.2934C23.3792 9.75299 24.1396 9.47946 24.77 9.65954L25.9293 9.98914C29.9162 11.1219 33.2143 13.7903 34.9808 17.3101C35.0135 17.378 35.0439 17.4475 35.0692 17.5181C35.4521 18.5823 34.8246 19.785 33.6714 20.1998L28.2656 22.1445L28.7631 23.5274L31.7621 22.4485C32.3109 23.9739 31.4121 25.6982 29.758 26.2932C28.104 26.8882 26.3127 26.1316 25.764 24.6062L27.2635 24.0668ZM30.2555 27.6762C30.511 27.5842 30.752 27.4701 30.9828 27.344L31.3881 28.4706C31.2131 28.7163 30.9672 28.982 30.753 29.0591C30.5377 29.1365 30.179 29.0875 29.8886 29.0101L29.483 27.8827C29.7412 27.8337 29.9996 27.7682 30.2555 27.6762ZM31.4673 52.2304L29.9678 52.7698L29.7191 52.0784C28.5233 48.7544 30.3893 45.0154 33.8891 43.5677C34.351 44.0677 34.9123 44.482 35.5515 44.797C36.4629 47.782 34.6821 51.074 31.4673 52.2304ZM46.214 46.1446L46.4627 46.8361L44.9632 47.3755C41.7481 48.5321 38.2787 47.1288 37.0791 44.2482C37.3714 43.5974 37.5397 42.9206 37.5775 42.2416C41.198 41.1272 45.0182 42.8207 46.214 46.1446Z" fill="#C4C4C4"/>
<path d="M26.8745 18.969L25.0842 18.2129L25.9826 16.4895L24.5706 15.8931L23.6723 17.6165L21.882 16.8603L21.1735 18.2195L22.9638 18.9757L22.0655 20.699L23.4774 21.2954L24.3758 19.572L26.1661 20.3282L26.8745 18.969Z" fill="#C4C4C4"/>
</g>
<defs>
<clipPath id="clip0">
<rect y="16.7151" width="49.38" height="45.54" transform="rotate(-19.7854 0 16.7151)" fill="white"/>
</clipPath>
</defs>
</svg>
