<svg width="65" height="68" viewBox="0 0 65 68" fill="none" xmlns="http://www.w3.org/2000/svg">
<rect width="65" height="68" fill="white"/>
<path d="M35.6729 19.5782L27.4839 14.2373C27.5727 13.9916 27.5602 13.6985 27.4253 13.4315L25.1874 9.00461C24.9441 8.52321 24.396 8.31006 23.9635 8.52867L18.0021 11.5422C17.5695 11.7609 17.4163 12.3286 17.6596 12.81L19.8974 17.2369C20.0324 17.5038 20.2611 17.6878 20.5118 17.7619L19.9567 27.5228C19.9465 27.7049 19.9861 27.8907 20.0707 28.0583L23.4155 34.675L28.5741 44.8796L33.7657 55.1498C34.7534 57.1038 36.9848 57.9717 38.7399 57.0845C39.6964 56.601 40.3172 55.6942 40.5242 54.6531C41.4852 55.1038 42.5835 55.1415 43.54 54.658C44.4965 54.1745 45.1174 53.2677 45.3243 52.2266C46.2854 52.6773 47.3836 52.715 48.3402 52.2315C50.0951 51.3443 50.7194 49.0329 49.7317 47.0789L44.54 36.8087L39.3815 26.6041L36.0367 19.9873C35.9517 19.8198 35.8255 19.6778 35.6729 19.5782ZM19.6666 12.8901L24.0617 10.6683L25.4181 13.3516L25.3897 13.3659L21.0517 15.5588L21.023 15.5733L19.6666 12.8901V12.8901ZM22.3601 17.0867L25.8442 15.3254L34.5997 21.0358L37.3742 26.5242L24.5412 33.0113L21.7668 27.5229L22.3601 17.0867ZM42.5326 36.7287L29.6996 43.2158L25.4226 34.7549L38.2555 28.2677L42.5326 36.7287ZM47.4584 50.4878C46.5668 50.9385 45.4333 50.4977 44.9316 49.5052C44.6882 49.0237 44.1403 48.8106 43.7077 49.0293C43.2753 49.2479 43.1218 49.8155 43.3652 50.297C43.8669 51.2895 43.5498 52.4636 42.6582 52.9143C41.7667 53.365 40.6332 52.9242 40.1315 51.9317C39.8881 51.4502 39.34 51.2372 38.9076 51.4558C38.475 51.6744 38.3217 52.242 38.5651 52.7235C39.0668 53.716 38.7496 54.8901 37.8581 55.3408C36.9667 55.7914 35.8334 55.3505 35.3317 54.358L30.5808 44.9597L43.4138 38.4725L48.1647 47.8709C48.6667 48.8632 48.3498 50.0372 47.4584 50.4878Z" fill="#C4C4C4"/>
</svg>
